%TF.GenerationSoftware,KiCad,Pcbnew,9.0.7*%
%TF.CreationDate,2026-03-09T18:07:53+05:30*%
%TF.ProjectId,hackpad,6861636b-7061-4642-9e6b-696361645f70,rev?*%
%TF.SameCoordinates,Original*%
%TF.FileFunction,Soldermask,Bot*%
%TF.FilePolarity,Negative*%
%FSLAX46Y46*%
G04 Gerber Fmt 4.6, Leading zero omitted, Abs format (unit mm)*
G04 Created by KiCad (PCBNEW 9.0.7) date 2026-03-09 18:07:53*
%MOMM*%
%LPD*%
G01*
G04 APERTURE LIST*
G04 APERTURE END LIST*
G36*
X125299381Y-120693400D02*
G01*
X125325984Y-120711175D01*
X125343759Y-120737778D01*
X125350001Y-120769158D01*
X125350001Y-121425158D01*
X125343759Y-121456538D01*
X125325984Y-121483141D01*
X125299381Y-121500916D01*
X125268001Y-121507158D01*
X123832001Y-121507158D01*
X123800621Y-121500916D01*
X123774018Y-121483141D01*
X123756243Y-121456538D01*
X123750001Y-121425158D01*
X123750001Y-120769158D01*
X123756243Y-120737778D01*
X123774018Y-120711175D01*
X123800621Y-120693400D01*
X123832001Y-120687158D01*
X125268001Y-120687158D01*
X125299381Y-120693400D01*
G37*
G36*
X130499381Y-120693400D02*
G01*
X130525984Y-120711175D01*
X130543759Y-120737778D01*
X130550001Y-120769158D01*
X130550001Y-121425158D01*
X130543759Y-121456538D01*
X130525984Y-121483141D01*
X130499381Y-121500916D01*
X130468001Y-121507158D01*
X129032001Y-121507158D01*
X129000621Y-121500916D01*
X128974018Y-121483141D01*
X128956243Y-121456538D01*
X128950001Y-121425158D01*
X128950001Y-120769158D01*
X128956243Y-120737778D01*
X128974018Y-120711175D01*
X129000621Y-120693400D01*
X129032001Y-120687158D01*
X130468001Y-120687158D01*
X130499381Y-120693400D01*
G37*
G36*
X104229381Y-120533400D02*
G01*
X104255984Y-120551175D01*
X104273759Y-120577778D01*
X104280001Y-120609158D01*
X104280001Y-121265158D01*
X104273759Y-121296538D01*
X104255984Y-121323141D01*
X104229381Y-121340916D01*
X104198001Y-121347158D01*
X102762001Y-121347158D01*
X102730621Y-121340916D01*
X102704018Y-121323141D01*
X102686243Y-121296538D01*
X102680001Y-121265158D01*
X102680001Y-120609158D01*
X102686243Y-120577778D01*
X102704018Y-120551175D01*
X102730621Y-120533400D01*
X102762001Y-120527158D01*
X104198001Y-120527158D01*
X104229381Y-120533400D01*
G37*
G36*
X109429381Y-120533400D02*
G01*
X109455984Y-120551175D01*
X109473759Y-120577778D01*
X109480001Y-120609158D01*
X109480001Y-121265158D01*
X109473759Y-121296538D01*
X109455984Y-121323141D01*
X109429381Y-121340916D01*
X109398001Y-121347158D01*
X107962001Y-121347158D01*
X107930621Y-121340916D01*
X107904018Y-121323141D01*
X107886243Y-121296538D01*
X107880001Y-121265158D01*
X107880001Y-120609158D01*
X107886243Y-120577778D01*
X107904018Y-120551175D01*
X107930621Y-120533400D01*
X107962001Y-120527158D01*
X109398001Y-120527158D01*
X109429381Y-120533400D01*
G37*
G36*
X145269381Y-120343400D02*
G01*
X145295984Y-120361175D01*
X145313759Y-120387778D01*
X145320001Y-120419158D01*
X145320001Y-121075158D01*
X145313759Y-121106538D01*
X145295984Y-121133141D01*
X145269381Y-121150916D01*
X145238001Y-121157158D01*
X143802001Y-121157158D01*
X143770621Y-121150916D01*
X143744018Y-121133141D01*
X143726243Y-121106538D01*
X143720001Y-121075158D01*
X143720001Y-120419158D01*
X143726243Y-120387778D01*
X143744018Y-120361175D01*
X143770621Y-120343400D01*
X143802001Y-120337158D01*
X145238001Y-120337158D01*
X145269381Y-120343400D01*
G37*
G36*
X150469381Y-120343400D02*
G01*
X150495984Y-120361175D01*
X150513759Y-120387778D01*
X150520001Y-120419158D01*
X150520001Y-121075158D01*
X150513759Y-121106538D01*
X150495984Y-121133141D01*
X150469381Y-121150916D01*
X150438001Y-121157158D01*
X149002001Y-121157158D01*
X148970621Y-121150916D01*
X148944018Y-121133141D01*
X148926243Y-121106538D01*
X148920001Y-121075158D01*
X148920001Y-120419158D01*
X148926243Y-120387778D01*
X148944018Y-120361175D01*
X148970621Y-120343400D01*
X149002001Y-120337158D01*
X150438001Y-120337158D01*
X150469381Y-120343400D01*
G37*
G36*
X165069381Y-120343400D02*
G01*
X165095984Y-120361175D01*
X165113759Y-120387778D01*
X165120001Y-120419158D01*
X165120001Y-121075158D01*
X165113759Y-121106538D01*
X165095984Y-121133141D01*
X165069381Y-121150916D01*
X165038001Y-121157158D01*
X163602001Y-121157158D01*
X163570621Y-121150916D01*
X163544018Y-121133141D01*
X163526243Y-121106538D01*
X163520001Y-121075158D01*
X163520001Y-120419158D01*
X163526243Y-120387778D01*
X163544018Y-120361175D01*
X163570621Y-120343400D01*
X163602001Y-120337158D01*
X165038001Y-120337158D01*
X165069381Y-120343400D01*
G37*
G36*
X170269381Y-120343400D02*
G01*
X170295984Y-120361175D01*
X170313759Y-120387778D01*
X170320001Y-120419158D01*
X170320001Y-121075158D01*
X170313759Y-121106538D01*
X170295984Y-121133141D01*
X170269381Y-121150916D01*
X170238001Y-121157158D01*
X168802001Y-121157158D01*
X168770621Y-121150916D01*
X168744018Y-121133141D01*
X168726243Y-121106538D01*
X168720001Y-121075158D01*
X168720001Y-120419158D01*
X168726243Y-120387778D01*
X168744018Y-120361175D01*
X168770621Y-120343400D01*
X168802001Y-120337158D01*
X170238001Y-120337158D01*
X170269381Y-120343400D01*
G37*
G36*
X125299381Y-119193400D02*
G01*
X125325984Y-119211175D01*
X125343759Y-119237778D01*
X125350001Y-119269158D01*
X125350001Y-119925158D01*
X125343759Y-119956538D01*
X125325984Y-119983141D01*
X125299381Y-120000916D01*
X125268001Y-120007158D01*
X123832001Y-120007158D01*
X123800621Y-120000916D01*
X123774018Y-119983141D01*
X123756243Y-119956538D01*
X123750001Y-119925158D01*
X123750001Y-119269158D01*
X123756243Y-119237778D01*
X123774018Y-119211175D01*
X123800621Y-119193400D01*
X123832001Y-119187158D01*
X125268001Y-119187158D01*
X125299381Y-119193400D01*
G37*
G36*
X130499381Y-119193400D02*
G01*
X130525984Y-119211175D01*
X130543759Y-119237778D01*
X130550001Y-119269158D01*
X130550001Y-119925158D01*
X130543759Y-119956538D01*
X130525984Y-119983141D01*
X130499381Y-120000916D01*
X130468001Y-120007158D01*
X129032001Y-120007158D01*
X129000621Y-120000916D01*
X128974018Y-119983141D01*
X128956243Y-119956538D01*
X128950001Y-119925158D01*
X128950001Y-119269158D01*
X128956243Y-119237778D01*
X128974018Y-119211175D01*
X129000621Y-119193400D01*
X129032001Y-119187158D01*
X130468001Y-119187158D01*
X130499381Y-119193400D01*
G37*
G36*
X104229381Y-119033400D02*
G01*
X104255984Y-119051175D01*
X104273759Y-119077778D01*
X104280001Y-119109158D01*
X104280001Y-119765158D01*
X104273759Y-119796538D01*
X104255984Y-119823141D01*
X104229381Y-119840916D01*
X104198001Y-119847158D01*
X102762001Y-119847158D01*
X102730621Y-119840916D01*
X102704018Y-119823141D01*
X102686243Y-119796538D01*
X102680001Y-119765158D01*
X102680001Y-119109158D01*
X102686243Y-119077778D01*
X102704018Y-119051175D01*
X102730621Y-119033400D01*
X102762001Y-119027158D01*
X104198001Y-119027158D01*
X104229381Y-119033400D01*
G37*
G36*
X109429381Y-119033400D02*
G01*
X109455984Y-119051175D01*
X109473759Y-119077778D01*
X109480001Y-119109158D01*
X109480001Y-119765158D01*
X109473759Y-119796538D01*
X109455984Y-119823141D01*
X109429381Y-119840916D01*
X109398001Y-119847158D01*
X107962001Y-119847158D01*
X107930621Y-119840916D01*
X107904018Y-119823141D01*
X107886243Y-119796538D01*
X107880001Y-119765158D01*
X107880001Y-119109158D01*
X107886243Y-119077778D01*
X107904018Y-119051175D01*
X107930621Y-119033400D01*
X107962001Y-119027158D01*
X109398001Y-119027158D01*
X109429381Y-119033400D01*
G37*
G36*
X145269381Y-118843400D02*
G01*
X145295984Y-118861175D01*
X145313759Y-118887778D01*
X145320001Y-118919158D01*
X145320001Y-119575158D01*
X145313759Y-119606538D01*
X145295984Y-119633141D01*
X145269381Y-119650916D01*
X145238001Y-119657158D01*
X143802001Y-119657158D01*
X143770621Y-119650916D01*
X143744018Y-119633141D01*
X143726243Y-119606538D01*
X143720001Y-119575158D01*
X143720001Y-118919158D01*
X143726243Y-118887778D01*
X143744018Y-118861175D01*
X143770621Y-118843400D01*
X143802001Y-118837158D01*
X145238001Y-118837158D01*
X145269381Y-118843400D01*
G37*
G36*
X150469381Y-118843400D02*
G01*
X150495984Y-118861175D01*
X150513759Y-118887778D01*
X150520001Y-118919158D01*
X150520001Y-119575158D01*
X150513759Y-119606538D01*
X150495984Y-119633141D01*
X150469381Y-119650916D01*
X150438001Y-119657158D01*
X149002001Y-119657158D01*
X148970621Y-119650916D01*
X148944018Y-119633141D01*
X148926243Y-119606538D01*
X148920001Y-119575158D01*
X148920001Y-118919158D01*
X148926243Y-118887778D01*
X148944018Y-118861175D01*
X148970621Y-118843400D01*
X149002001Y-118837158D01*
X150438001Y-118837158D01*
X150469381Y-118843400D01*
G37*
G36*
X165069381Y-118843400D02*
G01*
X165095984Y-118861175D01*
X165113759Y-118887778D01*
X165120001Y-118919158D01*
X165120001Y-119575158D01*
X165113759Y-119606538D01*
X165095984Y-119633141D01*
X165069381Y-119650916D01*
X165038001Y-119657158D01*
X163602001Y-119657158D01*
X163570621Y-119650916D01*
X163544018Y-119633141D01*
X163526243Y-119606538D01*
X163520001Y-119575158D01*
X163520001Y-118919158D01*
X163526243Y-118887778D01*
X163544018Y-118861175D01*
X163570621Y-118843400D01*
X163602001Y-118837158D01*
X165038001Y-118837158D01*
X165069381Y-118843400D01*
G37*
G36*
X170269381Y-118843400D02*
G01*
X170295984Y-118861175D01*
X170313759Y-118887778D01*
X170320001Y-118919158D01*
X170320001Y-119575158D01*
X170313759Y-119606538D01*
X170295984Y-119633141D01*
X170269381Y-119650916D01*
X170238001Y-119657158D01*
X168802001Y-119657158D01*
X168770621Y-119650916D01*
X168744018Y-119633141D01*
X168726243Y-119606538D01*
X168720001Y-119575158D01*
X168720001Y-118919158D01*
X168726243Y-118887778D01*
X168744018Y-118861175D01*
X168770621Y-118843400D01*
X168802001Y-118837158D01*
X170238001Y-118837158D01*
X170269381Y-118843400D01*
G37*
G36*
X147460181Y-112408429D02*
G01*
X147712879Y-112476140D01*
X147954577Y-112576255D01*
X148181140Y-112707061D01*
X148388692Y-112866320D01*
X148573680Y-113051308D01*
X148732939Y-113258860D01*
X148863745Y-113485423D01*
X148963860Y-113727121D01*
X149031571Y-113979819D01*
X149065718Y-114239194D01*
X149065718Y-114500806D01*
X149031571Y-114760181D01*
X148963860Y-115012879D01*
X148863745Y-115254577D01*
X148732939Y-115481140D01*
X148573680Y-115688692D01*
X148388692Y-115873680D01*
X148181140Y-116032939D01*
X147954577Y-116163745D01*
X147712879Y-116263860D01*
X147460181Y-116331571D01*
X147200806Y-116365718D01*
X146939194Y-116365718D01*
X146679819Y-116331571D01*
X146427121Y-116263860D01*
X146185423Y-116163745D01*
X145958860Y-116032939D01*
X145751308Y-115873680D01*
X145566320Y-115688692D01*
X145407061Y-115481140D01*
X145276255Y-115254577D01*
X145176140Y-115012879D01*
X145108429Y-114760181D01*
X145074282Y-114500806D01*
X145074282Y-114239194D01*
X145108429Y-113979819D01*
X145176140Y-113727121D01*
X145276255Y-113485423D01*
X145407061Y-113258860D01*
X145566320Y-113051308D01*
X145751308Y-112866320D01*
X145958860Y-112707061D01*
X146185423Y-112576255D01*
X146427121Y-112476140D01*
X146679819Y-112408429D01*
X146939194Y-112374282D01*
X147200806Y-112374282D01*
X147460181Y-112408429D01*
G37*
G36*
X167330181Y-112408429D02*
G01*
X167582879Y-112476140D01*
X167824577Y-112576255D01*
X168051140Y-112707061D01*
X168258692Y-112866320D01*
X168443680Y-113051308D01*
X168602939Y-113258860D01*
X168733745Y-113485423D01*
X168833860Y-113727121D01*
X168901571Y-113979819D01*
X168935718Y-114239194D01*
X168935718Y-114500806D01*
X168901571Y-114760181D01*
X168833860Y-115012879D01*
X168733745Y-115254577D01*
X168602939Y-115481140D01*
X168443680Y-115688692D01*
X168258692Y-115873680D01*
X168051140Y-116032939D01*
X167824577Y-116163745D01*
X167582879Y-116263860D01*
X167330181Y-116331571D01*
X167070806Y-116365718D01*
X166809194Y-116365718D01*
X166549819Y-116331571D01*
X166297121Y-116263860D01*
X166055423Y-116163745D01*
X165828860Y-116032939D01*
X165621308Y-115873680D01*
X165436320Y-115688692D01*
X165277061Y-115481140D01*
X165146255Y-115254577D01*
X165046140Y-115012879D01*
X164978429Y-114760181D01*
X164944282Y-114500806D01*
X164944282Y-114239194D01*
X164978429Y-113979819D01*
X165046140Y-113727121D01*
X165146255Y-113485423D01*
X165277061Y-113258860D01*
X165436320Y-113051308D01*
X165621308Y-112866320D01*
X165828860Y-112707061D01*
X166055423Y-112576255D01*
X166297121Y-112476140D01*
X166549819Y-112408429D01*
X166809194Y-112374282D01*
X167070806Y-112374282D01*
X167330181Y-112408429D01*
G37*
G36*
X127350181Y-112338429D02*
G01*
X127602879Y-112406140D01*
X127844577Y-112506255D01*
X128071140Y-112637061D01*
X128278692Y-112796320D01*
X128463680Y-112981308D01*
X128622939Y-113188860D01*
X128753745Y-113415423D01*
X128853860Y-113657121D01*
X128921571Y-113909819D01*
X128955718Y-114169194D01*
X128955718Y-114430806D01*
X128921571Y-114690181D01*
X128853860Y-114942879D01*
X128753745Y-115184577D01*
X128622939Y-115411140D01*
X128463680Y-115618692D01*
X128278692Y-115803680D01*
X128071140Y-115962939D01*
X127844577Y-116093745D01*
X127602879Y-116193860D01*
X127350181Y-116261571D01*
X127090806Y-116295718D01*
X126829194Y-116295718D01*
X126569819Y-116261571D01*
X126317121Y-116193860D01*
X126075423Y-116093745D01*
X125848860Y-115962939D01*
X125641308Y-115803680D01*
X125456320Y-115618692D01*
X125297061Y-115411140D01*
X125166255Y-115184577D01*
X125066140Y-114942879D01*
X124998429Y-114690181D01*
X124964282Y-114430806D01*
X124964282Y-114169194D01*
X124998429Y-113909819D01*
X125066140Y-113657121D01*
X125166255Y-113415423D01*
X125297061Y-113188860D01*
X125456320Y-112981308D01*
X125641308Y-112796320D01*
X125848860Y-112637061D01*
X126075423Y-112506255D01*
X126317121Y-112406140D01*
X126569819Y-112338429D01*
X126829194Y-112304282D01*
X127090806Y-112304282D01*
X127350181Y-112338429D01*
G37*
G36*
X107460181Y-112328429D02*
G01*
X107712879Y-112396140D01*
X107954577Y-112496255D01*
X108181140Y-112627061D01*
X108388692Y-112786320D01*
X108573680Y-112971308D01*
X108732939Y-113178860D01*
X108863745Y-113405423D01*
X108963860Y-113647121D01*
X109031571Y-113899819D01*
X109065718Y-114159194D01*
X109065718Y-114420806D01*
X109031571Y-114680181D01*
X108963860Y-114932879D01*
X108863745Y-115174577D01*
X108732939Y-115401140D01*
X108573680Y-115608692D01*
X108388692Y-115793680D01*
X108181140Y-115952939D01*
X107954577Y-116083745D01*
X107712879Y-116183860D01*
X107460181Y-116251571D01*
X107200806Y-116285718D01*
X106939194Y-116285718D01*
X106679819Y-116251571D01*
X106427121Y-116183860D01*
X106185423Y-116083745D01*
X105958860Y-115952939D01*
X105751308Y-115793680D01*
X105566320Y-115608692D01*
X105407061Y-115401140D01*
X105276255Y-115174577D01*
X105176140Y-114932879D01*
X105108429Y-114680181D01*
X105074282Y-114420806D01*
X105074282Y-114159194D01*
X105108429Y-113899819D01*
X105176140Y-113647121D01*
X105276255Y-113405423D01*
X105407061Y-113178860D01*
X105566320Y-112971308D01*
X105751308Y-112786320D01*
X105958860Y-112627061D01*
X106185423Y-112496255D01*
X106427121Y-112396140D01*
X106679819Y-112328429D01*
X106939194Y-112294282D01*
X107200806Y-112294282D01*
X107460181Y-112328429D01*
G37*
G36*
X142236742Y-113556601D02*
G01*
X142390687Y-113620367D01*
X142529234Y-113712941D01*
X142647059Y-113830766D01*
X142739633Y-113969313D01*
X142803399Y-114123258D01*
X142835907Y-114286685D01*
X142835907Y-114453315D01*
X142803399Y-114616742D01*
X142739633Y-114770687D01*
X142647059Y-114909234D01*
X142529234Y-115027059D01*
X142390687Y-115119633D01*
X142236742Y-115183399D01*
X142073315Y-115215907D01*
X141906685Y-115215907D01*
X141743258Y-115183399D01*
X141589313Y-115119633D01*
X141450766Y-115027059D01*
X141332941Y-114909234D01*
X141240367Y-114770687D01*
X141176601Y-114616742D01*
X141144093Y-114453315D01*
X141144093Y-114286685D01*
X141176601Y-114123258D01*
X141240367Y-113969313D01*
X141332941Y-113830766D01*
X141450766Y-113712941D01*
X141589313Y-113620367D01*
X141743258Y-113556601D01*
X141906685Y-113524093D01*
X142073315Y-113524093D01*
X142236742Y-113556601D01*
G37*
G36*
X152396742Y-113556601D02*
G01*
X152550687Y-113620367D01*
X152689234Y-113712941D01*
X152807059Y-113830766D01*
X152899633Y-113969313D01*
X152963399Y-114123258D01*
X152995907Y-114286685D01*
X152995907Y-114453315D01*
X152963399Y-114616742D01*
X152899633Y-114770687D01*
X152807059Y-114909234D01*
X152689234Y-115027059D01*
X152550687Y-115119633D01*
X152396742Y-115183399D01*
X152233315Y-115215907D01*
X152066685Y-115215907D01*
X151903258Y-115183399D01*
X151749313Y-115119633D01*
X151610766Y-115027059D01*
X151492941Y-114909234D01*
X151400367Y-114770687D01*
X151336601Y-114616742D01*
X151304093Y-114453315D01*
X151304093Y-114286685D01*
X151336601Y-114123258D01*
X151400367Y-113969313D01*
X151492941Y-113830766D01*
X151610766Y-113712941D01*
X151749313Y-113620367D01*
X151903258Y-113556601D01*
X152066685Y-113524093D01*
X152233315Y-113524093D01*
X152396742Y-113556601D01*
G37*
G36*
X162106742Y-113556601D02*
G01*
X162260687Y-113620367D01*
X162399234Y-113712941D01*
X162517059Y-113830766D01*
X162609633Y-113969313D01*
X162673399Y-114123258D01*
X162705907Y-114286685D01*
X162705907Y-114453315D01*
X162673399Y-114616742D01*
X162609633Y-114770687D01*
X162517059Y-114909234D01*
X162399234Y-115027059D01*
X162260687Y-115119633D01*
X162106742Y-115183399D01*
X161943315Y-115215907D01*
X161776685Y-115215907D01*
X161613258Y-115183399D01*
X161459313Y-115119633D01*
X161320766Y-115027059D01*
X161202941Y-114909234D01*
X161110367Y-114770687D01*
X161046601Y-114616742D01*
X161014093Y-114453315D01*
X161014093Y-114286685D01*
X161046601Y-114123258D01*
X161110367Y-113969313D01*
X161202941Y-113830766D01*
X161320766Y-113712941D01*
X161459313Y-113620367D01*
X161613258Y-113556601D01*
X161776685Y-113524093D01*
X161943315Y-113524093D01*
X162106742Y-113556601D01*
G37*
G36*
X172266742Y-113556601D02*
G01*
X172420687Y-113620367D01*
X172559234Y-113712941D01*
X172677059Y-113830766D01*
X172769633Y-113969313D01*
X172833399Y-114123258D01*
X172865907Y-114286685D01*
X172865907Y-114453315D01*
X172833399Y-114616742D01*
X172769633Y-114770687D01*
X172677059Y-114909234D01*
X172559234Y-115027059D01*
X172420687Y-115119633D01*
X172266742Y-115183399D01*
X172103315Y-115215907D01*
X171936685Y-115215907D01*
X171773258Y-115183399D01*
X171619313Y-115119633D01*
X171480766Y-115027059D01*
X171362941Y-114909234D01*
X171270367Y-114770687D01*
X171206601Y-114616742D01*
X171174093Y-114453315D01*
X171174093Y-114286685D01*
X171206601Y-114123258D01*
X171270367Y-113969313D01*
X171362941Y-113830766D01*
X171480766Y-113712941D01*
X171619313Y-113620367D01*
X171773258Y-113556601D01*
X171936685Y-113524093D01*
X172103315Y-113524093D01*
X172266742Y-113556601D01*
G37*
G36*
X122126742Y-113486601D02*
G01*
X122280687Y-113550367D01*
X122419234Y-113642941D01*
X122537059Y-113760766D01*
X122629633Y-113899313D01*
X122693399Y-114053258D01*
X122725907Y-114216685D01*
X122725907Y-114383315D01*
X122693399Y-114546742D01*
X122629633Y-114700687D01*
X122537059Y-114839234D01*
X122419234Y-114957059D01*
X122280687Y-115049633D01*
X122126742Y-115113399D01*
X121963315Y-115145907D01*
X121796685Y-115145907D01*
X121633258Y-115113399D01*
X121479313Y-115049633D01*
X121340766Y-114957059D01*
X121222941Y-114839234D01*
X121130367Y-114700687D01*
X121066601Y-114546742D01*
X121034093Y-114383315D01*
X121034093Y-114216685D01*
X121066601Y-114053258D01*
X121130367Y-113899313D01*
X121222941Y-113760766D01*
X121340766Y-113642941D01*
X121479313Y-113550367D01*
X121633258Y-113486601D01*
X121796685Y-113454093D01*
X121963315Y-113454093D01*
X122126742Y-113486601D01*
G37*
G36*
X132286742Y-113486601D02*
G01*
X132440687Y-113550367D01*
X132579234Y-113642941D01*
X132697059Y-113760766D01*
X132789633Y-113899313D01*
X132853399Y-114053258D01*
X132885907Y-114216685D01*
X132885907Y-114383315D01*
X132853399Y-114546742D01*
X132789633Y-114700687D01*
X132697059Y-114839234D01*
X132579234Y-114957059D01*
X132440687Y-115049633D01*
X132286742Y-115113399D01*
X132123315Y-115145907D01*
X131956685Y-115145907D01*
X131793258Y-115113399D01*
X131639313Y-115049633D01*
X131500766Y-114957059D01*
X131382941Y-114839234D01*
X131290367Y-114700687D01*
X131226601Y-114546742D01*
X131194093Y-114383315D01*
X131194093Y-114216685D01*
X131226601Y-114053258D01*
X131290367Y-113899313D01*
X131382941Y-113760766D01*
X131500766Y-113642941D01*
X131639313Y-113550367D01*
X131793258Y-113486601D01*
X131956685Y-113454093D01*
X132123315Y-113454093D01*
X132286742Y-113486601D01*
G37*
G36*
X102236742Y-113476601D02*
G01*
X102390687Y-113540367D01*
X102529234Y-113632941D01*
X102647059Y-113750766D01*
X102739633Y-113889313D01*
X102803399Y-114043258D01*
X102835907Y-114206685D01*
X102835907Y-114373315D01*
X102803399Y-114536742D01*
X102739633Y-114690687D01*
X102647059Y-114829234D01*
X102529234Y-114947059D01*
X102390687Y-115039633D01*
X102236742Y-115103399D01*
X102073315Y-115135907D01*
X101906685Y-115135907D01*
X101743258Y-115103399D01*
X101589313Y-115039633D01*
X101450766Y-114947059D01*
X101332941Y-114829234D01*
X101240367Y-114690687D01*
X101176601Y-114536742D01*
X101144093Y-114373315D01*
X101144093Y-114206685D01*
X101176601Y-114043258D01*
X101240367Y-113889313D01*
X101332941Y-113750766D01*
X101450766Y-113632941D01*
X101589313Y-113540367D01*
X101743258Y-113476601D01*
X101906685Y-113444093D01*
X102073315Y-113444093D01*
X102236742Y-113476601D01*
G37*
G36*
X112396742Y-113476601D02*
G01*
X112550687Y-113540367D01*
X112689234Y-113632941D01*
X112807059Y-113750766D01*
X112899633Y-113889313D01*
X112963399Y-114043258D01*
X112995907Y-114206685D01*
X112995907Y-114373315D01*
X112963399Y-114536742D01*
X112899633Y-114690687D01*
X112807059Y-114829234D01*
X112689234Y-114947059D01*
X112550687Y-115039633D01*
X112396742Y-115103399D01*
X112233315Y-115135907D01*
X112066685Y-115135907D01*
X111903258Y-115103399D01*
X111749313Y-115039633D01*
X111610766Y-114947059D01*
X111492941Y-114829234D01*
X111400367Y-114690687D01*
X111336601Y-114536742D01*
X111304093Y-114373315D01*
X111304093Y-114206685D01*
X111336601Y-114043258D01*
X111400367Y-113889313D01*
X111492941Y-113750766D01*
X111610766Y-113632941D01*
X111749313Y-113540367D01*
X111903258Y-113476601D01*
X112066685Y-113444093D01*
X112233315Y-113444093D01*
X112396742Y-113476601D01*
G37*
G36*
X143516790Y-110760393D02*
G01*
X143680952Y-110813733D01*
X143834748Y-110892096D01*
X143974393Y-110993553D01*
X144096447Y-111115607D01*
X144197904Y-111255252D01*
X144276267Y-111409048D01*
X144329607Y-111573210D01*
X144356609Y-111743695D01*
X144356609Y-111916305D01*
X144329607Y-112086790D01*
X144276267Y-112250952D01*
X144197904Y-112404748D01*
X144096447Y-112544393D01*
X143974393Y-112666447D01*
X143834748Y-112767904D01*
X143680952Y-112846267D01*
X143516790Y-112899607D01*
X143346305Y-112926609D01*
X143173695Y-112926609D01*
X143003210Y-112899607D01*
X142839048Y-112846267D01*
X142685252Y-112767904D01*
X142545607Y-112666447D01*
X142423553Y-112544393D01*
X142322096Y-112404748D01*
X142243733Y-112250952D01*
X142190393Y-112086790D01*
X142163391Y-111916305D01*
X142163391Y-111743695D01*
X142190393Y-111573210D01*
X142243733Y-111409048D01*
X142322096Y-111255252D01*
X142423553Y-111115607D01*
X142545607Y-110993553D01*
X142685252Y-110892096D01*
X142839048Y-110813733D01*
X143003210Y-110760393D01*
X143173695Y-110733391D01*
X143346305Y-110733391D01*
X143516790Y-110760393D01*
G37*
G36*
X163386790Y-110760393D02*
G01*
X163550952Y-110813733D01*
X163704748Y-110892096D01*
X163844393Y-110993553D01*
X163966447Y-111115607D01*
X164067904Y-111255252D01*
X164146267Y-111409048D01*
X164199607Y-111573210D01*
X164226609Y-111743695D01*
X164226609Y-111916305D01*
X164199607Y-112086790D01*
X164146267Y-112250952D01*
X164067904Y-112404748D01*
X163966447Y-112544393D01*
X163844393Y-112666447D01*
X163704748Y-112767904D01*
X163550952Y-112846267D01*
X163386790Y-112899607D01*
X163216305Y-112926609D01*
X163043695Y-112926609D01*
X162873210Y-112899607D01*
X162709048Y-112846267D01*
X162555252Y-112767904D01*
X162415607Y-112666447D01*
X162293553Y-112544393D01*
X162192096Y-112404748D01*
X162113733Y-112250952D01*
X162060393Y-112086790D01*
X162033391Y-111916305D01*
X162033391Y-111743695D01*
X162060393Y-111573210D01*
X162113733Y-111409048D01*
X162192096Y-111255252D01*
X162293553Y-111115607D01*
X162415607Y-110993553D01*
X162555252Y-110892096D01*
X162709048Y-110813733D01*
X162873210Y-110760393D01*
X163043695Y-110733391D01*
X163216305Y-110733391D01*
X163386790Y-110760393D01*
G37*
G36*
X123406790Y-110690393D02*
G01*
X123570952Y-110743733D01*
X123724748Y-110822096D01*
X123864393Y-110923553D01*
X123986447Y-111045607D01*
X124087904Y-111185252D01*
X124166267Y-111339048D01*
X124219607Y-111503210D01*
X124246609Y-111673695D01*
X124246609Y-111846305D01*
X124219607Y-112016790D01*
X124166267Y-112180952D01*
X124087904Y-112334748D01*
X123986447Y-112474393D01*
X123864393Y-112596447D01*
X123724748Y-112697904D01*
X123570952Y-112776267D01*
X123406790Y-112829607D01*
X123236305Y-112856609D01*
X123063695Y-112856609D01*
X122893210Y-112829607D01*
X122729048Y-112776267D01*
X122575252Y-112697904D01*
X122435607Y-112596447D01*
X122313553Y-112474393D01*
X122212096Y-112334748D01*
X122133733Y-112180952D01*
X122080393Y-112016790D01*
X122053391Y-111846305D01*
X122053391Y-111673695D01*
X122080393Y-111503210D01*
X122133733Y-111339048D01*
X122212096Y-111185252D01*
X122313553Y-111045607D01*
X122435607Y-110923553D01*
X122575252Y-110822096D01*
X122729048Y-110743733D01*
X122893210Y-110690393D01*
X123063695Y-110663391D01*
X123236305Y-110663391D01*
X123406790Y-110690393D01*
G37*
G36*
X103516790Y-110680393D02*
G01*
X103680952Y-110733733D01*
X103834748Y-110812096D01*
X103974393Y-110913553D01*
X104096447Y-111035607D01*
X104197904Y-111175252D01*
X104276267Y-111329048D01*
X104329607Y-111493210D01*
X104356609Y-111663695D01*
X104356609Y-111836305D01*
X104329607Y-112006790D01*
X104276267Y-112170952D01*
X104197904Y-112324748D01*
X104096447Y-112464393D01*
X103974393Y-112586447D01*
X103834748Y-112687904D01*
X103680952Y-112766267D01*
X103516790Y-112819607D01*
X103346305Y-112846609D01*
X103173695Y-112846609D01*
X103003210Y-112819607D01*
X102839048Y-112766267D01*
X102685252Y-112687904D01*
X102545607Y-112586447D01*
X102423553Y-112464393D01*
X102322096Y-112324748D01*
X102243733Y-112170952D01*
X102190393Y-112006790D01*
X102163391Y-111836305D01*
X102163391Y-111663695D01*
X102190393Y-111493210D01*
X102243733Y-111329048D01*
X102322096Y-111175252D01*
X102423553Y-111035607D01*
X102545607Y-110913553D01*
X102685252Y-110812096D01*
X102839048Y-110733733D01*
X103003210Y-110680393D01*
X103173695Y-110653391D01*
X103346305Y-110653391D01*
X103516790Y-110680393D01*
G37*
G36*
X149866790Y-108220393D02*
G01*
X150030952Y-108273733D01*
X150184748Y-108352096D01*
X150324393Y-108453553D01*
X150446447Y-108575607D01*
X150547904Y-108715252D01*
X150626267Y-108869048D01*
X150679607Y-109033210D01*
X150706609Y-109203695D01*
X150706609Y-109376305D01*
X150679607Y-109546790D01*
X150626267Y-109710952D01*
X150547904Y-109864748D01*
X150446447Y-110004393D01*
X150324393Y-110126447D01*
X150184748Y-110227904D01*
X150030952Y-110306267D01*
X149866790Y-110359607D01*
X149696305Y-110386609D01*
X149523695Y-110386609D01*
X149353210Y-110359607D01*
X149189048Y-110306267D01*
X149035252Y-110227904D01*
X148895607Y-110126447D01*
X148773553Y-110004393D01*
X148672096Y-109864748D01*
X148593733Y-109710952D01*
X148540393Y-109546790D01*
X148513391Y-109376305D01*
X148513391Y-109203695D01*
X148540393Y-109033210D01*
X148593733Y-108869048D01*
X148672096Y-108715252D01*
X148773553Y-108575607D01*
X148895607Y-108453553D01*
X149035252Y-108352096D01*
X149189048Y-108273733D01*
X149353210Y-108220393D01*
X149523695Y-108193391D01*
X149696305Y-108193391D01*
X149866790Y-108220393D01*
G37*
G36*
X169736790Y-108220393D02*
G01*
X169900952Y-108273733D01*
X170054748Y-108352096D01*
X170194393Y-108453553D01*
X170316447Y-108575607D01*
X170417904Y-108715252D01*
X170496267Y-108869048D01*
X170549607Y-109033210D01*
X170576609Y-109203695D01*
X170576609Y-109376305D01*
X170549607Y-109546790D01*
X170496267Y-109710952D01*
X170417904Y-109864748D01*
X170316447Y-110004393D01*
X170194393Y-110126447D01*
X170054748Y-110227904D01*
X169900952Y-110306267D01*
X169736790Y-110359607D01*
X169566305Y-110386609D01*
X169393695Y-110386609D01*
X169223210Y-110359607D01*
X169059048Y-110306267D01*
X168905252Y-110227904D01*
X168765607Y-110126447D01*
X168643553Y-110004393D01*
X168542096Y-109864748D01*
X168463733Y-109710952D01*
X168410393Y-109546790D01*
X168383391Y-109376305D01*
X168383391Y-109203695D01*
X168410393Y-109033210D01*
X168463733Y-108869048D01*
X168542096Y-108715252D01*
X168643553Y-108575607D01*
X168765607Y-108453553D01*
X168905252Y-108352096D01*
X169059048Y-108273733D01*
X169223210Y-108220393D01*
X169393695Y-108193391D01*
X169566305Y-108193391D01*
X169736790Y-108220393D01*
G37*
G36*
X129756790Y-108150393D02*
G01*
X129920952Y-108203733D01*
X130074748Y-108282096D01*
X130214393Y-108383553D01*
X130336447Y-108505607D01*
X130437904Y-108645252D01*
X130516267Y-108799048D01*
X130569607Y-108963210D01*
X130596609Y-109133695D01*
X130596609Y-109306305D01*
X130569607Y-109476790D01*
X130516267Y-109640952D01*
X130437904Y-109794748D01*
X130336447Y-109934393D01*
X130214393Y-110056447D01*
X130074748Y-110157904D01*
X129920952Y-110236267D01*
X129756790Y-110289607D01*
X129586305Y-110316609D01*
X129413695Y-110316609D01*
X129243210Y-110289607D01*
X129079048Y-110236267D01*
X128925252Y-110157904D01*
X128785607Y-110056447D01*
X128663553Y-109934393D01*
X128562096Y-109794748D01*
X128483733Y-109640952D01*
X128430393Y-109476790D01*
X128403391Y-109306305D01*
X128403391Y-109133695D01*
X128430393Y-108963210D01*
X128483733Y-108799048D01*
X128562096Y-108645252D01*
X128663553Y-108505607D01*
X128785607Y-108383553D01*
X128925252Y-108282096D01*
X129079048Y-108203733D01*
X129243210Y-108150393D01*
X129413695Y-108123391D01*
X129586305Y-108123391D01*
X129756790Y-108150393D01*
G37*
G36*
X109866790Y-108140393D02*
G01*
X110030952Y-108193733D01*
X110184748Y-108272096D01*
X110324393Y-108373553D01*
X110446447Y-108495607D01*
X110547904Y-108635252D01*
X110626267Y-108789048D01*
X110679607Y-108953210D01*
X110706609Y-109123695D01*
X110706609Y-109296305D01*
X110679607Y-109466790D01*
X110626267Y-109630952D01*
X110547904Y-109784748D01*
X110446447Y-109924393D01*
X110324393Y-110046447D01*
X110184748Y-110147904D01*
X110030952Y-110226267D01*
X109866790Y-110279607D01*
X109696305Y-110306609D01*
X109523695Y-110306609D01*
X109353210Y-110279607D01*
X109189048Y-110226267D01*
X109035252Y-110147904D01*
X108895607Y-110046447D01*
X108773553Y-109924393D01*
X108672096Y-109784748D01*
X108593733Y-109630952D01*
X108540393Y-109466790D01*
X108513391Y-109296305D01*
X108513391Y-109123695D01*
X108540393Y-108953210D01*
X108593733Y-108789048D01*
X108672096Y-108635252D01*
X108773553Y-108495607D01*
X108895607Y-108373553D01*
X109035252Y-108272096D01*
X109189048Y-108193733D01*
X109353210Y-108140393D01*
X109523695Y-108113391D01*
X109696305Y-108113391D01*
X109866790Y-108140393D01*
G37*
G36*
X187741880Y-106566242D02*
G01*
X187768483Y-106584017D01*
X187786258Y-106610620D01*
X187792500Y-106642000D01*
X187792500Y-107298000D01*
X187786258Y-107329380D01*
X187768483Y-107355983D01*
X187741880Y-107373758D01*
X187710500Y-107380000D01*
X186274500Y-107380000D01*
X186243120Y-107373758D01*
X186216517Y-107355983D01*
X186198742Y-107329380D01*
X186192500Y-107298000D01*
X186192500Y-106642000D01*
X186198742Y-106610620D01*
X186216517Y-106584017D01*
X186243120Y-106566242D01*
X186274500Y-106560000D01*
X187710500Y-106560000D01*
X187741880Y-106566242D01*
G37*
G36*
X192941880Y-106566242D02*
G01*
X192968483Y-106584017D01*
X192986258Y-106610620D01*
X192992500Y-106642000D01*
X192992500Y-107298000D01*
X192986258Y-107329380D01*
X192968483Y-107355983D01*
X192941880Y-107373758D01*
X192910500Y-107380000D01*
X191474500Y-107380000D01*
X191443120Y-107373758D01*
X191416517Y-107355983D01*
X191398742Y-107329380D01*
X191392500Y-107298000D01*
X191392500Y-106642000D01*
X191398742Y-106610620D01*
X191416517Y-106584017D01*
X191443120Y-106566242D01*
X191474500Y-106560000D01*
X192910500Y-106560000D01*
X192941880Y-106566242D01*
G37*
G36*
X187741880Y-105066242D02*
G01*
X187768483Y-105084017D01*
X187786258Y-105110620D01*
X187792500Y-105142000D01*
X187792500Y-105798000D01*
X187786258Y-105829380D01*
X187768483Y-105855983D01*
X187741880Y-105873758D01*
X187710500Y-105880000D01*
X186274500Y-105880000D01*
X186243120Y-105873758D01*
X186216517Y-105855983D01*
X186198742Y-105829380D01*
X186192500Y-105798000D01*
X186192500Y-105142000D01*
X186198742Y-105110620D01*
X186216517Y-105084017D01*
X186243120Y-105066242D01*
X186274500Y-105060000D01*
X187710500Y-105060000D01*
X187741880Y-105066242D01*
G37*
G36*
X192941880Y-105066242D02*
G01*
X192968483Y-105084017D01*
X192986258Y-105110620D01*
X192992500Y-105142000D01*
X192992500Y-105798000D01*
X192986258Y-105829380D01*
X192968483Y-105855983D01*
X192941880Y-105873758D01*
X192910500Y-105880000D01*
X191474500Y-105880000D01*
X191443120Y-105873758D01*
X191416517Y-105855983D01*
X191398742Y-105829380D01*
X191392500Y-105798000D01*
X191392500Y-105142000D01*
X191398742Y-105110620D01*
X191416517Y-105084017D01*
X191443120Y-105066242D01*
X191474500Y-105060000D01*
X192910500Y-105060000D01*
X192941880Y-105066242D01*
G37*
G36*
X190850000Y-101600000D02*
G01*
X187650000Y-101600000D01*
X187650000Y-99600000D01*
X190850000Y-99600000D01*
X190850000Y-101600000D01*
G37*
G36*
X125089379Y-100729084D02*
G01*
X125115982Y-100746859D01*
X125133757Y-100773462D01*
X125139999Y-100804842D01*
X125139999Y-101460842D01*
X125133757Y-101492222D01*
X125115982Y-101518825D01*
X125089379Y-101536600D01*
X125057999Y-101542842D01*
X123621999Y-101542842D01*
X123590619Y-101536600D01*
X123564016Y-101518825D01*
X123546241Y-101492222D01*
X123539999Y-101460842D01*
X123539999Y-100804842D01*
X123546241Y-100773462D01*
X123564016Y-100746859D01*
X123590619Y-100729084D01*
X123621999Y-100722842D01*
X125057999Y-100722842D01*
X125089379Y-100729084D01*
G37*
G36*
X130289379Y-100729084D02*
G01*
X130315982Y-100746859D01*
X130333757Y-100773462D01*
X130339999Y-100804842D01*
X130339999Y-101460842D01*
X130333757Y-101492222D01*
X130315982Y-101518825D01*
X130289379Y-101536600D01*
X130257999Y-101542842D01*
X128821999Y-101542842D01*
X128790619Y-101536600D01*
X128764016Y-101518825D01*
X128746241Y-101492222D01*
X128739999Y-101460842D01*
X128739999Y-100804842D01*
X128746241Y-100773462D01*
X128764016Y-100746859D01*
X128790619Y-100729084D01*
X128821999Y-100722842D01*
X130257999Y-100722842D01*
X130289379Y-100729084D01*
G37*
G36*
X104939379Y-100539084D02*
G01*
X104965982Y-100556859D01*
X104983757Y-100583462D01*
X104989999Y-100614842D01*
X104989999Y-101270842D01*
X104983757Y-101302222D01*
X104965982Y-101328825D01*
X104939379Y-101346600D01*
X104907999Y-101352842D01*
X103471999Y-101352842D01*
X103440619Y-101346600D01*
X103414016Y-101328825D01*
X103396241Y-101302222D01*
X103389999Y-101270842D01*
X103389999Y-100614842D01*
X103396241Y-100583462D01*
X103414016Y-100556859D01*
X103440619Y-100539084D01*
X103471999Y-100532842D01*
X104907999Y-100532842D01*
X104939379Y-100539084D01*
G37*
G36*
X110139379Y-100539084D02*
G01*
X110165982Y-100556859D01*
X110183757Y-100583462D01*
X110189999Y-100614842D01*
X110189999Y-101270842D01*
X110183757Y-101302222D01*
X110165982Y-101328825D01*
X110139379Y-101346600D01*
X110107999Y-101352842D01*
X108671999Y-101352842D01*
X108640619Y-101346600D01*
X108614016Y-101328825D01*
X108596241Y-101302222D01*
X108589999Y-101270842D01*
X108589999Y-100614842D01*
X108596241Y-100583462D01*
X108614016Y-100556859D01*
X108640619Y-100539084D01*
X108671999Y-100532842D01*
X110107999Y-100532842D01*
X110139379Y-100539084D01*
G37*
G36*
X165199381Y-100113400D02*
G01*
X165225984Y-100131175D01*
X165243759Y-100157778D01*
X165250001Y-100189158D01*
X165250001Y-100845158D01*
X165243759Y-100876538D01*
X165225984Y-100903141D01*
X165199381Y-100920916D01*
X165168001Y-100927158D01*
X163732001Y-100927158D01*
X163700621Y-100920916D01*
X163674018Y-100903141D01*
X163656243Y-100876538D01*
X163650001Y-100845158D01*
X163650001Y-100189158D01*
X163656243Y-100157778D01*
X163674018Y-100131175D01*
X163700621Y-100113400D01*
X163732001Y-100107158D01*
X165168001Y-100107158D01*
X165199381Y-100113400D01*
G37*
G36*
X170399381Y-100113400D02*
G01*
X170425984Y-100131175D01*
X170443759Y-100157778D01*
X170450001Y-100189158D01*
X170450001Y-100845158D01*
X170443759Y-100876538D01*
X170425984Y-100903141D01*
X170399381Y-100920916D01*
X170368001Y-100927158D01*
X168932001Y-100927158D01*
X168900621Y-100920916D01*
X168874018Y-100903141D01*
X168856243Y-100876538D01*
X168850001Y-100845158D01*
X168850001Y-100189158D01*
X168856243Y-100157778D01*
X168874018Y-100131175D01*
X168900621Y-100113400D01*
X168932001Y-100107158D01*
X170368001Y-100107158D01*
X170399381Y-100113400D01*
G37*
G36*
X144991880Y-99976242D02*
G01*
X145018483Y-99994017D01*
X145036258Y-100020620D01*
X145042500Y-100052000D01*
X145042500Y-100708000D01*
X145036258Y-100739380D01*
X145018483Y-100765983D01*
X144991880Y-100783758D01*
X144960500Y-100790000D01*
X143524500Y-100790000D01*
X143493120Y-100783758D01*
X143466517Y-100765983D01*
X143448742Y-100739380D01*
X143442500Y-100708000D01*
X143442500Y-100052000D01*
X143448742Y-100020620D01*
X143466517Y-99994017D01*
X143493120Y-99976242D01*
X143524500Y-99970000D01*
X144960500Y-99970000D01*
X144991880Y-99976242D01*
G37*
G36*
X150191880Y-99976242D02*
G01*
X150218483Y-99994017D01*
X150236258Y-100020620D01*
X150242500Y-100052000D01*
X150242500Y-100708000D01*
X150236258Y-100739380D01*
X150218483Y-100765983D01*
X150191880Y-100783758D01*
X150160500Y-100790000D01*
X148724500Y-100790000D01*
X148693120Y-100783758D01*
X148666517Y-100765983D01*
X148648742Y-100739380D01*
X148642500Y-100708000D01*
X148642500Y-100052000D01*
X148648742Y-100020620D01*
X148666517Y-99994017D01*
X148693120Y-99976242D01*
X148724500Y-99970000D01*
X150160500Y-99970000D01*
X150191880Y-99976242D01*
G37*
G36*
X125089379Y-99229084D02*
G01*
X125115982Y-99246859D01*
X125133757Y-99273462D01*
X125139999Y-99304842D01*
X125139999Y-99960842D01*
X125133757Y-99992222D01*
X125115982Y-100018825D01*
X125089379Y-100036600D01*
X125057999Y-100042842D01*
X123621999Y-100042842D01*
X123590619Y-100036600D01*
X123564016Y-100018825D01*
X123546241Y-99992222D01*
X123539999Y-99960842D01*
X123539999Y-99304842D01*
X123546241Y-99273462D01*
X123564016Y-99246859D01*
X123590619Y-99229084D01*
X123621999Y-99222842D01*
X125057999Y-99222842D01*
X125089379Y-99229084D01*
G37*
G36*
X130289379Y-99229084D02*
G01*
X130315982Y-99246859D01*
X130333757Y-99273462D01*
X130339999Y-99304842D01*
X130339999Y-99960842D01*
X130333757Y-99992222D01*
X130315982Y-100018825D01*
X130289379Y-100036600D01*
X130257999Y-100042842D01*
X128821999Y-100042842D01*
X128790619Y-100036600D01*
X128764016Y-100018825D01*
X128746241Y-99992222D01*
X128739999Y-99960842D01*
X128739999Y-99304842D01*
X128746241Y-99273462D01*
X128764016Y-99246859D01*
X128790619Y-99229084D01*
X128821999Y-99222842D01*
X130257999Y-99222842D01*
X130289379Y-99229084D01*
G37*
G36*
X104939379Y-99039084D02*
G01*
X104965982Y-99056859D01*
X104983757Y-99083462D01*
X104989999Y-99114842D01*
X104989999Y-99770842D01*
X104983757Y-99802222D01*
X104965982Y-99828825D01*
X104939379Y-99846600D01*
X104907999Y-99852842D01*
X103471999Y-99852842D01*
X103440619Y-99846600D01*
X103414016Y-99828825D01*
X103396241Y-99802222D01*
X103389999Y-99770842D01*
X103389999Y-99114842D01*
X103396241Y-99083462D01*
X103414016Y-99056859D01*
X103440619Y-99039084D01*
X103471999Y-99032842D01*
X104907999Y-99032842D01*
X104939379Y-99039084D01*
G37*
G36*
X110139379Y-99039084D02*
G01*
X110165982Y-99056859D01*
X110183757Y-99083462D01*
X110189999Y-99114842D01*
X110189999Y-99770842D01*
X110183757Y-99802222D01*
X110165982Y-99828825D01*
X110139379Y-99846600D01*
X110107999Y-99852842D01*
X108671999Y-99852842D01*
X108640619Y-99846600D01*
X108614016Y-99828825D01*
X108596241Y-99802222D01*
X108589999Y-99770842D01*
X108589999Y-99114842D01*
X108596241Y-99083462D01*
X108614016Y-99056859D01*
X108640619Y-99039084D01*
X108671999Y-99032842D01*
X110107999Y-99032842D01*
X110139379Y-99039084D01*
G37*
G36*
X165199381Y-98613400D02*
G01*
X165225984Y-98631175D01*
X165243759Y-98657778D01*
X165250001Y-98689158D01*
X165250001Y-99345158D01*
X165243759Y-99376538D01*
X165225984Y-99403141D01*
X165199381Y-99420916D01*
X165168001Y-99427158D01*
X163732001Y-99427158D01*
X163700621Y-99420916D01*
X163674018Y-99403141D01*
X163656243Y-99376538D01*
X163650001Y-99345158D01*
X163650001Y-98689158D01*
X163656243Y-98657778D01*
X163674018Y-98631175D01*
X163700621Y-98613400D01*
X163732001Y-98607158D01*
X165168001Y-98607158D01*
X165199381Y-98613400D01*
G37*
G36*
X170399381Y-98613400D02*
G01*
X170425984Y-98631175D01*
X170443759Y-98657778D01*
X170450001Y-98689158D01*
X170450001Y-99345158D01*
X170443759Y-99376538D01*
X170425984Y-99403141D01*
X170399381Y-99420916D01*
X170368001Y-99427158D01*
X168932001Y-99427158D01*
X168900621Y-99420916D01*
X168874018Y-99403141D01*
X168856243Y-99376538D01*
X168850001Y-99345158D01*
X168850001Y-98689158D01*
X168856243Y-98657778D01*
X168874018Y-98631175D01*
X168900621Y-98613400D01*
X168932001Y-98607158D01*
X170368001Y-98607158D01*
X170399381Y-98613400D01*
G37*
G36*
X144991880Y-98476242D02*
G01*
X145018483Y-98494017D01*
X145036258Y-98520620D01*
X145042500Y-98552000D01*
X145042500Y-99208000D01*
X145036258Y-99239380D01*
X145018483Y-99265983D01*
X144991880Y-99283758D01*
X144960500Y-99290000D01*
X143524500Y-99290000D01*
X143493120Y-99283758D01*
X143466517Y-99265983D01*
X143448742Y-99239380D01*
X143442500Y-99208000D01*
X143442500Y-98552000D01*
X143448742Y-98520620D01*
X143466517Y-98494017D01*
X143493120Y-98476242D01*
X143524500Y-98470000D01*
X144960500Y-98470000D01*
X144991880Y-98476242D01*
G37*
G36*
X150191880Y-98476242D02*
G01*
X150218483Y-98494017D01*
X150236258Y-98520620D01*
X150242500Y-98552000D01*
X150242500Y-99208000D01*
X150236258Y-99239380D01*
X150218483Y-99265983D01*
X150191880Y-99283758D01*
X150160500Y-99290000D01*
X148724500Y-99290000D01*
X148693120Y-99283758D01*
X148666517Y-99265983D01*
X148648742Y-99239380D01*
X148642500Y-99208000D01*
X148642500Y-98552000D01*
X148648742Y-98520620D01*
X148666517Y-98494017D01*
X148693120Y-98476242D01*
X148724500Y-98470000D01*
X150160500Y-98470000D01*
X150191880Y-98476242D01*
G37*
G36*
X182040285Y-96543060D02*
G01*
X182221397Y-96618079D01*
X182384393Y-96726990D01*
X182523010Y-96865607D01*
X182631921Y-97028603D01*
X182706940Y-97209715D01*
X182745185Y-97401983D01*
X182745185Y-97598017D01*
X182706940Y-97790285D01*
X182631921Y-97971397D01*
X182523010Y-98134393D01*
X182384393Y-98273010D01*
X182221397Y-98381921D01*
X182040285Y-98456940D01*
X181848017Y-98495185D01*
X181651983Y-98495185D01*
X181459715Y-98456940D01*
X181278603Y-98381921D01*
X181115607Y-98273010D01*
X180976990Y-98134393D01*
X180868079Y-97971397D01*
X180793060Y-97790285D01*
X180754815Y-97598017D01*
X180754815Y-97401983D01*
X180793060Y-97209715D01*
X180868079Y-97028603D01*
X180976990Y-96865607D01*
X181115607Y-96726990D01*
X181278603Y-96618079D01*
X181459715Y-96543060D01*
X181651983Y-96504815D01*
X181848017Y-96504815D01*
X182040285Y-96543060D01*
G37*
G36*
X196540285Y-96543060D02*
G01*
X196721397Y-96618079D01*
X196884393Y-96726990D01*
X197023010Y-96865607D01*
X197131921Y-97028603D01*
X197206940Y-97209715D01*
X197245185Y-97401983D01*
X197245185Y-97598017D01*
X197206940Y-97790285D01*
X197131921Y-97971397D01*
X197023010Y-98134393D01*
X196884393Y-98273010D01*
X196721397Y-98381921D01*
X196540285Y-98456940D01*
X196348017Y-98495185D01*
X196151983Y-98495185D01*
X195959715Y-98456940D01*
X195778603Y-98381921D01*
X195615607Y-98273010D01*
X195476990Y-98134393D01*
X195368079Y-97971397D01*
X195293060Y-97790285D01*
X195254815Y-97598017D01*
X195254815Y-97401983D01*
X195293060Y-97209715D01*
X195368079Y-97028603D01*
X195476990Y-96865607D01*
X195615607Y-96726990D01*
X195778603Y-96618079D01*
X195959715Y-96543060D01*
X196151983Y-96504815D01*
X196348017Y-96504815D01*
X196540285Y-96543060D01*
G37*
G36*
X107470181Y-93038429D02*
G01*
X107722879Y-93106140D01*
X107964577Y-93206255D01*
X108191140Y-93337061D01*
X108398692Y-93496320D01*
X108583680Y-93681308D01*
X108742939Y-93888860D01*
X108873745Y-94115423D01*
X108973860Y-94357121D01*
X109041571Y-94609819D01*
X109075718Y-94869194D01*
X109075718Y-95130806D01*
X109041571Y-95390181D01*
X108973860Y-95642879D01*
X108873745Y-95884577D01*
X108742939Y-96111140D01*
X108583680Y-96318692D01*
X108398692Y-96503680D01*
X108191140Y-96662939D01*
X107964577Y-96793745D01*
X107722879Y-96893860D01*
X107470181Y-96961571D01*
X107210806Y-96995718D01*
X106949194Y-96995718D01*
X106689819Y-96961571D01*
X106437121Y-96893860D01*
X106195423Y-96793745D01*
X105968860Y-96662939D01*
X105761308Y-96503680D01*
X105576320Y-96318692D01*
X105417061Y-96111140D01*
X105286255Y-95884577D01*
X105186140Y-95642879D01*
X105118429Y-95390181D01*
X105084282Y-95130806D01*
X105084282Y-94869194D01*
X105118429Y-94609819D01*
X105186140Y-94357121D01*
X105286255Y-94115423D01*
X105417061Y-93888860D01*
X105576320Y-93681308D01*
X105761308Y-93496320D01*
X105968860Y-93337061D01*
X106195423Y-93206255D01*
X106437121Y-93106140D01*
X106689819Y-93038429D01*
X106949194Y-93004282D01*
X107210806Y-93004282D01*
X107470181Y-93038429D01*
G37*
G36*
X127310181Y-93038429D02*
G01*
X127562879Y-93106140D01*
X127804577Y-93206255D01*
X128031140Y-93337061D01*
X128238692Y-93496320D01*
X128423680Y-93681308D01*
X128582939Y-93888860D01*
X128713745Y-94115423D01*
X128813860Y-94357121D01*
X128881571Y-94609819D01*
X128915718Y-94869194D01*
X128915718Y-95130806D01*
X128881571Y-95390181D01*
X128813860Y-95642879D01*
X128713745Y-95884577D01*
X128582939Y-96111140D01*
X128423680Y-96318692D01*
X128238692Y-96503680D01*
X128031140Y-96662939D01*
X127804577Y-96793745D01*
X127562879Y-96893860D01*
X127310181Y-96961571D01*
X127050806Y-96995718D01*
X126789194Y-96995718D01*
X126529819Y-96961571D01*
X126277121Y-96893860D01*
X126035423Y-96793745D01*
X125808860Y-96662939D01*
X125601308Y-96503680D01*
X125416320Y-96318692D01*
X125257061Y-96111140D01*
X125126255Y-95884577D01*
X125026140Y-95642879D01*
X124958429Y-95390181D01*
X124924282Y-95130806D01*
X124924282Y-94869194D01*
X124958429Y-94609819D01*
X125026140Y-94357121D01*
X125126255Y-94115423D01*
X125257061Y-93888860D01*
X125416320Y-93681308D01*
X125601308Y-93496320D01*
X125808860Y-93337061D01*
X126035423Y-93206255D01*
X126277121Y-93106140D01*
X126529819Y-93038429D01*
X126789194Y-93004282D01*
X127050806Y-93004282D01*
X127310181Y-93038429D01*
G37*
G36*
X147390181Y-93038429D02*
G01*
X147642879Y-93106140D01*
X147884577Y-93206255D01*
X148111140Y-93337061D01*
X148318692Y-93496320D01*
X148503680Y-93681308D01*
X148662939Y-93888860D01*
X148793745Y-94115423D01*
X148893860Y-94357121D01*
X148961571Y-94609819D01*
X148995718Y-94869194D01*
X148995718Y-95130806D01*
X148961571Y-95390181D01*
X148893860Y-95642879D01*
X148793745Y-95884577D01*
X148662939Y-96111140D01*
X148503680Y-96318692D01*
X148318692Y-96503680D01*
X148111140Y-96662939D01*
X147884577Y-96793745D01*
X147642879Y-96893860D01*
X147390181Y-96961571D01*
X147130806Y-96995718D01*
X146869194Y-96995718D01*
X146609819Y-96961571D01*
X146357121Y-96893860D01*
X146115423Y-96793745D01*
X145888860Y-96662939D01*
X145681308Y-96503680D01*
X145496320Y-96318692D01*
X145337061Y-96111140D01*
X145206255Y-95884577D01*
X145106140Y-95642879D01*
X145038429Y-95390181D01*
X145004282Y-95130806D01*
X145004282Y-94869194D01*
X145038429Y-94609819D01*
X145106140Y-94357121D01*
X145206255Y-94115423D01*
X145337061Y-93888860D01*
X145496320Y-93681308D01*
X145681308Y-93496320D01*
X145888860Y-93337061D01*
X146115423Y-93206255D01*
X146357121Y-93106140D01*
X146609819Y-93038429D01*
X146869194Y-93004282D01*
X147130806Y-93004282D01*
X147390181Y-93038429D01*
G37*
G36*
X167390181Y-93038429D02*
G01*
X167642879Y-93106140D01*
X167884577Y-93206255D01*
X168111140Y-93337061D01*
X168318692Y-93496320D01*
X168503680Y-93681308D01*
X168662939Y-93888860D01*
X168793745Y-94115423D01*
X168893860Y-94357121D01*
X168961571Y-94609819D01*
X168995718Y-94869194D01*
X168995718Y-95130806D01*
X168961571Y-95390181D01*
X168893860Y-95642879D01*
X168793745Y-95884577D01*
X168662939Y-96111140D01*
X168503680Y-96318692D01*
X168318692Y-96503680D01*
X168111140Y-96662939D01*
X167884577Y-96793745D01*
X167642879Y-96893860D01*
X167390181Y-96961571D01*
X167130806Y-96995718D01*
X166869194Y-96995718D01*
X166609819Y-96961571D01*
X166357121Y-96893860D01*
X166115423Y-96793745D01*
X165888860Y-96662939D01*
X165681308Y-96503680D01*
X165496320Y-96318692D01*
X165337061Y-96111140D01*
X165206255Y-95884577D01*
X165106140Y-95642879D01*
X165038429Y-95390181D01*
X165004282Y-95130806D01*
X165004282Y-94869194D01*
X165038429Y-94609819D01*
X165106140Y-94357121D01*
X165206255Y-94115423D01*
X165337061Y-93888860D01*
X165496320Y-93681308D01*
X165681308Y-93496320D01*
X165888860Y-93337061D01*
X166115423Y-93206255D01*
X166357121Y-93106140D01*
X166609819Y-93038429D01*
X166869194Y-93004282D01*
X167130806Y-93004282D01*
X167390181Y-93038429D01*
G37*
G36*
X182040285Y-94043060D02*
G01*
X182221397Y-94118079D01*
X182384393Y-94226990D01*
X182523010Y-94365607D01*
X182631921Y-94528603D01*
X182706940Y-94709715D01*
X182745185Y-94901983D01*
X182745185Y-95098017D01*
X182706940Y-95290285D01*
X182631921Y-95471397D01*
X182523010Y-95634393D01*
X182384393Y-95773010D01*
X182221397Y-95881921D01*
X182040285Y-95956940D01*
X181848017Y-95995185D01*
X181651983Y-95995185D01*
X181459715Y-95956940D01*
X181278603Y-95881921D01*
X181115607Y-95773010D01*
X180976990Y-95634393D01*
X180868079Y-95471397D01*
X180793060Y-95290285D01*
X180754815Y-95098017D01*
X180754815Y-94901983D01*
X180793060Y-94709715D01*
X180868079Y-94528603D01*
X180976990Y-94365607D01*
X181115607Y-94226990D01*
X181278603Y-94118079D01*
X181459715Y-94043060D01*
X181651983Y-94004815D01*
X181848017Y-94004815D01*
X182040285Y-94043060D01*
G37*
G36*
X102246742Y-94186601D02*
G01*
X102400687Y-94250367D01*
X102539234Y-94342941D01*
X102657059Y-94460766D01*
X102749633Y-94599313D01*
X102813399Y-94753258D01*
X102845907Y-94916685D01*
X102845907Y-95083315D01*
X102813399Y-95246742D01*
X102749633Y-95400687D01*
X102657059Y-95539234D01*
X102539234Y-95657059D01*
X102400687Y-95749633D01*
X102246742Y-95813399D01*
X102083315Y-95845907D01*
X101916685Y-95845907D01*
X101753258Y-95813399D01*
X101599313Y-95749633D01*
X101460766Y-95657059D01*
X101342941Y-95539234D01*
X101250367Y-95400687D01*
X101186601Y-95246742D01*
X101154093Y-95083315D01*
X101154093Y-94916685D01*
X101186601Y-94753258D01*
X101250367Y-94599313D01*
X101342941Y-94460766D01*
X101460766Y-94342941D01*
X101599313Y-94250367D01*
X101753258Y-94186601D01*
X101916685Y-94154093D01*
X102083315Y-94154093D01*
X102246742Y-94186601D01*
G37*
G36*
X112406742Y-94186601D02*
G01*
X112560687Y-94250367D01*
X112699234Y-94342941D01*
X112817059Y-94460766D01*
X112909633Y-94599313D01*
X112973399Y-94753258D01*
X113005907Y-94916685D01*
X113005907Y-95083315D01*
X112973399Y-95246742D01*
X112909633Y-95400687D01*
X112817059Y-95539234D01*
X112699234Y-95657059D01*
X112560687Y-95749633D01*
X112406742Y-95813399D01*
X112243315Y-95845907D01*
X112076685Y-95845907D01*
X111913258Y-95813399D01*
X111759313Y-95749633D01*
X111620766Y-95657059D01*
X111502941Y-95539234D01*
X111410367Y-95400687D01*
X111346601Y-95246742D01*
X111314093Y-95083315D01*
X111314093Y-94916685D01*
X111346601Y-94753258D01*
X111410367Y-94599313D01*
X111502941Y-94460766D01*
X111620766Y-94342941D01*
X111759313Y-94250367D01*
X111913258Y-94186601D01*
X112076685Y-94154093D01*
X112243315Y-94154093D01*
X112406742Y-94186601D01*
G37*
G36*
X122086742Y-94186601D02*
G01*
X122240687Y-94250367D01*
X122379234Y-94342941D01*
X122497059Y-94460766D01*
X122589633Y-94599313D01*
X122653399Y-94753258D01*
X122685907Y-94916685D01*
X122685907Y-95083315D01*
X122653399Y-95246742D01*
X122589633Y-95400687D01*
X122497059Y-95539234D01*
X122379234Y-95657059D01*
X122240687Y-95749633D01*
X122086742Y-95813399D01*
X121923315Y-95845907D01*
X121756685Y-95845907D01*
X121593258Y-95813399D01*
X121439313Y-95749633D01*
X121300766Y-95657059D01*
X121182941Y-95539234D01*
X121090367Y-95400687D01*
X121026601Y-95246742D01*
X120994093Y-95083315D01*
X120994093Y-94916685D01*
X121026601Y-94753258D01*
X121090367Y-94599313D01*
X121182941Y-94460766D01*
X121300766Y-94342941D01*
X121439313Y-94250367D01*
X121593258Y-94186601D01*
X121756685Y-94154093D01*
X121923315Y-94154093D01*
X122086742Y-94186601D01*
G37*
G36*
X132246742Y-94186601D02*
G01*
X132400687Y-94250367D01*
X132539234Y-94342941D01*
X132657059Y-94460766D01*
X132749633Y-94599313D01*
X132813399Y-94753258D01*
X132845907Y-94916685D01*
X132845907Y-95083315D01*
X132813399Y-95246742D01*
X132749633Y-95400687D01*
X132657059Y-95539234D01*
X132539234Y-95657059D01*
X132400687Y-95749633D01*
X132246742Y-95813399D01*
X132083315Y-95845907D01*
X131916685Y-95845907D01*
X131753258Y-95813399D01*
X131599313Y-95749633D01*
X131460766Y-95657059D01*
X131342941Y-95539234D01*
X131250367Y-95400687D01*
X131186601Y-95246742D01*
X131154093Y-95083315D01*
X131154093Y-94916685D01*
X131186601Y-94753258D01*
X131250367Y-94599313D01*
X131342941Y-94460766D01*
X131460766Y-94342941D01*
X131599313Y-94250367D01*
X131753258Y-94186601D01*
X131916685Y-94154093D01*
X132083315Y-94154093D01*
X132246742Y-94186601D01*
G37*
G36*
X142166742Y-94186601D02*
G01*
X142320687Y-94250367D01*
X142459234Y-94342941D01*
X142577059Y-94460766D01*
X142669633Y-94599313D01*
X142733399Y-94753258D01*
X142765907Y-94916685D01*
X142765907Y-95083315D01*
X142733399Y-95246742D01*
X142669633Y-95400687D01*
X142577059Y-95539234D01*
X142459234Y-95657059D01*
X142320687Y-95749633D01*
X142166742Y-95813399D01*
X142003315Y-95845907D01*
X141836685Y-95845907D01*
X141673258Y-95813399D01*
X141519313Y-95749633D01*
X141380766Y-95657059D01*
X141262941Y-95539234D01*
X141170367Y-95400687D01*
X141106601Y-95246742D01*
X141074093Y-95083315D01*
X141074093Y-94916685D01*
X141106601Y-94753258D01*
X141170367Y-94599313D01*
X141262941Y-94460766D01*
X141380766Y-94342941D01*
X141519313Y-94250367D01*
X141673258Y-94186601D01*
X141836685Y-94154093D01*
X142003315Y-94154093D01*
X142166742Y-94186601D01*
G37*
G36*
X152326742Y-94186601D02*
G01*
X152480687Y-94250367D01*
X152619234Y-94342941D01*
X152737059Y-94460766D01*
X152829633Y-94599313D01*
X152893399Y-94753258D01*
X152925907Y-94916685D01*
X152925907Y-95083315D01*
X152893399Y-95246742D01*
X152829633Y-95400687D01*
X152737059Y-95539234D01*
X152619234Y-95657059D01*
X152480687Y-95749633D01*
X152326742Y-95813399D01*
X152163315Y-95845907D01*
X151996685Y-95845907D01*
X151833258Y-95813399D01*
X151679313Y-95749633D01*
X151540766Y-95657059D01*
X151422941Y-95539234D01*
X151330367Y-95400687D01*
X151266601Y-95246742D01*
X151234093Y-95083315D01*
X151234093Y-94916685D01*
X151266601Y-94753258D01*
X151330367Y-94599313D01*
X151422941Y-94460766D01*
X151540766Y-94342941D01*
X151679313Y-94250367D01*
X151833258Y-94186601D01*
X151996685Y-94154093D01*
X152163315Y-94154093D01*
X152326742Y-94186601D01*
G37*
G36*
X162166742Y-94186601D02*
G01*
X162320687Y-94250367D01*
X162459234Y-94342941D01*
X162577059Y-94460766D01*
X162669633Y-94599313D01*
X162733399Y-94753258D01*
X162765907Y-94916685D01*
X162765907Y-95083315D01*
X162733399Y-95246742D01*
X162669633Y-95400687D01*
X162577059Y-95539234D01*
X162459234Y-95657059D01*
X162320687Y-95749633D01*
X162166742Y-95813399D01*
X162003315Y-95845907D01*
X161836685Y-95845907D01*
X161673258Y-95813399D01*
X161519313Y-95749633D01*
X161380766Y-95657059D01*
X161262941Y-95539234D01*
X161170367Y-95400687D01*
X161106601Y-95246742D01*
X161074093Y-95083315D01*
X161074093Y-94916685D01*
X161106601Y-94753258D01*
X161170367Y-94599313D01*
X161262941Y-94460766D01*
X161380766Y-94342941D01*
X161519313Y-94250367D01*
X161673258Y-94186601D01*
X161836685Y-94154093D01*
X162003315Y-94154093D01*
X162166742Y-94186601D01*
G37*
G36*
X172326742Y-94186601D02*
G01*
X172480687Y-94250367D01*
X172619234Y-94342941D01*
X172737059Y-94460766D01*
X172829633Y-94599313D01*
X172893399Y-94753258D01*
X172925907Y-94916685D01*
X172925907Y-95083315D01*
X172893399Y-95246742D01*
X172829633Y-95400687D01*
X172737059Y-95539234D01*
X172619234Y-95657059D01*
X172480687Y-95749633D01*
X172326742Y-95813399D01*
X172163315Y-95845907D01*
X171996685Y-95845907D01*
X171833258Y-95813399D01*
X171679313Y-95749633D01*
X171540766Y-95657059D01*
X171422941Y-95539234D01*
X171330367Y-95400687D01*
X171266601Y-95246742D01*
X171234093Y-95083315D01*
X171234093Y-94916685D01*
X171266601Y-94753258D01*
X171330367Y-94599313D01*
X171422941Y-94460766D01*
X171540766Y-94342941D01*
X171679313Y-94250367D01*
X171833258Y-94186601D01*
X171996685Y-94154093D01*
X172163315Y-94154093D01*
X172326742Y-94186601D01*
G37*
G36*
X103526790Y-91390393D02*
G01*
X103690952Y-91443733D01*
X103844748Y-91522096D01*
X103984393Y-91623553D01*
X104106447Y-91745607D01*
X104207904Y-91885252D01*
X104286267Y-92039048D01*
X104339607Y-92203210D01*
X104366609Y-92373695D01*
X104366609Y-92546305D01*
X104339607Y-92716790D01*
X104286267Y-92880952D01*
X104207904Y-93034748D01*
X104106447Y-93174393D01*
X103984393Y-93296447D01*
X103844748Y-93397904D01*
X103690952Y-93476267D01*
X103526790Y-93529607D01*
X103356305Y-93556609D01*
X103183695Y-93556609D01*
X103013210Y-93529607D01*
X102849048Y-93476267D01*
X102695252Y-93397904D01*
X102555607Y-93296447D01*
X102433553Y-93174393D01*
X102332096Y-93034748D01*
X102253733Y-92880952D01*
X102200393Y-92716790D01*
X102173391Y-92546305D01*
X102173391Y-92373695D01*
X102200393Y-92203210D01*
X102253733Y-92039048D01*
X102332096Y-91885252D01*
X102433553Y-91745607D01*
X102555607Y-91623553D01*
X102695252Y-91522096D01*
X102849048Y-91443733D01*
X103013210Y-91390393D01*
X103183695Y-91363391D01*
X103356305Y-91363391D01*
X103526790Y-91390393D01*
G37*
G36*
X123366790Y-91390393D02*
G01*
X123530952Y-91443733D01*
X123684748Y-91522096D01*
X123824393Y-91623553D01*
X123946447Y-91745607D01*
X124047904Y-91885252D01*
X124126267Y-92039048D01*
X124179607Y-92203210D01*
X124206609Y-92373695D01*
X124206609Y-92546305D01*
X124179607Y-92716790D01*
X124126267Y-92880952D01*
X124047904Y-93034748D01*
X123946447Y-93174393D01*
X123824393Y-93296447D01*
X123684748Y-93397904D01*
X123530952Y-93476267D01*
X123366790Y-93529607D01*
X123196305Y-93556609D01*
X123023695Y-93556609D01*
X122853210Y-93529607D01*
X122689048Y-93476267D01*
X122535252Y-93397904D01*
X122395607Y-93296447D01*
X122273553Y-93174393D01*
X122172096Y-93034748D01*
X122093733Y-92880952D01*
X122040393Y-92716790D01*
X122013391Y-92546305D01*
X122013391Y-92373695D01*
X122040393Y-92203210D01*
X122093733Y-92039048D01*
X122172096Y-91885252D01*
X122273553Y-91745607D01*
X122395607Y-91623553D01*
X122535252Y-91522096D01*
X122689048Y-91443733D01*
X122853210Y-91390393D01*
X123023695Y-91363391D01*
X123196305Y-91363391D01*
X123366790Y-91390393D01*
G37*
G36*
X143446790Y-91390393D02*
G01*
X143610952Y-91443733D01*
X143764748Y-91522096D01*
X143904393Y-91623553D01*
X144026447Y-91745607D01*
X144127904Y-91885252D01*
X144206267Y-92039048D01*
X144259607Y-92203210D01*
X144286609Y-92373695D01*
X144286609Y-92546305D01*
X144259607Y-92716790D01*
X144206267Y-92880952D01*
X144127904Y-93034748D01*
X144026447Y-93174393D01*
X143904393Y-93296447D01*
X143764748Y-93397904D01*
X143610952Y-93476267D01*
X143446790Y-93529607D01*
X143276305Y-93556609D01*
X143103695Y-93556609D01*
X142933210Y-93529607D01*
X142769048Y-93476267D01*
X142615252Y-93397904D01*
X142475607Y-93296447D01*
X142353553Y-93174393D01*
X142252096Y-93034748D01*
X142173733Y-92880952D01*
X142120393Y-92716790D01*
X142093391Y-92546305D01*
X142093391Y-92373695D01*
X142120393Y-92203210D01*
X142173733Y-92039048D01*
X142252096Y-91885252D01*
X142353553Y-91745607D01*
X142475607Y-91623553D01*
X142615252Y-91522096D01*
X142769048Y-91443733D01*
X142933210Y-91390393D01*
X143103695Y-91363391D01*
X143276305Y-91363391D01*
X143446790Y-91390393D01*
G37*
G36*
X163446790Y-91390393D02*
G01*
X163610952Y-91443733D01*
X163764748Y-91522096D01*
X163904393Y-91623553D01*
X164026447Y-91745607D01*
X164127904Y-91885252D01*
X164206267Y-92039048D01*
X164259607Y-92203210D01*
X164286609Y-92373695D01*
X164286609Y-92546305D01*
X164259607Y-92716790D01*
X164206267Y-92880952D01*
X164127904Y-93034748D01*
X164026447Y-93174393D01*
X163904393Y-93296447D01*
X163764748Y-93397904D01*
X163610952Y-93476267D01*
X163446790Y-93529607D01*
X163276305Y-93556609D01*
X163103695Y-93556609D01*
X162933210Y-93529607D01*
X162769048Y-93476267D01*
X162615252Y-93397904D01*
X162475607Y-93296447D01*
X162353553Y-93174393D01*
X162252096Y-93034748D01*
X162173733Y-92880952D01*
X162120393Y-92716790D01*
X162093391Y-92546305D01*
X162093391Y-92373695D01*
X162120393Y-92203210D01*
X162173733Y-92039048D01*
X162252096Y-91885252D01*
X162353553Y-91745607D01*
X162475607Y-91623553D01*
X162615252Y-91522096D01*
X162769048Y-91443733D01*
X162933210Y-91390393D01*
X163103695Y-91363391D01*
X163276305Y-91363391D01*
X163446790Y-91390393D01*
G37*
G36*
X182750000Y-93500000D02*
G01*
X180750000Y-93500000D01*
X180750000Y-91500000D01*
X182750000Y-91500000D01*
X182750000Y-93500000D01*
G37*
G36*
X196540285Y-91543060D02*
G01*
X196721397Y-91618079D01*
X196884393Y-91726990D01*
X197023010Y-91865607D01*
X197131921Y-92028603D01*
X197206940Y-92209715D01*
X197245185Y-92401983D01*
X197245185Y-92598017D01*
X197206940Y-92790285D01*
X197131921Y-92971397D01*
X197023010Y-93134393D01*
X196884393Y-93273010D01*
X196721397Y-93381921D01*
X196540285Y-93456940D01*
X196348017Y-93495185D01*
X196151983Y-93495185D01*
X195959715Y-93456940D01*
X195778603Y-93381921D01*
X195615607Y-93273010D01*
X195476990Y-93134393D01*
X195368079Y-92971397D01*
X195293060Y-92790285D01*
X195254815Y-92598017D01*
X195254815Y-92401983D01*
X195293060Y-92209715D01*
X195368079Y-92028603D01*
X195476990Y-91865607D01*
X195615607Y-91726990D01*
X195778603Y-91618079D01*
X195959715Y-91543060D01*
X196151983Y-91504815D01*
X196348017Y-91504815D01*
X196540285Y-91543060D01*
G37*
G36*
X109876790Y-88850393D02*
G01*
X110040952Y-88903733D01*
X110194748Y-88982096D01*
X110334393Y-89083553D01*
X110456447Y-89205607D01*
X110557904Y-89345252D01*
X110636267Y-89499048D01*
X110689607Y-89663210D01*
X110716609Y-89833695D01*
X110716609Y-90006305D01*
X110689607Y-90176790D01*
X110636267Y-90340952D01*
X110557904Y-90494748D01*
X110456447Y-90634393D01*
X110334393Y-90756447D01*
X110194748Y-90857904D01*
X110040952Y-90936267D01*
X109876790Y-90989607D01*
X109706305Y-91016609D01*
X109533695Y-91016609D01*
X109363210Y-90989607D01*
X109199048Y-90936267D01*
X109045252Y-90857904D01*
X108905607Y-90756447D01*
X108783553Y-90634393D01*
X108682096Y-90494748D01*
X108603733Y-90340952D01*
X108550393Y-90176790D01*
X108523391Y-90006305D01*
X108523391Y-89833695D01*
X108550393Y-89663210D01*
X108603733Y-89499048D01*
X108682096Y-89345252D01*
X108783553Y-89205607D01*
X108905607Y-89083553D01*
X109045252Y-88982096D01*
X109199048Y-88903733D01*
X109363210Y-88850393D01*
X109533695Y-88823391D01*
X109706305Y-88823391D01*
X109876790Y-88850393D01*
G37*
G36*
X129716790Y-88850393D02*
G01*
X129880952Y-88903733D01*
X130034748Y-88982096D01*
X130174393Y-89083553D01*
X130296447Y-89205607D01*
X130397904Y-89345252D01*
X130476267Y-89499048D01*
X130529607Y-89663210D01*
X130556609Y-89833695D01*
X130556609Y-90006305D01*
X130529607Y-90176790D01*
X130476267Y-90340952D01*
X130397904Y-90494748D01*
X130296447Y-90634393D01*
X130174393Y-90756447D01*
X130034748Y-90857904D01*
X129880952Y-90936267D01*
X129716790Y-90989607D01*
X129546305Y-91016609D01*
X129373695Y-91016609D01*
X129203210Y-90989607D01*
X129039048Y-90936267D01*
X128885252Y-90857904D01*
X128745607Y-90756447D01*
X128623553Y-90634393D01*
X128522096Y-90494748D01*
X128443733Y-90340952D01*
X128390393Y-90176790D01*
X128363391Y-90006305D01*
X128363391Y-89833695D01*
X128390393Y-89663210D01*
X128443733Y-89499048D01*
X128522096Y-89345252D01*
X128623553Y-89205607D01*
X128745607Y-89083553D01*
X128885252Y-88982096D01*
X129039048Y-88903733D01*
X129203210Y-88850393D01*
X129373695Y-88823391D01*
X129546305Y-88823391D01*
X129716790Y-88850393D01*
G37*
G36*
X149796790Y-88850393D02*
G01*
X149960952Y-88903733D01*
X150114748Y-88982096D01*
X150254393Y-89083553D01*
X150376447Y-89205607D01*
X150477904Y-89345252D01*
X150556267Y-89499048D01*
X150609607Y-89663210D01*
X150636609Y-89833695D01*
X150636609Y-90006305D01*
X150609607Y-90176790D01*
X150556267Y-90340952D01*
X150477904Y-90494748D01*
X150376447Y-90634393D01*
X150254393Y-90756447D01*
X150114748Y-90857904D01*
X149960952Y-90936267D01*
X149796790Y-90989607D01*
X149626305Y-91016609D01*
X149453695Y-91016609D01*
X149283210Y-90989607D01*
X149119048Y-90936267D01*
X148965252Y-90857904D01*
X148825607Y-90756447D01*
X148703553Y-90634393D01*
X148602096Y-90494748D01*
X148523733Y-90340952D01*
X148470393Y-90176790D01*
X148443391Y-90006305D01*
X148443391Y-89833695D01*
X148470393Y-89663210D01*
X148523733Y-89499048D01*
X148602096Y-89345252D01*
X148703553Y-89205607D01*
X148825607Y-89083553D01*
X148965252Y-88982096D01*
X149119048Y-88903733D01*
X149283210Y-88850393D01*
X149453695Y-88823391D01*
X149626305Y-88823391D01*
X149796790Y-88850393D01*
G37*
G36*
X169796790Y-88850393D02*
G01*
X169960952Y-88903733D01*
X170114748Y-88982096D01*
X170254393Y-89083553D01*
X170376447Y-89205607D01*
X170477904Y-89345252D01*
X170556267Y-89499048D01*
X170609607Y-89663210D01*
X170636609Y-89833695D01*
X170636609Y-90006305D01*
X170609607Y-90176790D01*
X170556267Y-90340952D01*
X170477904Y-90494748D01*
X170376447Y-90634393D01*
X170254393Y-90756447D01*
X170114748Y-90857904D01*
X169960952Y-90936267D01*
X169796790Y-90989607D01*
X169626305Y-91016609D01*
X169453695Y-91016609D01*
X169283210Y-90989607D01*
X169119048Y-90936267D01*
X168965252Y-90857904D01*
X168825607Y-90756447D01*
X168703553Y-90634393D01*
X168602096Y-90494748D01*
X168523733Y-90340952D01*
X168470393Y-90176790D01*
X168443391Y-90006305D01*
X168443391Y-89833695D01*
X168470393Y-89663210D01*
X168523733Y-89499048D01*
X168602096Y-89345252D01*
X168703553Y-89205607D01*
X168825607Y-89083553D01*
X168965252Y-88982096D01*
X169119048Y-88903733D01*
X169283210Y-88850393D01*
X169453695Y-88823391D01*
X169626305Y-88823391D01*
X169796790Y-88850393D01*
G37*
G36*
X190850000Y-90400000D02*
G01*
X187650000Y-90400000D01*
X187650000Y-88400000D01*
X190850000Y-88400000D01*
X190850000Y-90400000D01*
G37*
G36*
X146033315Y-79234093D02*
G01*
X146196742Y-79266601D01*
X146350687Y-79330367D01*
X146489234Y-79422941D01*
X146607059Y-79540766D01*
X146699633Y-79679313D01*
X146763399Y-79833258D01*
X146795907Y-79996685D01*
X146795907Y-80163315D01*
X146763399Y-80326742D01*
X146699633Y-80480687D01*
X146607059Y-80619234D01*
X146489234Y-80737059D01*
X146350687Y-80829633D01*
X146196742Y-80893399D01*
X146033315Y-80925907D01*
X145950000Y-80930000D01*
X145948768Y-80930000D01*
X144051232Y-80930000D01*
X144050000Y-80930000D01*
X143966685Y-80925907D01*
X143803258Y-80893399D01*
X143649313Y-80829633D01*
X143510766Y-80737059D01*
X143392941Y-80619234D01*
X143300367Y-80480687D01*
X143236601Y-80326742D01*
X143204093Y-80163315D01*
X143204093Y-79996685D01*
X143236601Y-79833258D01*
X143300367Y-79679313D01*
X143392941Y-79540766D01*
X143510766Y-79422941D01*
X143649313Y-79330367D01*
X143803258Y-79266601D01*
X143966685Y-79234093D01*
X144050000Y-79230000D01*
X145950000Y-79230000D01*
X146033315Y-79234093D01*
G37*
G36*
X163283315Y-79234093D02*
G01*
X163446742Y-79266601D01*
X163600687Y-79330367D01*
X163739234Y-79422941D01*
X163857059Y-79540766D01*
X163949633Y-79679313D01*
X164013399Y-79833258D01*
X164045907Y-79996685D01*
X164045907Y-80163315D01*
X164013399Y-80326742D01*
X163949633Y-80480687D01*
X163857059Y-80619234D01*
X163739234Y-80737059D01*
X163600687Y-80829633D01*
X163446742Y-80893399D01*
X163283315Y-80925907D01*
X163200000Y-80930000D01*
X163198768Y-80930000D01*
X161301232Y-80930000D01*
X161300000Y-80930000D01*
X161216685Y-80925907D01*
X161053258Y-80893399D01*
X160899313Y-80829633D01*
X160760766Y-80737059D01*
X160642941Y-80619234D01*
X160550367Y-80480687D01*
X160486601Y-80326742D01*
X160454093Y-80163315D01*
X160454093Y-79996685D01*
X160486601Y-79833258D01*
X160550367Y-79679313D01*
X160642941Y-79540766D01*
X160760766Y-79422941D01*
X160899313Y-79330367D01*
X161053258Y-79266601D01*
X161216685Y-79234093D01*
X161300000Y-79230000D01*
X163200000Y-79230000D01*
X163283315Y-79234093D01*
G37*
G36*
X146033315Y-76694093D02*
G01*
X146196742Y-76726601D01*
X146350687Y-76790367D01*
X146489234Y-76882941D01*
X146607059Y-77000766D01*
X146699633Y-77139313D01*
X146763399Y-77293258D01*
X146795907Y-77456685D01*
X146795907Y-77623315D01*
X146763399Y-77786742D01*
X146699633Y-77940687D01*
X146607059Y-78079234D01*
X146489234Y-78197059D01*
X146350687Y-78289633D01*
X146196742Y-78353399D01*
X146033315Y-78385907D01*
X145950000Y-78390000D01*
X145948768Y-78390000D01*
X144051232Y-78390000D01*
X144050000Y-78390000D01*
X143966685Y-78385907D01*
X143803258Y-78353399D01*
X143649313Y-78289633D01*
X143510766Y-78197059D01*
X143392941Y-78079234D01*
X143300367Y-77940687D01*
X143236601Y-77786742D01*
X143204093Y-77623315D01*
X143204093Y-77456685D01*
X143236601Y-77293258D01*
X143300367Y-77139313D01*
X143392941Y-77000766D01*
X143510766Y-76882941D01*
X143649313Y-76790367D01*
X143803258Y-76726601D01*
X143966685Y-76694093D01*
X144050000Y-76690000D01*
X145950000Y-76690000D01*
X146033315Y-76694093D01*
G37*
G36*
X163283315Y-76694093D02*
G01*
X163446742Y-76726601D01*
X163600687Y-76790367D01*
X163739234Y-76882941D01*
X163857059Y-77000766D01*
X163949633Y-77139313D01*
X164013399Y-77293258D01*
X164045907Y-77456685D01*
X164045907Y-77623315D01*
X164013399Y-77786742D01*
X163949633Y-77940687D01*
X163857059Y-78079234D01*
X163739234Y-78197059D01*
X163600687Y-78289633D01*
X163446742Y-78353399D01*
X163283315Y-78385907D01*
X163200000Y-78390000D01*
X163198768Y-78390000D01*
X161301232Y-78390000D01*
X161300000Y-78390000D01*
X161216685Y-78385907D01*
X161053258Y-78353399D01*
X160899313Y-78289633D01*
X160760766Y-78197059D01*
X160642941Y-78079234D01*
X160550367Y-77940687D01*
X160486601Y-77786742D01*
X160454093Y-77623315D01*
X160454093Y-77456685D01*
X160486601Y-77293258D01*
X160550367Y-77139313D01*
X160642941Y-77000766D01*
X160760766Y-76882941D01*
X160899313Y-76790367D01*
X161053258Y-76726601D01*
X161216685Y-76694093D01*
X161300000Y-76690000D01*
X163200000Y-76690000D01*
X163283315Y-76694093D01*
G37*
G36*
X146033315Y-74154093D02*
G01*
X146196742Y-74186601D01*
X146350687Y-74250367D01*
X146489234Y-74342941D01*
X146607059Y-74460766D01*
X146699633Y-74599313D01*
X146763399Y-74753258D01*
X146795907Y-74916685D01*
X146795907Y-75083315D01*
X146763399Y-75246742D01*
X146699633Y-75400687D01*
X146607059Y-75539234D01*
X146489234Y-75657059D01*
X146350687Y-75749633D01*
X146196742Y-75813399D01*
X146033315Y-75845907D01*
X145950000Y-75850000D01*
X145948768Y-75850000D01*
X144051232Y-75850000D01*
X144050000Y-75850000D01*
X143966685Y-75845907D01*
X143803258Y-75813399D01*
X143649313Y-75749633D01*
X143510766Y-75657059D01*
X143392941Y-75539234D01*
X143300367Y-75400687D01*
X143236601Y-75246742D01*
X143204093Y-75083315D01*
X143204093Y-74916685D01*
X143236601Y-74753258D01*
X143300367Y-74599313D01*
X143392941Y-74460766D01*
X143510766Y-74342941D01*
X143649313Y-74250367D01*
X143803258Y-74186601D01*
X143966685Y-74154093D01*
X144050000Y-74150000D01*
X145950000Y-74150000D01*
X146033315Y-74154093D01*
G37*
G36*
X163283315Y-74154093D02*
G01*
X163446742Y-74186601D01*
X163600687Y-74250367D01*
X163739234Y-74342941D01*
X163857059Y-74460766D01*
X163949633Y-74599313D01*
X164013399Y-74753258D01*
X164045907Y-74916685D01*
X164045907Y-75083315D01*
X164013399Y-75246742D01*
X163949633Y-75400687D01*
X163857059Y-75539234D01*
X163739234Y-75657059D01*
X163600687Y-75749633D01*
X163446742Y-75813399D01*
X163283315Y-75845907D01*
X163200000Y-75850000D01*
X163198768Y-75850000D01*
X161301232Y-75850000D01*
X161300000Y-75850000D01*
X161216685Y-75845907D01*
X161053258Y-75813399D01*
X160899313Y-75749633D01*
X160760766Y-75657059D01*
X160642941Y-75539234D01*
X160550367Y-75400687D01*
X160486601Y-75246742D01*
X160454093Y-75083315D01*
X160454093Y-74916685D01*
X160486601Y-74753258D01*
X160550367Y-74599313D01*
X160642941Y-74460766D01*
X160760766Y-74342941D01*
X160899313Y-74250367D01*
X161053258Y-74186601D01*
X161216685Y-74154093D01*
X161300000Y-74150000D01*
X163200000Y-74150000D01*
X163283315Y-74154093D01*
G37*
G36*
X133861742Y-73111601D02*
G01*
X134015687Y-73175367D01*
X134154234Y-73267941D01*
X134272059Y-73385766D01*
X134364633Y-73524313D01*
X134428399Y-73678258D01*
X134460907Y-73841685D01*
X134460907Y-74008315D01*
X134428399Y-74171742D01*
X134364633Y-74325687D01*
X134272059Y-74464234D01*
X134154234Y-74582059D01*
X134015687Y-74674633D01*
X133861742Y-74738399D01*
X133698315Y-74770907D01*
X133531685Y-74770907D01*
X133368258Y-74738399D01*
X133214313Y-74674633D01*
X133075766Y-74582059D01*
X132957941Y-74464234D01*
X132865367Y-74325687D01*
X132801601Y-74171742D01*
X132769093Y-74008315D01*
X132769093Y-73841685D01*
X132801601Y-73678258D01*
X132865367Y-73524313D01*
X132957941Y-73385766D01*
X133075766Y-73267941D01*
X133214313Y-73175367D01*
X133368258Y-73111601D01*
X133531685Y-73079093D01*
X133698315Y-73079093D01*
X133861742Y-73111601D01*
G37*
G36*
X146033315Y-71614093D02*
G01*
X146196742Y-71646601D01*
X146350687Y-71710367D01*
X146489234Y-71802941D01*
X146607059Y-71920766D01*
X146699633Y-72059313D01*
X146763399Y-72213258D01*
X146795907Y-72376685D01*
X146795907Y-72543315D01*
X146763399Y-72706742D01*
X146699633Y-72860687D01*
X146607059Y-72999234D01*
X146489234Y-73117059D01*
X146350687Y-73209633D01*
X146196742Y-73273399D01*
X146033315Y-73305907D01*
X145950000Y-73310000D01*
X145948768Y-73310000D01*
X144051232Y-73310000D01*
X144050000Y-73310000D01*
X143966685Y-73305907D01*
X143803258Y-73273399D01*
X143649313Y-73209633D01*
X143510766Y-73117059D01*
X143392941Y-72999234D01*
X143300367Y-72860687D01*
X143236601Y-72706742D01*
X143204093Y-72543315D01*
X143204093Y-72376685D01*
X143236601Y-72213258D01*
X143300367Y-72059313D01*
X143392941Y-71920766D01*
X143510766Y-71802941D01*
X143649313Y-71710367D01*
X143803258Y-71646601D01*
X143966685Y-71614093D01*
X144050000Y-71610000D01*
X145950000Y-71610000D01*
X146033315Y-71614093D01*
G37*
G36*
X163333315Y-71614093D02*
G01*
X163496742Y-71646601D01*
X163650687Y-71710367D01*
X163789234Y-71802941D01*
X163907059Y-71920766D01*
X163999633Y-72059313D01*
X164063399Y-72213258D01*
X164095907Y-72376685D01*
X164095907Y-72543315D01*
X164063399Y-72706742D01*
X163999633Y-72860687D01*
X163907059Y-72999234D01*
X163789234Y-73117059D01*
X163650687Y-73209633D01*
X163496742Y-73273399D01*
X163333315Y-73305907D01*
X163250000Y-73310000D01*
X163248768Y-73310000D01*
X161251232Y-73310000D01*
X161250000Y-73310000D01*
X161166685Y-73305907D01*
X161003258Y-73273399D01*
X160849313Y-73209633D01*
X160710766Y-73117059D01*
X160592941Y-72999234D01*
X160500367Y-72860687D01*
X160436601Y-72706742D01*
X160404093Y-72543315D01*
X160404093Y-72376685D01*
X160436601Y-72213258D01*
X160500367Y-72059313D01*
X160592941Y-71920766D01*
X160710766Y-71802941D01*
X160849313Y-71710367D01*
X161003258Y-71646601D01*
X161166685Y-71614093D01*
X161250000Y-71610000D01*
X163250000Y-71610000D01*
X163333315Y-71614093D01*
G37*
G36*
X133861742Y-70571601D02*
G01*
X134015687Y-70635367D01*
X134154234Y-70727941D01*
X134272059Y-70845766D01*
X134364633Y-70984313D01*
X134428399Y-71138258D01*
X134460907Y-71301685D01*
X134460907Y-71468315D01*
X134428399Y-71631742D01*
X134364633Y-71785687D01*
X134272059Y-71924234D01*
X134154234Y-72042059D01*
X134015687Y-72134633D01*
X133861742Y-72198399D01*
X133698315Y-72230907D01*
X133531685Y-72230907D01*
X133368258Y-72198399D01*
X133214313Y-72134633D01*
X133075766Y-72042059D01*
X132957941Y-71924234D01*
X132865367Y-71785687D01*
X132801601Y-71631742D01*
X132769093Y-71468315D01*
X132769093Y-71301685D01*
X132801601Y-71138258D01*
X132865367Y-70984313D01*
X132957941Y-70845766D01*
X133075766Y-70727941D01*
X133214313Y-70635367D01*
X133368258Y-70571601D01*
X133531685Y-70539093D01*
X133698315Y-70539093D01*
X133861742Y-70571601D01*
G37*
G36*
X146033315Y-69074093D02*
G01*
X146196742Y-69106601D01*
X146350687Y-69170367D01*
X146489234Y-69262941D01*
X146607059Y-69380766D01*
X146699633Y-69519313D01*
X146763399Y-69673258D01*
X146795907Y-69836685D01*
X146795907Y-70003315D01*
X146763399Y-70166742D01*
X146699633Y-70320687D01*
X146607059Y-70459234D01*
X146489234Y-70577059D01*
X146350687Y-70669633D01*
X146196742Y-70733399D01*
X146033315Y-70765907D01*
X145950000Y-70770000D01*
X145948768Y-70770000D01*
X144051232Y-70770000D01*
X144050000Y-70770000D01*
X143966685Y-70765907D01*
X143803258Y-70733399D01*
X143649313Y-70669633D01*
X143510766Y-70577059D01*
X143392941Y-70459234D01*
X143300367Y-70320687D01*
X143236601Y-70166742D01*
X143204093Y-70003315D01*
X143204093Y-69836685D01*
X143236601Y-69673258D01*
X143300367Y-69519313D01*
X143392941Y-69380766D01*
X143510766Y-69262941D01*
X143649313Y-69170367D01*
X143803258Y-69106601D01*
X143966685Y-69074093D01*
X144050000Y-69070000D01*
X145950000Y-69070000D01*
X146033315Y-69074093D01*
G37*
G36*
X163333315Y-69074093D02*
G01*
X163496742Y-69106601D01*
X163650687Y-69170367D01*
X163789234Y-69262941D01*
X163907059Y-69380766D01*
X163999633Y-69519313D01*
X164063399Y-69673258D01*
X164095907Y-69836685D01*
X164095907Y-70003315D01*
X164063399Y-70166742D01*
X163999633Y-70320687D01*
X163907059Y-70459234D01*
X163789234Y-70577059D01*
X163650687Y-70669633D01*
X163496742Y-70733399D01*
X163333315Y-70765907D01*
X163250000Y-70770000D01*
X163248768Y-70770000D01*
X161251232Y-70770000D01*
X161250000Y-70770000D01*
X161166685Y-70765907D01*
X161003258Y-70733399D01*
X160849313Y-70669633D01*
X160710766Y-70577059D01*
X160592941Y-70459234D01*
X160500367Y-70320687D01*
X160436601Y-70166742D01*
X160404093Y-70003315D01*
X160404093Y-69836685D01*
X160436601Y-69673258D01*
X160500367Y-69519313D01*
X160592941Y-69380766D01*
X160710766Y-69262941D01*
X160849313Y-69170367D01*
X161003258Y-69106601D01*
X161166685Y-69074093D01*
X161250000Y-69070000D01*
X163250000Y-69070000D01*
X163333315Y-69074093D01*
G37*
G36*
X133861742Y-68031601D02*
G01*
X134015687Y-68095367D01*
X134154234Y-68187941D01*
X134272059Y-68305766D01*
X134364633Y-68444313D01*
X134428399Y-68598258D01*
X134460907Y-68761685D01*
X134460907Y-68928315D01*
X134428399Y-69091742D01*
X134364633Y-69245687D01*
X134272059Y-69384234D01*
X134154234Y-69502059D01*
X134015687Y-69594633D01*
X133861742Y-69658399D01*
X133698315Y-69690907D01*
X133531685Y-69690907D01*
X133368258Y-69658399D01*
X133214313Y-69594633D01*
X133075766Y-69502059D01*
X132957941Y-69384234D01*
X132865367Y-69245687D01*
X132801601Y-69091742D01*
X132769093Y-68928315D01*
X132769093Y-68761685D01*
X132801601Y-68598258D01*
X132865367Y-68444313D01*
X132957941Y-68305766D01*
X133075766Y-68187941D01*
X133214313Y-68095367D01*
X133368258Y-68031601D01*
X133531685Y-67999093D01*
X133698315Y-67999093D01*
X133861742Y-68031601D01*
G37*
G36*
X146033315Y-66534093D02*
G01*
X146196742Y-66566601D01*
X146350687Y-66630367D01*
X146489234Y-66722941D01*
X146607059Y-66840766D01*
X146699633Y-66979313D01*
X146763399Y-67133258D01*
X146795907Y-67296685D01*
X146795907Y-67463315D01*
X146763399Y-67626742D01*
X146699633Y-67780687D01*
X146607059Y-67919234D01*
X146489234Y-68037059D01*
X146350687Y-68129633D01*
X146196742Y-68193399D01*
X146033315Y-68225907D01*
X145950000Y-68230000D01*
X145948768Y-68230000D01*
X144051232Y-68230000D01*
X144050000Y-68230000D01*
X143966685Y-68225907D01*
X143803258Y-68193399D01*
X143649313Y-68129633D01*
X143510766Y-68037059D01*
X143392941Y-67919234D01*
X143300367Y-67780687D01*
X143236601Y-67626742D01*
X143204093Y-67463315D01*
X143204093Y-67296685D01*
X143236601Y-67133258D01*
X143300367Y-66979313D01*
X143392941Y-66840766D01*
X143510766Y-66722941D01*
X143649313Y-66630367D01*
X143803258Y-66566601D01*
X143966685Y-66534093D01*
X144050000Y-66530000D01*
X145950000Y-66530000D01*
X146033315Y-66534093D01*
G37*
G36*
X163333315Y-66534093D02*
G01*
X163496742Y-66566601D01*
X163650687Y-66630367D01*
X163789234Y-66722941D01*
X163907059Y-66840766D01*
X163999633Y-66979313D01*
X164063399Y-67133258D01*
X164095907Y-67296685D01*
X164095907Y-67463315D01*
X164063399Y-67626742D01*
X163999633Y-67780687D01*
X163907059Y-67919234D01*
X163789234Y-68037059D01*
X163650687Y-68129633D01*
X163496742Y-68193399D01*
X163333315Y-68225907D01*
X163250000Y-68230000D01*
X163248768Y-68230000D01*
X161251232Y-68230000D01*
X161250000Y-68230000D01*
X161166685Y-68225907D01*
X161003258Y-68193399D01*
X160849313Y-68129633D01*
X160710766Y-68037059D01*
X160592941Y-67919234D01*
X160500367Y-67780687D01*
X160436601Y-67626742D01*
X160404093Y-67463315D01*
X160404093Y-67296685D01*
X160436601Y-67133258D01*
X160500367Y-66979313D01*
X160592941Y-66840766D01*
X160710766Y-66722941D01*
X160849313Y-66630367D01*
X161003258Y-66566601D01*
X161166685Y-66534093D01*
X161250000Y-66530000D01*
X163250000Y-66530000D01*
X163333315Y-66534093D01*
G37*
G36*
X134465000Y-67155000D02*
G01*
X132765000Y-67155000D01*
X132765000Y-65455000D01*
X134465000Y-65455000D01*
X134465000Y-67155000D01*
G37*
G36*
X146750000Y-65690000D02*
G01*
X143250000Y-65690000D01*
X143250000Y-63990000D01*
X146750000Y-63990000D01*
X146750000Y-65690000D01*
G37*
G36*
X163333315Y-63994093D02*
G01*
X163496742Y-64026601D01*
X163650687Y-64090367D01*
X163789234Y-64182941D01*
X163907059Y-64300766D01*
X163999633Y-64439313D01*
X164063399Y-64593258D01*
X164095907Y-64756685D01*
X164095907Y-64923315D01*
X164063399Y-65086742D01*
X163999633Y-65240687D01*
X163907059Y-65379234D01*
X163789234Y-65497059D01*
X163650687Y-65589633D01*
X163496742Y-65653399D01*
X163333315Y-65685907D01*
X163250000Y-65690000D01*
X163248768Y-65690000D01*
X161251232Y-65690000D01*
X161250000Y-65690000D01*
X161166685Y-65685907D01*
X161003258Y-65653399D01*
X160849313Y-65589633D01*
X160710766Y-65497059D01*
X160592941Y-65379234D01*
X160500367Y-65240687D01*
X160436601Y-65086742D01*
X160404093Y-64923315D01*
X160404093Y-64756685D01*
X160436601Y-64593258D01*
X160500367Y-64439313D01*
X160592941Y-64300766D01*
X160710766Y-64182941D01*
X160849313Y-64090367D01*
X161003258Y-64026601D01*
X161166685Y-63994093D01*
X161250000Y-63990000D01*
X163250000Y-63990000D01*
X163333315Y-63994093D01*
G37*
M02*
