%TF.GenerationSoftware,KiCad,Pcbnew,9.0.7*%
%TF.CreationDate,2026-03-09T18:07:53+05:30*%
%TF.ProjectId,hackpad,6861636b-7061-4642-9e6b-696361645f70,rev?*%
%TF.SameCoordinates,Original*%
%TF.FileFunction,Copper,L1,Top*%
%TF.FilePolarity,Positive*%
%FSLAX46Y46*%
G04 Gerber Fmt 4.6, Leading zero omitted, Abs format (unit mm)*
G04 Created by KiCad (PCBNEW 9.0.7) date 2026-03-09 18:07:53*
%MOMM*%
%LPD*%
G01*
G04 APERTURE LIST*
G04 Aperture macros list*
%AMRoundRect*
0 Rectangle with rounded corners*
0 $1 Rounding radius*
0 $2 $3 $4 $5 $6 $7 $8 $9 X,Y pos of 4 corners*
0 Add a 4 corners polygon primitive as box body*
4,1,4,$2,$3,$4,$5,$6,$7,$8,$9,$2,$3,0*
0 Add four circle primitives for the rounded corners*
1,1,$1+$1,$2,$3*
1,1,$1+$1,$4,$5*
1,1,$1+$1,$6,$7*
1,1,$1+$1,$8,$9*
0 Add four rect primitives between the rounded corners*
20,1,$1+$1,$2,$3,$4,$5,0*
20,1,$1+$1,$4,$5,$6,$7,0*
20,1,$1+$1,$6,$7,$8,$9,0*
20,1,$1+$1,$8,$9,$2,$3,0*%
G04 Aperture macros list end*
%TA.AperFunction,SMDPad,CuDef*%
%ADD10RoundRect,0.150000X0.150000X0.200000X-0.150000X0.200000X-0.150000X-0.200000X0.150000X-0.200000X0*%
%TD*%
%TA.AperFunction,ComponentPad*%
%ADD11R,3.500000X1.700000*%
%TD*%
%TA.AperFunction,ComponentPad*%
%ADD12O,3.600000X1.700000*%
%TD*%
%TA.AperFunction,ComponentPad*%
%ADD13O,3.700000X1.700000*%
%TD*%
%TA.AperFunction,ComponentPad*%
%ADD14R,2.000000X2.000000*%
%TD*%
%TA.AperFunction,ComponentPad*%
%ADD15C,2.000000*%
%TD*%
%TA.AperFunction,ComponentPad*%
%ADD16R,3.200000X2.000000*%
%TD*%
%TA.AperFunction,ComponentPad*%
%ADD17C,2.200000*%
%TD*%
%TA.AperFunction,ComponentPad*%
%ADD18R,1.700000X1.700000*%
%TD*%
%TA.AperFunction,ComponentPad*%
%ADD19O,1.700000X1.700000*%
%TD*%
%TA.AperFunction,SMDPad,CuDef*%
%ADD20RoundRect,0.150000X-0.150000X-0.200000X0.150000X-0.200000X0.150000X0.200000X-0.150000X0.200000X0*%
%TD*%
%TA.AperFunction,SMDPad,CuDef*%
%ADD21RoundRect,0.100000X-0.130000X-0.100000X0.130000X-0.100000X0.130000X0.100000X-0.130000X0.100000X0*%
%TD*%
%TA.AperFunction,ViaPad*%
%ADD22C,0.609600*%
%TD*%
%TA.AperFunction,Conductor*%
%ADD23C,0.254000*%
%TD*%
G04 APERTURE END LIST*
D10*
%TO.P,D4,1,K*%
%TO.N,ROW1*%
X126600000Y-82000000D03*
%TO.P,D4,2,A*%
%TO.N,Net-(D4-A)*%
X128000000Y-82000000D03*
%TD*%
D11*
%TO.P,U1,1,PA02_A0_D0*%
%TO.N,LED_PIN*%
X145000000Y-64840000D03*
D12*
%TO.P,U1,2,PA4_A1_D1*%
%TO.N,COL2*%
X145000000Y-67380000D03*
%TO.P,U1,3,PA10_A2_D2*%
%TO.N,COL3*%
X145000000Y-69920000D03*
%TO.P,U1,4,PA11_A3_D3*%
%TO.N,d3*%
X145000000Y-72460000D03*
%TO.P,U1,5,PA8_A4_D4_SDA*%
%TO.N,Oled_SDA*%
X145000000Y-75000000D03*
%TO.P,U1,6,PA9_A5_D5_SCL*%
%TO.N,Oled_SCK*%
X145000000Y-77540000D03*
%TO.P,U1,7,PB08_A6_D6_TX*%
%TO.N,d6*%
X145000000Y-80080000D03*
%TO.P,U1,8,PB09_A7_D7_RX*%
%TO.N,COL1*%
X162250000Y-80080000D03*
%TO.P,U1,9,PA7_A8_D8_SCK*%
%TO.N,COL4*%
X162250000Y-77540000D03*
%TO.P,U1,10,PA5_A9_D9_MISO*%
%TO.N,ROW2*%
X162250000Y-75000000D03*
D13*
%TO.P,U1,11,PA6_A10_D10_MOSI*%
%TO.N,ROW1*%
X162250000Y-72460000D03*
%TO.P,U1,12,3V3*%
%TO.N,+3.3V*%
X162250000Y-69920000D03*
%TO.P,U1,13,GND*%
%TO.N,GND*%
X162250000Y-67380000D03*
%TO.P,U1,14,5V*%
%TO.N,+5V*%
X162250000Y-64840000D03*
%TD*%
D10*
%TO.P,D1,1,K*%
%TO.N,ROW1*%
X107300000Y-80000000D03*
%TO.P,D1,2,A*%
%TO.N,Net-(D1-A)*%
X108700000Y-80000000D03*
%TD*%
D14*
%TO.P,SW9,A,A*%
%TO.N,d6*%
X181750000Y-92500000D03*
D15*
%TO.P,SW9,B,B*%
%TO.N,d3*%
X181750000Y-97500000D03*
%TO.P,SW9,C,C*%
%TO.N,GND*%
X181750000Y-95000000D03*
D16*
%TO.P,SW9,MP*%
%TO.N,N/C*%
X189250000Y-89400000D03*
X189250000Y-100600000D03*
D15*
%TO.P,SW9,S1,S1*%
%TO.N,ROW2*%
X196250000Y-97500000D03*
%TO.P,SW9,S2,S2*%
%TO.N,COL4*%
X196250000Y-92500000D03*
%TD*%
D17*
%TO.P,SW2,1,1*%
%TO.N,COL1*%
X109610000Y-109210000D03*
%TO.P,SW2,2,2*%
%TO.N,Net-(D2-A)*%
X103260000Y-111750000D03*
%TD*%
D10*
%TO.P,D8,1,K*%
%TO.N,ROW2*%
X136190000Y-115590000D03*
%TO.P,D8,2,A*%
%TO.N,Net-(D8-A)*%
X137590000Y-115590000D03*
%TD*%
%TO.P,D7,1,K*%
%TO.N,ROW1*%
X141000000Y-83000000D03*
%TO.P,D7,2,A*%
%TO.N,Net-(D7-A)*%
X142400000Y-83000000D03*
%TD*%
D17*
%TO.P,SW8,1,1*%
%TO.N,COL3*%
X149610000Y-109290000D03*
%TO.P,SW8,2,2*%
%TO.N,Net-(D8-A)*%
X143260000Y-111830000D03*
%TD*%
%TO.P,SW5,1,1*%
%TO.N,COL2*%
X129500000Y-109220000D03*
%TO.P,SW5,2,2*%
%TO.N,Net-(D5-A)*%
X123150000Y-111760000D03*
%TD*%
%TO.P,SW7,1,1*%
%TO.N,COL3*%
X149540000Y-89920000D03*
%TO.P,SW7,2,2*%
%TO.N,Net-(D7-A)*%
X143190000Y-92460000D03*
%TD*%
D10*
%TO.P,D5,1,K*%
%TO.N,ROW2*%
X116630000Y-111830000D03*
%TO.P,D5,2,A*%
%TO.N,Net-(D5-A)*%
X118030000Y-111830000D03*
%TD*%
D17*
%TO.P,SW1,1,1*%
%TO.N,Net-(D1-A)*%
X109620000Y-89920000D03*
%TO.P,SW1,2,2*%
%TO.N,COL1*%
X103270000Y-92460000D03*
%TD*%
D10*
%TO.P,D3,1,K*%
%TO.N,ROW1*%
X172300000Y-82000000D03*
%TO.P,D3,2,A*%
%TO.N,Net-(D3-A)*%
X173700000Y-82000000D03*
%TD*%
D18*
%TO.P,J1,1,Pin_1*%
%TO.N,GND*%
X133615000Y-66305000D03*
D19*
%TO.P,J1,2,Pin_2*%
%TO.N,+3.3V*%
X133615000Y-68845000D03*
%TO.P,J1,3,Pin_3*%
%TO.N,Oled_SCK*%
X133615000Y-71385000D03*
%TO.P,J1,4,Pin_4*%
%TO.N,Oled_SDA*%
X133615000Y-73925000D03*
%TD*%
D17*
%TO.P,SW3,1,1*%
%TO.N,COL4*%
X169540000Y-89920000D03*
%TO.P,SW3,2,2*%
%TO.N,Net-(D3-A)*%
X163190000Y-92460000D03*
%TD*%
D20*
%TO.P,D6,1,K*%
%TO.N,ROW2*%
X180132500Y-104770000D03*
%TO.P,D6,2,A*%
%TO.N,Net-(D6-A)*%
X178732500Y-104770000D03*
%TD*%
D21*
%TO.P,330ohm1,1*%
%TO.N,LED_PIN*%
X173680000Y-77000000D03*
%TO.P,330ohm1,2*%
%TO.N,Net-(D10-DIN)*%
X174320000Y-77000000D03*
%TD*%
D10*
%TO.P,D2,1,K*%
%TO.N,ROW2*%
X116450000Y-118110000D03*
%TO.P,D2,2,A*%
%TO.N,Net-(D2-A)*%
X117850000Y-118110000D03*
%TD*%
D17*
%TO.P,SW4,1,1*%
%TO.N,COL2*%
X129460000Y-89920000D03*
%TO.P,SW4,2,2*%
%TO.N,Net-(D4-A)*%
X123110000Y-92460000D03*
%TD*%
%TO.P,SW6,1,1*%
%TO.N,COL4*%
X169480000Y-109290000D03*
%TO.P,SW6,2,2*%
%TO.N,Net-(D6-A)*%
X163130000Y-111830000D03*
%TD*%
D22*
%TO.N,Net-(D10-DIN)*%
X186992500Y-106970000D03*
%TO.N,ROW1*%
X140730000Y-84690000D03*
%TO.N,GND*%
X115240000Y-98380000D03*
X110536841Y-110395494D03*
%TO.N,+5V*%
X164320001Y-119247158D03*
X194340000Y-105040000D03*
%TD*%
D23*
%TO.N,LED_PIN*%
X165292000Y-68612000D02*
X149772000Y-68612000D01*
X173680000Y-77000000D02*
X165292000Y-68612000D01*
X149772000Y-68612000D02*
X146000000Y-64840000D01*
%TO.N,Net-(D10-DIN)*%
X186660000Y-107302500D02*
X186992500Y-106970000D01*
X174320000Y-77000000D02*
X183206490Y-77000000D01*
X192030000Y-110480000D02*
X186660000Y-110480000D01*
X197987000Y-104523000D02*
X192030000Y-110480000D01*
X186660000Y-110480000D02*
X186660000Y-107302500D01*
X197987000Y-91780510D02*
X197987000Y-104523000D01*
X183206490Y-77000000D02*
X197987000Y-91780510D01*
%TO.N,ROW1*%
X174382000Y-81575482D02*
X174382000Y-82424518D01*
X174074518Y-82732000D02*
X173032000Y-82732000D01*
X126600000Y-82000000D02*
X127178000Y-81422000D01*
X127178000Y-81422000D02*
X139422000Y-81422000D01*
X173032000Y-82732000D02*
X172300000Y-82000000D01*
X107300000Y-80000000D02*
X107878000Y-79422000D01*
X140730000Y-84690000D02*
X140730000Y-83270000D01*
X139422000Y-81422000D02*
X141000000Y-83000000D01*
X174382000Y-82424518D02*
X174074518Y-82732000D01*
X165266518Y-72460000D02*
X174382000Y-81575482D01*
X124022000Y-79422000D02*
X126600000Y-82000000D01*
X107878000Y-79422000D02*
X124022000Y-79422000D01*
X161250000Y-72460000D02*
X165266518Y-72460000D01*
X140730000Y-83270000D02*
X141000000Y-83000000D01*
%TO.N,Net-(D1-A)*%
X109620000Y-89920000D02*
X109620000Y-80920000D01*
X109620000Y-80920000D02*
X108700000Y-80000000D01*
%TO.N,Net-(D2-A)*%
X117540000Y-118110000D02*
X117850000Y-118110000D01*
X111180000Y-111750000D02*
X117540000Y-118110000D01*
X103260000Y-111750000D02*
X111180000Y-111750000D01*
%TO.N,ROW2*%
X197632000Y-96118000D02*
X197632000Y-91927556D01*
X160018000Y-71949689D02*
X160018000Y-73768000D01*
X136190000Y-117980000D02*
X136190000Y-125410000D01*
X164754352Y-71228000D02*
X160739689Y-71228000D01*
X120000000Y-120000000D02*
X119270000Y-119270000D01*
X179690868Y-104770000D02*
X166480868Y-117980000D01*
X180132500Y-104770000D02*
X179690868Y-104770000D01*
X120000000Y-118000000D02*
X116630000Y-114630000D01*
X136190000Y-125410000D02*
X135218000Y-126382000D01*
X183286444Y-77582000D02*
X171108352Y-77582000D01*
X120000000Y-123822311D02*
X120000000Y-120000000D01*
X196250000Y-97500000D02*
X197632000Y-96118000D01*
X135218000Y-126382000D02*
X122559689Y-126382000D01*
X197632000Y-91927556D02*
X183286444Y-77582000D01*
X171108352Y-77582000D02*
X164754352Y-71228000D01*
X160018000Y-73768000D02*
X161250000Y-75000000D01*
X116630000Y-114630000D02*
X116630000Y-111830000D01*
X136190000Y-115590000D02*
X136190000Y-117980000D01*
X122559689Y-126382000D02*
X120000000Y-123822311D01*
X166480868Y-117980000D02*
X136190000Y-117980000D01*
X117610000Y-119270000D02*
X116450000Y-118110000D01*
X160739689Y-71228000D02*
X160018000Y-71949689D01*
X119270000Y-119270000D02*
X117610000Y-119270000D01*
X194378000Y-99372000D02*
X196250000Y-97500000D01*
X185530500Y-99372000D02*
X194378000Y-99372000D01*
X120000000Y-120000000D02*
X120000000Y-118000000D01*
X180132500Y-104770000D02*
X185530500Y-99372000D01*
%TO.N,Net-(D3-A)*%
X163190000Y-92460000D02*
X160068000Y-89338000D01*
X160865689Y-76232000D02*
X167932000Y-76232000D01*
X160068000Y-77029689D02*
X160865689Y-76232000D01*
X160068000Y-89338000D02*
X160068000Y-77029689D01*
X167932000Y-76232000D02*
X173700000Y-82000000D01*
%TO.N,Net-(D4-A)*%
X128000000Y-87570000D02*
X123110000Y-92460000D01*
X128000000Y-82000000D02*
X128000000Y-87570000D01*
%TO.N,Net-(D5-A)*%
X118830000Y-111780000D02*
X123130000Y-111780000D01*
X123130000Y-111780000D02*
X123150000Y-111760000D01*
X118030000Y-111830000D02*
X118780000Y-111830000D01*
X118780000Y-111830000D02*
X118830000Y-111780000D01*
%TO.N,Net-(D6-A)*%
X178732500Y-104770000D02*
X170190000Y-104770000D01*
X170190000Y-104770000D02*
X163130000Y-111830000D01*
%TO.N,Net-(D7-A)*%
X143190000Y-83790000D02*
X142400000Y-83000000D01*
X143190000Y-92460000D02*
X143190000Y-83790000D01*
%TO.N,Net-(D8-A)*%
X137590000Y-115590000D02*
X141330000Y-111850000D01*
X141330000Y-111850000D02*
X143160000Y-111850000D01*
%TO.N,GND*%
X110536841Y-110395494D02*
X115240000Y-105692335D01*
X115240000Y-105692335D02*
X115240000Y-98380000D01*
%TO.N,+5V*%
X186512954Y-110835000D02*
X185880000Y-110202046D01*
X192370000Y-103070000D02*
X194340000Y-105040000D01*
X198342000Y-91633464D02*
X198342000Y-104670046D01*
X181805000Y-110835000D02*
X166280000Y-126360000D01*
X171548536Y-64840000D02*
X198342000Y-91633464D01*
X162170000Y-120100000D02*
X163467159Y-120100000D01*
X192177046Y-110835000D02*
X186512954Y-110835000D01*
X198342000Y-104670046D02*
X192177046Y-110835000D01*
X163467159Y-120100000D02*
X164320001Y-119247158D01*
X166280000Y-126360000D02*
X162220000Y-126360000D01*
X162170000Y-126310000D02*
X162170000Y-120100000D01*
X162220000Y-126360000D02*
X162170000Y-126310000D01*
X185880000Y-110202046D02*
X185880000Y-103070000D01*
X161250000Y-64840000D02*
X171548536Y-64840000D01*
X186512954Y-110835000D02*
X181805000Y-110835000D01*
X185880000Y-103070000D02*
X192370000Y-103070000D01*
%TO.N,Oled_SCK*%
X147182000Y-76358000D02*
X147182000Y-74489689D01*
X135998000Y-73768000D02*
X133615000Y-71385000D01*
X147182000Y-74489689D02*
X146460311Y-73768000D01*
X146000000Y-77540000D02*
X147182000Y-76358000D01*
X146460311Y-73768000D02*
X135998000Y-73768000D01*
%TO.N,Oled_SDA*%
X134690000Y-75000000D02*
X133615000Y-73925000D01*
X146000000Y-75000000D02*
X134690000Y-75000000D01*
%TO.N,COL1*%
X103270000Y-92460000D02*
X103270000Y-82730000D01*
X97350000Y-100970000D02*
X97350000Y-97660000D01*
X102550000Y-92460000D02*
X103270000Y-92460000D01*
X122392000Y-63608000D02*
X140404000Y-63608000D01*
X164672000Y-83502000D02*
X161250000Y-80080000D01*
X140404000Y-63608000D02*
X142868000Y-66072000D01*
X105590000Y-109210000D02*
X97350000Y-100970000D01*
X164672000Y-93073865D02*
X164672000Y-83502000D01*
X162576135Y-93942000D02*
X163803865Y-93942000D01*
X163803865Y-93942000D02*
X164672000Y-93073865D01*
X146512166Y-66072000D02*
X158661000Y-78220834D01*
X109610000Y-109210000D02*
X105590000Y-109210000D01*
X142868000Y-66072000D02*
X146512166Y-66072000D01*
X97350000Y-97660000D02*
X102550000Y-92460000D01*
X158661000Y-90026865D02*
X162576135Y-93942000D01*
X103270000Y-82730000D02*
X122392000Y-63608000D01*
X158661000Y-78220834D02*
X158661000Y-90026865D01*
%TO.N,COL4*%
X169540000Y-95610868D02*
X169540000Y-89920000D01*
X167731522Y-83087000D02*
X162184522Y-77540000D01*
X168660000Y-83200000D02*
X169540000Y-84080000D01*
X168660000Y-83087000D02*
X168660000Y-83200000D01*
X164056366Y-113158000D02*
X162579924Y-113158000D01*
X196250000Y-92500000D02*
X186837000Y-83087000D01*
X167922868Y-97228000D02*
X169540000Y-95610868D01*
X161802000Y-101503132D02*
X166077132Y-97228000D01*
X162579924Y-113158000D02*
X161802000Y-112380076D01*
X169480000Y-109290000D02*
X167924366Y-109290000D01*
X168660000Y-83087000D02*
X167731522Y-83087000D01*
X162184522Y-77540000D02*
X161250000Y-77540000D01*
X167924366Y-109290000D02*
X164056366Y-113158000D01*
X169540000Y-84080000D02*
X169540000Y-89920000D01*
X186837000Y-83087000D02*
X168660000Y-83087000D01*
X161802000Y-112380076D02*
X161802000Y-101503132D01*
X166077132Y-97228000D02*
X167922868Y-97228000D01*
%TO.N,COL2*%
X142576135Y-93942000D02*
X143803865Y-93942000D01*
X146460311Y-71152000D02*
X143539689Y-71152000D01*
X143539689Y-71152000D02*
X142818000Y-70430311D01*
X142818000Y-69409689D02*
X144847689Y-67380000D01*
X129500000Y-109220000D02*
X129530000Y-109220000D01*
X129540000Y-109210000D02*
X129540000Y-90000000D01*
X129540000Y-90000000D02*
X129460000Y-89920000D01*
X142818000Y-70430311D02*
X142818000Y-69409689D01*
X138554135Y-89920000D02*
X142576135Y-93942000D01*
X148000000Y-72691689D02*
X146460311Y-71152000D01*
X143803865Y-93942000D02*
X148000000Y-89745865D01*
X148000000Y-89745865D02*
X148000000Y-72691689D01*
X129530000Y-109220000D02*
X129540000Y-109210000D01*
X129460000Y-89920000D02*
X138554135Y-89920000D01*
X144847689Y-67380000D02*
X146000000Y-67380000D01*
%TO.N,COL3*%
X149510000Y-109310000D02*
X153312000Y-105508000D01*
X151232000Y-89920000D02*
X153312000Y-92000000D01*
X153312000Y-77232000D02*
X146000000Y-69920000D01*
X153312000Y-105508000D02*
X153312000Y-92000000D01*
X149540000Y-89920000D02*
X151232000Y-89920000D01*
X153312000Y-92000000D02*
X153312000Y-77232000D01*
%TD*%
M02*
