%TF.GenerationSoftware,KiCad,Pcbnew,9.0.7*%
%TF.CreationDate,2026-03-09T18:07:53+05:30*%
%TF.ProjectId,hackpad,6861636b-7061-4642-9e6b-696361645f70,rev?*%
%TF.SameCoordinates,Original*%
%TF.FileFunction,Legend,Top*%
%TF.FilePolarity,Positive*%
%FSLAX46Y46*%
G04 Gerber Fmt 4.6, Leading zero omitted, Abs format (unit mm)*
G04 Created by KiCad (PCBNEW 9.0.7) date 2026-03-09 18:07:53*
%MOMM*%
%LPD*%
G01*
G04 APERTURE LIST*
%ADD10C,0.150000*%
%ADD11C,0.101600*%
%ADD12C,0.200000*%
%ADD13C,0.120000*%
%ADD14C,0.127000*%
%ADD15C,0.254000*%
%ADD16C,0.025400*%
%ADD17C,0.040000*%
G04 APERTURE END LIST*
D10*
X126561905Y-81154819D02*
X126561905Y-80154819D01*
X126561905Y-80154819D02*
X126800000Y-80154819D01*
X126800000Y-80154819D02*
X126942857Y-80202438D01*
X126942857Y-80202438D02*
X127038095Y-80297676D01*
X127038095Y-80297676D02*
X127085714Y-80392914D01*
X127085714Y-80392914D02*
X127133333Y-80583390D01*
X127133333Y-80583390D02*
X127133333Y-80726247D01*
X127133333Y-80726247D02*
X127085714Y-80916723D01*
X127085714Y-80916723D02*
X127038095Y-81011961D01*
X127038095Y-81011961D02*
X126942857Y-81107200D01*
X126942857Y-81107200D02*
X126800000Y-81154819D01*
X126800000Y-81154819D02*
X126561905Y-81154819D01*
X127990476Y-80488152D02*
X127990476Y-81154819D01*
X127752381Y-80107200D02*
X127514286Y-80821485D01*
X127514286Y-80821485D02*
X128133333Y-80821485D01*
D11*
X152947666Y-74516985D02*
X152947666Y-75236652D01*
X152947666Y-75236652D02*
X152990000Y-75321318D01*
X152990000Y-75321318D02*
X153032333Y-75363652D01*
X153032333Y-75363652D02*
X153117000Y-75405985D01*
X153117000Y-75405985D02*
X153286333Y-75405985D01*
X153286333Y-75405985D02*
X153371000Y-75363652D01*
X153371000Y-75363652D02*
X153413333Y-75321318D01*
X153413333Y-75321318D02*
X153455666Y-75236652D01*
X153455666Y-75236652D02*
X153455666Y-74516985D01*
X154344666Y-75405985D02*
X153836666Y-75405985D01*
X154090666Y-75405985D02*
X154090666Y-74516985D01*
X154090666Y-74516985D02*
X154005999Y-74643985D01*
X154005999Y-74643985D02*
X153921333Y-74728652D01*
X153921333Y-74728652D02*
X153836666Y-74770985D01*
D10*
X152101191Y-72414819D02*
X152767857Y-73414819D01*
X152767857Y-72414819D02*
X152101191Y-73414819D01*
X153148810Y-73414819D02*
X153148810Y-72414819D01*
X153577381Y-73129104D02*
X154053571Y-73129104D01*
X153482143Y-73414819D02*
X153815476Y-72414819D01*
X153815476Y-72414819D02*
X154148809Y-73414819D01*
X154672619Y-72414819D02*
X154863095Y-72414819D01*
X154863095Y-72414819D02*
X154958333Y-72462438D01*
X154958333Y-72462438D02*
X155053571Y-72557676D01*
X155053571Y-72557676D02*
X155101190Y-72748152D01*
X155101190Y-72748152D02*
X155101190Y-73081485D01*
X155101190Y-73081485D02*
X155053571Y-73271961D01*
X155053571Y-73271961D02*
X154958333Y-73367200D01*
X154958333Y-73367200D02*
X154863095Y-73414819D01*
X154863095Y-73414819D02*
X154672619Y-73414819D01*
X154672619Y-73414819D02*
X154577381Y-73367200D01*
X154577381Y-73367200D02*
X154482143Y-73271961D01*
X154482143Y-73271961D02*
X154434524Y-73081485D01*
X154434524Y-73081485D02*
X154434524Y-72748152D01*
X154434524Y-72748152D02*
X154482143Y-72557676D01*
X154482143Y-72557676D02*
X154577381Y-72462438D01*
X154577381Y-72462438D02*
X154672619Y-72414819D01*
X148863095Y-71367200D02*
X149005952Y-71414819D01*
X149005952Y-71414819D02*
X149244047Y-71414819D01*
X149244047Y-71414819D02*
X149339285Y-71367200D01*
X149339285Y-71367200D02*
X149386904Y-71319580D01*
X149386904Y-71319580D02*
X149434523Y-71224342D01*
X149434523Y-71224342D02*
X149434523Y-71129104D01*
X149434523Y-71129104D02*
X149386904Y-71033866D01*
X149386904Y-71033866D02*
X149339285Y-70986247D01*
X149339285Y-70986247D02*
X149244047Y-70938628D01*
X149244047Y-70938628D02*
X149053571Y-70891009D01*
X149053571Y-70891009D02*
X148958333Y-70843390D01*
X148958333Y-70843390D02*
X148910714Y-70795771D01*
X148910714Y-70795771D02*
X148863095Y-70700533D01*
X148863095Y-70700533D02*
X148863095Y-70605295D01*
X148863095Y-70605295D02*
X148910714Y-70510057D01*
X148910714Y-70510057D02*
X148958333Y-70462438D01*
X148958333Y-70462438D02*
X149053571Y-70414819D01*
X149053571Y-70414819D02*
X149291666Y-70414819D01*
X149291666Y-70414819D02*
X149434523Y-70462438D01*
X150244047Y-71367200D02*
X150148809Y-71414819D01*
X150148809Y-71414819D02*
X149958333Y-71414819D01*
X149958333Y-71414819D02*
X149863095Y-71367200D01*
X149863095Y-71367200D02*
X149815476Y-71271961D01*
X149815476Y-71271961D02*
X149815476Y-70891009D01*
X149815476Y-70891009D02*
X149863095Y-70795771D01*
X149863095Y-70795771D02*
X149958333Y-70748152D01*
X149958333Y-70748152D02*
X150148809Y-70748152D01*
X150148809Y-70748152D02*
X150244047Y-70795771D01*
X150244047Y-70795771D02*
X150291666Y-70891009D01*
X150291666Y-70891009D02*
X150291666Y-70986247D01*
X150291666Y-70986247D02*
X149815476Y-71081485D01*
X151101190Y-71367200D02*
X151005952Y-71414819D01*
X151005952Y-71414819D02*
X150815476Y-71414819D01*
X150815476Y-71414819D02*
X150720238Y-71367200D01*
X150720238Y-71367200D02*
X150672619Y-71271961D01*
X150672619Y-71271961D02*
X150672619Y-70891009D01*
X150672619Y-70891009D02*
X150720238Y-70795771D01*
X150720238Y-70795771D02*
X150815476Y-70748152D01*
X150815476Y-70748152D02*
X151005952Y-70748152D01*
X151005952Y-70748152D02*
X151101190Y-70795771D01*
X151101190Y-70795771D02*
X151148809Y-70891009D01*
X151148809Y-70891009D02*
X151148809Y-70986247D01*
X151148809Y-70986247D02*
X150672619Y-71081485D01*
X151958333Y-71367200D02*
X151863095Y-71414819D01*
X151863095Y-71414819D02*
X151672619Y-71414819D01*
X151672619Y-71414819D02*
X151577381Y-71367200D01*
X151577381Y-71367200D02*
X151529762Y-71271961D01*
X151529762Y-71271961D02*
X151529762Y-70891009D01*
X151529762Y-70891009D02*
X151577381Y-70795771D01*
X151577381Y-70795771D02*
X151672619Y-70748152D01*
X151672619Y-70748152D02*
X151863095Y-70748152D01*
X151863095Y-70748152D02*
X151958333Y-70795771D01*
X151958333Y-70795771D02*
X152005952Y-70891009D01*
X152005952Y-70891009D02*
X152005952Y-70986247D01*
X152005952Y-70986247D02*
X151529762Y-71081485D01*
X152863095Y-71414819D02*
X152863095Y-70414819D01*
X152863095Y-71367200D02*
X152767857Y-71414819D01*
X152767857Y-71414819D02*
X152577381Y-71414819D01*
X152577381Y-71414819D02*
X152482143Y-71367200D01*
X152482143Y-71367200D02*
X152434524Y-71319580D01*
X152434524Y-71319580D02*
X152386905Y-71224342D01*
X152386905Y-71224342D02*
X152386905Y-70938628D01*
X152386905Y-70938628D02*
X152434524Y-70843390D01*
X152434524Y-70843390D02*
X152482143Y-70795771D01*
X152482143Y-70795771D02*
X152577381Y-70748152D01*
X152577381Y-70748152D02*
X152767857Y-70748152D01*
X152767857Y-70748152D02*
X152863095Y-70795771D01*
X154053572Y-71367200D02*
X154196429Y-71414819D01*
X154196429Y-71414819D02*
X154434524Y-71414819D01*
X154434524Y-71414819D02*
X154529762Y-71367200D01*
X154529762Y-71367200D02*
X154577381Y-71319580D01*
X154577381Y-71319580D02*
X154625000Y-71224342D01*
X154625000Y-71224342D02*
X154625000Y-71129104D01*
X154625000Y-71129104D02*
X154577381Y-71033866D01*
X154577381Y-71033866D02*
X154529762Y-70986247D01*
X154529762Y-70986247D02*
X154434524Y-70938628D01*
X154434524Y-70938628D02*
X154244048Y-70891009D01*
X154244048Y-70891009D02*
X154148810Y-70843390D01*
X154148810Y-70843390D02*
X154101191Y-70795771D01*
X154101191Y-70795771D02*
X154053572Y-70700533D01*
X154053572Y-70700533D02*
X154053572Y-70605295D01*
X154053572Y-70605295D02*
X154101191Y-70510057D01*
X154101191Y-70510057D02*
X154148810Y-70462438D01*
X154148810Y-70462438D02*
X154244048Y-70414819D01*
X154244048Y-70414819D02*
X154482143Y-70414819D01*
X154482143Y-70414819D02*
X154625000Y-70462438D01*
X154910715Y-70748152D02*
X155291667Y-70748152D01*
X155053572Y-70414819D02*
X155053572Y-71271961D01*
X155053572Y-71271961D02*
X155101191Y-71367200D01*
X155101191Y-71367200D02*
X155196429Y-71414819D01*
X155196429Y-71414819D02*
X155291667Y-71414819D01*
X156053572Y-70748152D02*
X156053572Y-71414819D01*
X155625001Y-70748152D02*
X155625001Y-71271961D01*
X155625001Y-71271961D02*
X155672620Y-71367200D01*
X155672620Y-71367200D02*
X155767858Y-71414819D01*
X155767858Y-71414819D02*
X155910715Y-71414819D01*
X155910715Y-71414819D02*
X156005953Y-71367200D01*
X156005953Y-71367200D02*
X156053572Y-71319580D01*
X156958334Y-71414819D02*
X156958334Y-70414819D01*
X156958334Y-71367200D02*
X156863096Y-71414819D01*
X156863096Y-71414819D02*
X156672620Y-71414819D01*
X156672620Y-71414819D02*
X156577382Y-71367200D01*
X156577382Y-71367200D02*
X156529763Y-71319580D01*
X156529763Y-71319580D02*
X156482144Y-71224342D01*
X156482144Y-71224342D02*
X156482144Y-70938628D01*
X156482144Y-70938628D02*
X156529763Y-70843390D01*
X156529763Y-70843390D02*
X156577382Y-70795771D01*
X156577382Y-70795771D02*
X156672620Y-70748152D01*
X156672620Y-70748152D02*
X156863096Y-70748152D01*
X156863096Y-70748152D02*
X156958334Y-70795771D01*
X157434525Y-71414819D02*
X157434525Y-70748152D01*
X157434525Y-70414819D02*
X157386906Y-70462438D01*
X157386906Y-70462438D02*
X157434525Y-70510057D01*
X157434525Y-70510057D02*
X157482144Y-70462438D01*
X157482144Y-70462438D02*
X157434525Y-70414819D01*
X157434525Y-70414819D02*
X157434525Y-70510057D01*
X158053572Y-71414819D02*
X157958334Y-71367200D01*
X157958334Y-71367200D02*
X157910715Y-71319580D01*
X157910715Y-71319580D02*
X157863096Y-71224342D01*
X157863096Y-71224342D02*
X157863096Y-70938628D01*
X157863096Y-70938628D02*
X157910715Y-70843390D01*
X157910715Y-70843390D02*
X157958334Y-70795771D01*
X157958334Y-70795771D02*
X158053572Y-70748152D01*
X158053572Y-70748152D02*
X158196429Y-70748152D01*
X158196429Y-70748152D02*
X158291667Y-70795771D01*
X158291667Y-70795771D02*
X158339286Y-70843390D01*
X158339286Y-70843390D02*
X158386905Y-70938628D01*
X158386905Y-70938628D02*
X158386905Y-71224342D01*
X158386905Y-71224342D02*
X158339286Y-71319580D01*
X158339286Y-71319580D02*
X158291667Y-71367200D01*
X158291667Y-71367200D02*
X158196429Y-71414819D01*
X158196429Y-71414819D02*
X158053572Y-71414819D01*
X107261905Y-79154819D02*
X107261905Y-78154819D01*
X107261905Y-78154819D02*
X107500000Y-78154819D01*
X107500000Y-78154819D02*
X107642857Y-78202438D01*
X107642857Y-78202438D02*
X107738095Y-78297676D01*
X107738095Y-78297676D02*
X107785714Y-78392914D01*
X107785714Y-78392914D02*
X107833333Y-78583390D01*
X107833333Y-78583390D02*
X107833333Y-78726247D01*
X107833333Y-78726247D02*
X107785714Y-78916723D01*
X107785714Y-78916723D02*
X107738095Y-79011961D01*
X107738095Y-79011961D02*
X107642857Y-79107200D01*
X107642857Y-79107200D02*
X107500000Y-79154819D01*
X107500000Y-79154819D02*
X107261905Y-79154819D01*
X108785714Y-79154819D02*
X108214286Y-79154819D01*
X108500000Y-79154819D02*
X108500000Y-78154819D01*
X108500000Y-78154819D02*
X108404762Y-78297676D01*
X108404762Y-78297676D02*
X108309524Y-78392914D01*
X108309524Y-78392914D02*
X108214286Y-78440533D01*
X183216667Y-88207200D02*
X183359524Y-88254819D01*
X183359524Y-88254819D02*
X183597619Y-88254819D01*
X183597619Y-88254819D02*
X183692857Y-88207200D01*
X183692857Y-88207200D02*
X183740476Y-88159580D01*
X183740476Y-88159580D02*
X183788095Y-88064342D01*
X183788095Y-88064342D02*
X183788095Y-87969104D01*
X183788095Y-87969104D02*
X183740476Y-87873866D01*
X183740476Y-87873866D02*
X183692857Y-87826247D01*
X183692857Y-87826247D02*
X183597619Y-87778628D01*
X183597619Y-87778628D02*
X183407143Y-87731009D01*
X183407143Y-87731009D02*
X183311905Y-87683390D01*
X183311905Y-87683390D02*
X183264286Y-87635771D01*
X183264286Y-87635771D02*
X183216667Y-87540533D01*
X183216667Y-87540533D02*
X183216667Y-87445295D01*
X183216667Y-87445295D02*
X183264286Y-87350057D01*
X183264286Y-87350057D02*
X183311905Y-87302438D01*
X183311905Y-87302438D02*
X183407143Y-87254819D01*
X183407143Y-87254819D02*
X183645238Y-87254819D01*
X183645238Y-87254819D02*
X183788095Y-87302438D01*
X184121429Y-87254819D02*
X184359524Y-88254819D01*
X184359524Y-88254819D02*
X184550000Y-87540533D01*
X184550000Y-87540533D02*
X184740476Y-88254819D01*
X184740476Y-88254819D02*
X184978572Y-87254819D01*
X185407143Y-88254819D02*
X185597619Y-88254819D01*
X185597619Y-88254819D02*
X185692857Y-88207200D01*
X185692857Y-88207200D02*
X185740476Y-88159580D01*
X185740476Y-88159580D02*
X185835714Y-88016723D01*
X185835714Y-88016723D02*
X185883333Y-87826247D01*
X185883333Y-87826247D02*
X185883333Y-87445295D01*
X185883333Y-87445295D02*
X185835714Y-87350057D01*
X185835714Y-87350057D02*
X185788095Y-87302438D01*
X185788095Y-87302438D02*
X185692857Y-87254819D01*
X185692857Y-87254819D02*
X185502381Y-87254819D01*
X185502381Y-87254819D02*
X185407143Y-87302438D01*
X185407143Y-87302438D02*
X185359524Y-87350057D01*
X185359524Y-87350057D02*
X185311905Y-87445295D01*
X185311905Y-87445295D02*
X185311905Y-87683390D01*
X185311905Y-87683390D02*
X185359524Y-87778628D01*
X185359524Y-87778628D02*
X185407143Y-87826247D01*
X185407143Y-87826247D02*
X185502381Y-87873866D01*
X185502381Y-87873866D02*
X185692857Y-87873866D01*
X185692857Y-87873866D02*
X185788095Y-87826247D01*
X185788095Y-87826247D02*
X185835714Y-87778628D01*
X185835714Y-87778628D02*
X185883333Y-87683390D01*
D12*
X146505714Y-117452219D02*
X146505714Y-116452219D01*
X146505714Y-116452219D02*
X146743809Y-116452219D01*
X146743809Y-116452219D02*
X146886666Y-116499838D01*
X146886666Y-116499838D02*
X146981904Y-116595076D01*
X146981904Y-116595076D02*
X147029523Y-116690314D01*
X147029523Y-116690314D02*
X147077142Y-116880790D01*
X147077142Y-116880790D02*
X147077142Y-117023647D01*
X147077142Y-117023647D02*
X147029523Y-117214123D01*
X147029523Y-117214123D02*
X146981904Y-117309361D01*
X146981904Y-117309361D02*
X146886666Y-117404600D01*
X146886666Y-117404600D02*
X146743809Y-117452219D01*
X146743809Y-117452219D02*
X146505714Y-117452219D01*
X148029523Y-117452219D02*
X147458095Y-117452219D01*
X147743809Y-117452219D02*
X147743809Y-116452219D01*
X147743809Y-116452219D02*
X147648571Y-116595076D01*
X147648571Y-116595076D02*
X147553333Y-116690314D01*
X147553333Y-116690314D02*
X147458095Y-116737933D01*
X148886666Y-116452219D02*
X148696190Y-116452219D01*
X148696190Y-116452219D02*
X148600952Y-116499838D01*
X148600952Y-116499838D02*
X148553333Y-116547457D01*
X148553333Y-116547457D02*
X148458095Y-116690314D01*
X148458095Y-116690314D02*
X148410476Y-116880790D01*
X148410476Y-116880790D02*
X148410476Y-117261742D01*
X148410476Y-117261742D02*
X148458095Y-117356980D01*
X148458095Y-117356980D02*
X148505714Y-117404600D01*
X148505714Y-117404600D02*
X148600952Y-117452219D01*
X148600952Y-117452219D02*
X148791428Y-117452219D01*
X148791428Y-117452219D02*
X148886666Y-117404600D01*
X148886666Y-117404600D02*
X148934285Y-117356980D01*
X148934285Y-117356980D02*
X148981904Y-117261742D01*
X148981904Y-117261742D02*
X148981904Y-117023647D01*
X148981904Y-117023647D02*
X148934285Y-116928409D01*
X148934285Y-116928409D02*
X148886666Y-116880790D01*
X148886666Y-116880790D02*
X148791428Y-116833171D01*
X148791428Y-116833171D02*
X148600952Y-116833171D01*
X148600952Y-116833171D02*
X148505714Y-116880790D01*
X148505714Y-116880790D02*
X148458095Y-116928409D01*
X148458095Y-116928409D02*
X148410476Y-117023647D01*
X166435714Y-97222219D02*
X166435714Y-96222219D01*
X166435714Y-96222219D02*
X166673809Y-96222219D01*
X166673809Y-96222219D02*
X166816666Y-96269838D01*
X166816666Y-96269838D02*
X166911904Y-96365076D01*
X166911904Y-96365076D02*
X166959523Y-96460314D01*
X166959523Y-96460314D02*
X167007142Y-96650790D01*
X167007142Y-96650790D02*
X167007142Y-96793647D01*
X167007142Y-96793647D02*
X166959523Y-96984123D01*
X166959523Y-96984123D02*
X166911904Y-97079361D01*
X166911904Y-97079361D02*
X166816666Y-97174600D01*
X166816666Y-97174600D02*
X166673809Y-97222219D01*
X166673809Y-97222219D02*
X166435714Y-97222219D01*
X167959523Y-97222219D02*
X167388095Y-97222219D01*
X167673809Y-97222219D02*
X167673809Y-96222219D01*
X167673809Y-96222219D02*
X167578571Y-96365076D01*
X167578571Y-96365076D02*
X167483333Y-96460314D01*
X167483333Y-96460314D02*
X167388095Y-96507933D01*
X168340476Y-96317457D02*
X168388095Y-96269838D01*
X168388095Y-96269838D02*
X168483333Y-96222219D01*
X168483333Y-96222219D02*
X168721428Y-96222219D01*
X168721428Y-96222219D02*
X168816666Y-96269838D01*
X168816666Y-96269838D02*
X168864285Y-96317457D01*
X168864285Y-96317457D02*
X168911904Y-96412695D01*
X168911904Y-96412695D02*
X168911904Y-96507933D01*
X168911904Y-96507933D02*
X168864285Y-96650790D01*
X168864285Y-96650790D02*
X168292857Y-97222219D01*
X168292857Y-97222219D02*
X168911904Y-97222219D01*
D10*
X105736667Y-106823200D02*
X105879524Y-106870819D01*
X105879524Y-106870819D02*
X106117619Y-106870819D01*
X106117619Y-106870819D02*
X106212857Y-106823200D01*
X106212857Y-106823200D02*
X106260476Y-106775580D01*
X106260476Y-106775580D02*
X106308095Y-106680342D01*
X106308095Y-106680342D02*
X106308095Y-106585104D01*
X106308095Y-106585104D02*
X106260476Y-106489866D01*
X106260476Y-106489866D02*
X106212857Y-106442247D01*
X106212857Y-106442247D02*
X106117619Y-106394628D01*
X106117619Y-106394628D02*
X105927143Y-106347009D01*
X105927143Y-106347009D02*
X105831905Y-106299390D01*
X105831905Y-106299390D02*
X105784286Y-106251771D01*
X105784286Y-106251771D02*
X105736667Y-106156533D01*
X105736667Y-106156533D02*
X105736667Y-106061295D01*
X105736667Y-106061295D02*
X105784286Y-105966057D01*
X105784286Y-105966057D02*
X105831905Y-105918438D01*
X105831905Y-105918438D02*
X105927143Y-105870819D01*
X105927143Y-105870819D02*
X106165238Y-105870819D01*
X106165238Y-105870819D02*
X106308095Y-105918438D01*
X106641429Y-105870819D02*
X106879524Y-106870819D01*
X106879524Y-106870819D02*
X107070000Y-106156533D01*
X107070000Y-106156533D02*
X107260476Y-106870819D01*
X107260476Y-106870819D02*
X107498572Y-105870819D01*
X107831905Y-105966057D02*
X107879524Y-105918438D01*
X107879524Y-105918438D02*
X107974762Y-105870819D01*
X107974762Y-105870819D02*
X108212857Y-105870819D01*
X108212857Y-105870819D02*
X108308095Y-105918438D01*
X108308095Y-105918438D02*
X108355714Y-105966057D01*
X108355714Y-105966057D02*
X108403333Y-106061295D01*
X108403333Y-106061295D02*
X108403333Y-106156533D01*
X108403333Y-106156533D02*
X108355714Y-106299390D01*
X108355714Y-106299390D02*
X107784286Y-106870819D01*
X107784286Y-106870819D02*
X108403333Y-106870819D01*
D12*
X126535714Y-117802219D02*
X126535714Y-116802219D01*
X126535714Y-116802219D02*
X126773809Y-116802219D01*
X126773809Y-116802219D02*
X126916666Y-116849838D01*
X126916666Y-116849838D02*
X127011904Y-116945076D01*
X127011904Y-116945076D02*
X127059523Y-117040314D01*
X127059523Y-117040314D02*
X127107142Y-117230790D01*
X127107142Y-117230790D02*
X127107142Y-117373647D01*
X127107142Y-117373647D02*
X127059523Y-117564123D01*
X127059523Y-117564123D02*
X127011904Y-117659361D01*
X127011904Y-117659361D02*
X126916666Y-117754600D01*
X126916666Y-117754600D02*
X126773809Y-117802219D01*
X126773809Y-117802219D02*
X126535714Y-117802219D01*
X128059523Y-117802219D02*
X127488095Y-117802219D01*
X127773809Y-117802219D02*
X127773809Y-116802219D01*
X127773809Y-116802219D02*
X127678571Y-116945076D01*
X127678571Y-116945076D02*
X127583333Y-117040314D01*
X127583333Y-117040314D02*
X127488095Y-117087933D01*
X128392857Y-116802219D02*
X129059523Y-116802219D01*
X129059523Y-116802219D02*
X128630952Y-117802219D01*
D10*
X136151905Y-114744819D02*
X136151905Y-113744819D01*
X136151905Y-113744819D02*
X136390000Y-113744819D01*
X136390000Y-113744819D02*
X136532857Y-113792438D01*
X136532857Y-113792438D02*
X136628095Y-113887676D01*
X136628095Y-113887676D02*
X136675714Y-113982914D01*
X136675714Y-113982914D02*
X136723333Y-114173390D01*
X136723333Y-114173390D02*
X136723333Y-114316247D01*
X136723333Y-114316247D02*
X136675714Y-114506723D01*
X136675714Y-114506723D02*
X136628095Y-114601961D01*
X136628095Y-114601961D02*
X136532857Y-114697200D01*
X136532857Y-114697200D02*
X136390000Y-114744819D01*
X136390000Y-114744819D02*
X136151905Y-114744819D01*
X137294762Y-114173390D02*
X137199524Y-114125771D01*
X137199524Y-114125771D02*
X137151905Y-114078152D01*
X137151905Y-114078152D02*
X137104286Y-113982914D01*
X137104286Y-113982914D02*
X137104286Y-113935295D01*
X137104286Y-113935295D02*
X137151905Y-113840057D01*
X137151905Y-113840057D02*
X137199524Y-113792438D01*
X137199524Y-113792438D02*
X137294762Y-113744819D01*
X137294762Y-113744819D02*
X137485238Y-113744819D01*
X137485238Y-113744819D02*
X137580476Y-113792438D01*
X137580476Y-113792438D02*
X137628095Y-113840057D01*
X137628095Y-113840057D02*
X137675714Y-113935295D01*
X137675714Y-113935295D02*
X137675714Y-113982914D01*
X137675714Y-113982914D02*
X137628095Y-114078152D01*
X137628095Y-114078152D02*
X137580476Y-114125771D01*
X137580476Y-114125771D02*
X137485238Y-114173390D01*
X137485238Y-114173390D02*
X137294762Y-114173390D01*
X137294762Y-114173390D02*
X137199524Y-114221009D01*
X137199524Y-114221009D02*
X137151905Y-114268628D01*
X137151905Y-114268628D02*
X137104286Y-114363866D01*
X137104286Y-114363866D02*
X137104286Y-114554342D01*
X137104286Y-114554342D02*
X137151905Y-114649580D01*
X137151905Y-114649580D02*
X137199524Y-114697200D01*
X137199524Y-114697200D02*
X137294762Y-114744819D01*
X137294762Y-114744819D02*
X137485238Y-114744819D01*
X137485238Y-114744819D02*
X137580476Y-114697200D01*
X137580476Y-114697200D02*
X137628095Y-114649580D01*
X137628095Y-114649580D02*
X137675714Y-114554342D01*
X137675714Y-114554342D02*
X137675714Y-114363866D01*
X137675714Y-114363866D02*
X137628095Y-114268628D01*
X137628095Y-114268628D02*
X137580476Y-114221009D01*
X137580476Y-114221009D02*
X137485238Y-114173390D01*
D12*
X166305714Y-117452219D02*
X166305714Y-116452219D01*
X166305714Y-116452219D02*
X166543809Y-116452219D01*
X166543809Y-116452219D02*
X166686666Y-116499838D01*
X166686666Y-116499838D02*
X166781904Y-116595076D01*
X166781904Y-116595076D02*
X166829523Y-116690314D01*
X166829523Y-116690314D02*
X166877142Y-116880790D01*
X166877142Y-116880790D02*
X166877142Y-117023647D01*
X166877142Y-117023647D02*
X166829523Y-117214123D01*
X166829523Y-117214123D02*
X166781904Y-117309361D01*
X166781904Y-117309361D02*
X166686666Y-117404600D01*
X166686666Y-117404600D02*
X166543809Y-117452219D01*
X166543809Y-117452219D02*
X166305714Y-117452219D01*
X167829523Y-117452219D02*
X167258095Y-117452219D01*
X167543809Y-117452219D02*
X167543809Y-116452219D01*
X167543809Y-116452219D02*
X167448571Y-116595076D01*
X167448571Y-116595076D02*
X167353333Y-116690314D01*
X167353333Y-116690314D02*
X167258095Y-116737933D01*
X168162857Y-116452219D02*
X168781904Y-116452219D01*
X168781904Y-116452219D02*
X168448571Y-116833171D01*
X168448571Y-116833171D02*
X168591428Y-116833171D01*
X168591428Y-116833171D02*
X168686666Y-116880790D01*
X168686666Y-116880790D02*
X168734285Y-116928409D01*
X168734285Y-116928409D02*
X168781904Y-117023647D01*
X168781904Y-117023647D02*
X168781904Y-117261742D01*
X168781904Y-117261742D02*
X168734285Y-117356980D01*
X168734285Y-117356980D02*
X168686666Y-117404600D01*
X168686666Y-117404600D02*
X168591428Y-117452219D01*
X168591428Y-117452219D02*
X168305714Y-117452219D01*
X168305714Y-117452219D02*
X168210476Y-117404600D01*
X168210476Y-117404600D02*
X168162857Y-117356980D01*
X187778215Y-109669377D02*
X187778215Y-108669377D01*
X187778215Y-108669377D02*
X188016310Y-108669377D01*
X188016310Y-108669377D02*
X188159167Y-108716996D01*
X188159167Y-108716996D02*
X188254405Y-108812234D01*
X188254405Y-108812234D02*
X188302024Y-108907472D01*
X188302024Y-108907472D02*
X188349643Y-109097948D01*
X188349643Y-109097948D02*
X188349643Y-109240805D01*
X188349643Y-109240805D02*
X188302024Y-109431281D01*
X188302024Y-109431281D02*
X188254405Y-109526519D01*
X188254405Y-109526519D02*
X188159167Y-109621758D01*
X188159167Y-109621758D02*
X188016310Y-109669377D01*
X188016310Y-109669377D02*
X187778215Y-109669377D01*
X189302024Y-109669377D02*
X188730596Y-109669377D01*
X189016310Y-109669377D02*
X189016310Y-108669377D01*
X189016310Y-108669377D02*
X188921072Y-108812234D01*
X188921072Y-108812234D02*
X188825834Y-108907472D01*
X188825834Y-108907472D02*
X188730596Y-108955091D01*
X189921072Y-108669377D02*
X190016310Y-108669377D01*
X190016310Y-108669377D02*
X190111548Y-108716996D01*
X190111548Y-108716996D02*
X190159167Y-108764615D01*
X190159167Y-108764615D02*
X190206786Y-108859853D01*
X190206786Y-108859853D02*
X190254405Y-109050329D01*
X190254405Y-109050329D02*
X190254405Y-109288424D01*
X190254405Y-109288424D02*
X190206786Y-109478900D01*
X190206786Y-109478900D02*
X190159167Y-109574138D01*
X190159167Y-109574138D02*
X190111548Y-109621758D01*
X190111548Y-109621758D02*
X190016310Y-109669377D01*
X190016310Y-109669377D02*
X189921072Y-109669377D01*
X189921072Y-109669377D02*
X189825834Y-109621758D01*
X189825834Y-109621758D02*
X189778215Y-109574138D01*
X189778215Y-109574138D02*
X189730596Y-109478900D01*
X189730596Y-109478900D02*
X189682977Y-109288424D01*
X189682977Y-109288424D02*
X189682977Y-109050329D01*
X189682977Y-109050329D02*
X189730596Y-108859853D01*
X189730596Y-108859853D02*
X189778215Y-108764615D01*
X189778215Y-108764615D02*
X189825834Y-108716996D01*
X189825834Y-108716996D02*
X189921072Y-108669377D01*
D10*
X140961905Y-82154819D02*
X140961905Y-81154819D01*
X140961905Y-81154819D02*
X141200000Y-81154819D01*
X141200000Y-81154819D02*
X141342857Y-81202438D01*
X141342857Y-81202438D02*
X141438095Y-81297676D01*
X141438095Y-81297676D02*
X141485714Y-81392914D01*
X141485714Y-81392914D02*
X141533333Y-81583390D01*
X141533333Y-81583390D02*
X141533333Y-81726247D01*
X141533333Y-81726247D02*
X141485714Y-81916723D01*
X141485714Y-81916723D02*
X141438095Y-82011961D01*
X141438095Y-82011961D02*
X141342857Y-82107200D01*
X141342857Y-82107200D02*
X141200000Y-82154819D01*
X141200000Y-82154819D02*
X140961905Y-82154819D01*
X141866667Y-81154819D02*
X142533333Y-81154819D01*
X142533333Y-81154819D02*
X142104762Y-82154819D01*
D12*
X145028215Y-103079377D02*
X145028215Y-102079377D01*
X145028215Y-102079377D02*
X145266310Y-102079377D01*
X145266310Y-102079377D02*
X145409167Y-102126996D01*
X145409167Y-102126996D02*
X145504405Y-102222234D01*
X145504405Y-102222234D02*
X145552024Y-102317472D01*
X145552024Y-102317472D02*
X145599643Y-102507948D01*
X145599643Y-102507948D02*
X145599643Y-102650805D01*
X145599643Y-102650805D02*
X145552024Y-102841281D01*
X145552024Y-102841281D02*
X145504405Y-102936519D01*
X145504405Y-102936519D02*
X145409167Y-103031758D01*
X145409167Y-103031758D02*
X145266310Y-103079377D01*
X145266310Y-103079377D02*
X145028215Y-103079377D01*
X146552024Y-103079377D02*
X145980596Y-103079377D01*
X146266310Y-103079377D02*
X146266310Y-102079377D01*
X146266310Y-102079377D02*
X146171072Y-102222234D01*
X146171072Y-102222234D02*
X146075834Y-102317472D01*
X146075834Y-102317472D02*
X145980596Y-102365091D01*
X147409167Y-102412710D02*
X147409167Y-103079377D01*
X147171072Y-102031758D02*
X146932977Y-102746043D01*
X146932977Y-102746043D02*
X147552024Y-102746043D01*
D10*
X145736667Y-106903200D02*
X145879524Y-106950819D01*
X145879524Y-106950819D02*
X146117619Y-106950819D01*
X146117619Y-106950819D02*
X146212857Y-106903200D01*
X146212857Y-106903200D02*
X146260476Y-106855580D01*
X146260476Y-106855580D02*
X146308095Y-106760342D01*
X146308095Y-106760342D02*
X146308095Y-106665104D01*
X146308095Y-106665104D02*
X146260476Y-106569866D01*
X146260476Y-106569866D02*
X146212857Y-106522247D01*
X146212857Y-106522247D02*
X146117619Y-106474628D01*
X146117619Y-106474628D02*
X145927143Y-106427009D01*
X145927143Y-106427009D02*
X145831905Y-106379390D01*
X145831905Y-106379390D02*
X145784286Y-106331771D01*
X145784286Y-106331771D02*
X145736667Y-106236533D01*
X145736667Y-106236533D02*
X145736667Y-106141295D01*
X145736667Y-106141295D02*
X145784286Y-106046057D01*
X145784286Y-106046057D02*
X145831905Y-105998438D01*
X145831905Y-105998438D02*
X145927143Y-105950819D01*
X145927143Y-105950819D02*
X146165238Y-105950819D01*
X146165238Y-105950819D02*
X146308095Y-105998438D01*
X146641429Y-105950819D02*
X146879524Y-106950819D01*
X146879524Y-106950819D02*
X147070000Y-106236533D01*
X147070000Y-106236533D02*
X147260476Y-106950819D01*
X147260476Y-106950819D02*
X147498572Y-105950819D01*
X148022381Y-106379390D02*
X147927143Y-106331771D01*
X147927143Y-106331771D02*
X147879524Y-106284152D01*
X147879524Y-106284152D02*
X147831905Y-106188914D01*
X147831905Y-106188914D02*
X147831905Y-106141295D01*
X147831905Y-106141295D02*
X147879524Y-106046057D01*
X147879524Y-106046057D02*
X147927143Y-105998438D01*
X147927143Y-105998438D02*
X148022381Y-105950819D01*
X148022381Y-105950819D02*
X148212857Y-105950819D01*
X148212857Y-105950819D02*
X148308095Y-105998438D01*
X148308095Y-105998438D02*
X148355714Y-106046057D01*
X148355714Y-106046057D02*
X148403333Y-106141295D01*
X148403333Y-106141295D02*
X148403333Y-106188914D01*
X148403333Y-106188914D02*
X148355714Y-106284152D01*
X148355714Y-106284152D02*
X148308095Y-106331771D01*
X148308095Y-106331771D02*
X148212857Y-106379390D01*
X148212857Y-106379390D02*
X148022381Y-106379390D01*
X148022381Y-106379390D02*
X147927143Y-106427009D01*
X147927143Y-106427009D02*
X147879524Y-106474628D01*
X147879524Y-106474628D02*
X147831905Y-106569866D01*
X147831905Y-106569866D02*
X147831905Y-106760342D01*
X147831905Y-106760342D02*
X147879524Y-106855580D01*
X147879524Y-106855580D02*
X147927143Y-106903200D01*
X147927143Y-106903200D02*
X148022381Y-106950819D01*
X148022381Y-106950819D02*
X148212857Y-106950819D01*
X148212857Y-106950819D02*
X148308095Y-106903200D01*
X148308095Y-106903200D02*
X148355714Y-106855580D01*
X148355714Y-106855580D02*
X148403333Y-106760342D01*
X148403333Y-106760342D02*
X148403333Y-106569866D01*
X148403333Y-106569866D02*
X148355714Y-106474628D01*
X148355714Y-106474628D02*
X148308095Y-106427009D01*
X148308095Y-106427009D02*
X148212857Y-106379390D01*
X125626667Y-106833200D02*
X125769524Y-106880819D01*
X125769524Y-106880819D02*
X126007619Y-106880819D01*
X126007619Y-106880819D02*
X126102857Y-106833200D01*
X126102857Y-106833200D02*
X126150476Y-106785580D01*
X126150476Y-106785580D02*
X126198095Y-106690342D01*
X126198095Y-106690342D02*
X126198095Y-106595104D01*
X126198095Y-106595104D02*
X126150476Y-106499866D01*
X126150476Y-106499866D02*
X126102857Y-106452247D01*
X126102857Y-106452247D02*
X126007619Y-106404628D01*
X126007619Y-106404628D02*
X125817143Y-106357009D01*
X125817143Y-106357009D02*
X125721905Y-106309390D01*
X125721905Y-106309390D02*
X125674286Y-106261771D01*
X125674286Y-106261771D02*
X125626667Y-106166533D01*
X125626667Y-106166533D02*
X125626667Y-106071295D01*
X125626667Y-106071295D02*
X125674286Y-105976057D01*
X125674286Y-105976057D02*
X125721905Y-105928438D01*
X125721905Y-105928438D02*
X125817143Y-105880819D01*
X125817143Y-105880819D02*
X126055238Y-105880819D01*
X126055238Y-105880819D02*
X126198095Y-105928438D01*
X126531429Y-105880819D02*
X126769524Y-106880819D01*
X126769524Y-106880819D02*
X126960000Y-106166533D01*
X126960000Y-106166533D02*
X127150476Y-106880819D01*
X127150476Y-106880819D02*
X127388572Y-105880819D01*
X128245714Y-105880819D02*
X127769524Y-105880819D01*
X127769524Y-105880819D02*
X127721905Y-106357009D01*
X127721905Y-106357009D02*
X127769524Y-106309390D01*
X127769524Y-106309390D02*
X127864762Y-106261771D01*
X127864762Y-106261771D02*
X128102857Y-106261771D01*
X128102857Y-106261771D02*
X128198095Y-106309390D01*
X128198095Y-106309390D02*
X128245714Y-106357009D01*
X128245714Y-106357009D02*
X128293333Y-106452247D01*
X128293333Y-106452247D02*
X128293333Y-106690342D01*
X128293333Y-106690342D02*
X128245714Y-106785580D01*
X128245714Y-106785580D02*
X128198095Y-106833200D01*
X128198095Y-106833200D02*
X128102857Y-106880819D01*
X128102857Y-106880819D02*
X127864762Y-106880819D01*
X127864762Y-106880819D02*
X127769524Y-106833200D01*
X127769524Y-106833200D02*
X127721905Y-106785580D01*
X145666667Y-87533200D02*
X145809524Y-87580819D01*
X145809524Y-87580819D02*
X146047619Y-87580819D01*
X146047619Y-87580819D02*
X146142857Y-87533200D01*
X146142857Y-87533200D02*
X146190476Y-87485580D01*
X146190476Y-87485580D02*
X146238095Y-87390342D01*
X146238095Y-87390342D02*
X146238095Y-87295104D01*
X146238095Y-87295104D02*
X146190476Y-87199866D01*
X146190476Y-87199866D02*
X146142857Y-87152247D01*
X146142857Y-87152247D02*
X146047619Y-87104628D01*
X146047619Y-87104628D02*
X145857143Y-87057009D01*
X145857143Y-87057009D02*
X145761905Y-87009390D01*
X145761905Y-87009390D02*
X145714286Y-86961771D01*
X145714286Y-86961771D02*
X145666667Y-86866533D01*
X145666667Y-86866533D02*
X145666667Y-86771295D01*
X145666667Y-86771295D02*
X145714286Y-86676057D01*
X145714286Y-86676057D02*
X145761905Y-86628438D01*
X145761905Y-86628438D02*
X145857143Y-86580819D01*
X145857143Y-86580819D02*
X146095238Y-86580819D01*
X146095238Y-86580819D02*
X146238095Y-86628438D01*
X146571429Y-86580819D02*
X146809524Y-87580819D01*
X146809524Y-87580819D02*
X147000000Y-86866533D01*
X147000000Y-86866533D02*
X147190476Y-87580819D01*
X147190476Y-87580819D02*
X147428572Y-86580819D01*
X147714286Y-86580819D02*
X148380952Y-86580819D01*
X148380952Y-86580819D02*
X147952381Y-87580819D01*
X116591905Y-110984819D02*
X116591905Y-109984819D01*
X116591905Y-109984819D02*
X116830000Y-109984819D01*
X116830000Y-109984819D02*
X116972857Y-110032438D01*
X116972857Y-110032438D02*
X117068095Y-110127676D01*
X117068095Y-110127676D02*
X117115714Y-110222914D01*
X117115714Y-110222914D02*
X117163333Y-110413390D01*
X117163333Y-110413390D02*
X117163333Y-110556247D01*
X117163333Y-110556247D02*
X117115714Y-110746723D01*
X117115714Y-110746723D02*
X117068095Y-110841961D01*
X117068095Y-110841961D02*
X116972857Y-110937200D01*
X116972857Y-110937200D02*
X116830000Y-110984819D01*
X116830000Y-110984819D02*
X116591905Y-110984819D01*
X118068095Y-109984819D02*
X117591905Y-109984819D01*
X117591905Y-109984819D02*
X117544286Y-110461009D01*
X117544286Y-110461009D02*
X117591905Y-110413390D01*
X117591905Y-110413390D02*
X117687143Y-110365771D01*
X117687143Y-110365771D02*
X117925238Y-110365771D01*
X117925238Y-110365771D02*
X118020476Y-110413390D01*
X118020476Y-110413390D02*
X118068095Y-110461009D01*
X118068095Y-110461009D02*
X118115714Y-110556247D01*
X118115714Y-110556247D02*
X118115714Y-110794342D01*
X118115714Y-110794342D02*
X118068095Y-110889580D01*
X118068095Y-110889580D02*
X118020476Y-110937200D01*
X118020476Y-110937200D02*
X117925238Y-110984819D01*
X117925238Y-110984819D02*
X117687143Y-110984819D01*
X117687143Y-110984819D02*
X117591905Y-110937200D01*
X117591905Y-110937200D02*
X117544286Y-110889580D01*
X105746667Y-87533200D02*
X105889524Y-87580819D01*
X105889524Y-87580819D02*
X106127619Y-87580819D01*
X106127619Y-87580819D02*
X106222857Y-87533200D01*
X106222857Y-87533200D02*
X106270476Y-87485580D01*
X106270476Y-87485580D02*
X106318095Y-87390342D01*
X106318095Y-87390342D02*
X106318095Y-87295104D01*
X106318095Y-87295104D02*
X106270476Y-87199866D01*
X106270476Y-87199866D02*
X106222857Y-87152247D01*
X106222857Y-87152247D02*
X106127619Y-87104628D01*
X106127619Y-87104628D02*
X105937143Y-87057009D01*
X105937143Y-87057009D02*
X105841905Y-87009390D01*
X105841905Y-87009390D02*
X105794286Y-86961771D01*
X105794286Y-86961771D02*
X105746667Y-86866533D01*
X105746667Y-86866533D02*
X105746667Y-86771295D01*
X105746667Y-86771295D02*
X105794286Y-86676057D01*
X105794286Y-86676057D02*
X105841905Y-86628438D01*
X105841905Y-86628438D02*
X105937143Y-86580819D01*
X105937143Y-86580819D02*
X106175238Y-86580819D01*
X106175238Y-86580819D02*
X106318095Y-86628438D01*
X106651429Y-86580819D02*
X106889524Y-87580819D01*
X106889524Y-87580819D02*
X107080000Y-86866533D01*
X107080000Y-86866533D02*
X107270476Y-87580819D01*
X107270476Y-87580819D02*
X107508572Y-86580819D01*
X108413333Y-87580819D02*
X107841905Y-87580819D01*
X108127619Y-87580819D02*
X108127619Y-86580819D01*
X108127619Y-86580819D02*
X108032381Y-86723676D01*
X108032381Y-86723676D02*
X107937143Y-86818914D01*
X107937143Y-86818914D02*
X107841905Y-86866533D01*
D12*
X125601905Y-103832219D02*
X125601905Y-102832219D01*
X125601905Y-102832219D02*
X125840000Y-102832219D01*
X125840000Y-102832219D02*
X125982857Y-102879838D01*
X125982857Y-102879838D02*
X126078095Y-102975076D01*
X126078095Y-102975076D02*
X126125714Y-103070314D01*
X126125714Y-103070314D02*
X126173333Y-103260790D01*
X126173333Y-103260790D02*
X126173333Y-103403647D01*
X126173333Y-103403647D02*
X126125714Y-103594123D01*
X126125714Y-103594123D02*
X126078095Y-103689361D01*
X126078095Y-103689361D02*
X125982857Y-103784600D01*
X125982857Y-103784600D02*
X125840000Y-103832219D01*
X125840000Y-103832219D02*
X125601905Y-103832219D01*
X126649524Y-103832219D02*
X126840000Y-103832219D01*
X126840000Y-103832219D02*
X126935238Y-103784600D01*
X126935238Y-103784600D02*
X126982857Y-103736980D01*
X126982857Y-103736980D02*
X127078095Y-103594123D01*
X127078095Y-103594123D02*
X127125714Y-103403647D01*
X127125714Y-103403647D02*
X127125714Y-103022695D01*
X127125714Y-103022695D02*
X127078095Y-102927457D01*
X127078095Y-102927457D02*
X127030476Y-102879838D01*
X127030476Y-102879838D02*
X126935238Y-102832219D01*
X126935238Y-102832219D02*
X126744762Y-102832219D01*
X126744762Y-102832219D02*
X126649524Y-102879838D01*
X126649524Y-102879838D02*
X126601905Y-102927457D01*
X126601905Y-102927457D02*
X126554286Y-103022695D01*
X126554286Y-103022695D02*
X126554286Y-103260790D01*
X126554286Y-103260790D02*
X126601905Y-103356028D01*
X126601905Y-103356028D02*
X126649524Y-103403647D01*
X126649524Y-103403647D02*
X126744762Y-103451266D01*
X126744762Y-103451266D02*
X126935238Y-103451266D01*
X126935238Y-103451266D02*
X127030476Y-103403647D01*
X127030476Y-103403647D02*
X127078095Y-103356028D01*
X127078095Y-103356028D02*
X127125714Y-103260790D01*
D10*
X172261905Y-81154819D02*
X172261905Y-80154819D01*
X172261905Y-80154819D02*
X172500000Y-80154819D01*
X172500000Y-80154819D02*
X172642857Y-80202438D01*
X172642857Y-80202438D02*
X172738095Y-80297676D01*
X172738095Y-80297676D02*
X172785714Y-80392914D01*
X172785714Y-80392914D02*
X172833333Y-80583390D01*
X172833333Y-80583390D02*
X172833333Y-80726247D01*
X172833333Y-80726247D02*
X172785714Y-80916723D01*
X172785714Y-80916723D02*
X172738095Y-81011961D01*
X172738095Y-81011961D02*
X172642857Y-81107200D01*
X172642857Y-81107200D02*
X172500000Y-81154819D01*
X172500000Y-81154819D02*
X172261905Y-81154819D01*
X173166667Y-80154819D02*
X173785714Y-80154819D01*
X173785714Y-80154819D02*
X173452381Y-80535771D01*
X173452381Y-80535771D02*
X173595238Y-80535771D01*
X173595238Y-80535771D02*
X173690476Y-80583390D01*
X173690476Y-80583390D02*
X173738095Y-80631009D01*
X173738095Y-80631009D02*
X173785714Y-80726247D01*
X173785714Y-80726247D02*
X173785714Y-80964342D01*
X173785714Y-80964342D02*
X173738095Y-81059580D01*
X173738095Y-81059580D02*
X173690476Y-81107200D01*
X173690476Y-81107200D02*
X173595238Y-81154819D01*
X173595238Y-81154819D02*
X173309524Y-81154819D01*
X173309524Y-81154819D02*
X173214286Y-81107200D01*
X173214286Y-81107200D02*
X173166667Y-81059580D01*
X98469819Y-70358333D02*
X99184104Y-70358333D01*
X99184104Y-70358333D02*
X99326961Y-70405952D01*
X99326961Y-70405952D02*
X99422200Y-70501190D01*
X99422200Y-70501190D02*
X99469819Y-70644047D01*
X99469819Y-70644047D02*
X99469819Y-70739285D01*
X99469819Y-69358333D02*
X99469819Y-69929761D01*
X99469819Y-69644047D02*
X98469819Y-69644047D01*
X98469819Y-69644047D02*
X98612676Y-69739285D01*
X98612676Y-69739285D02*
X98707914Y-69834523D01*
X98707914Y-69834523D02*
X98755533Y-69929761D01*
X112186428Y-69569819D02*
X112376904Y-69569819D01*
X112376904Y-69569819D02*
X112472142Y-69617438D01*
X112472142Y-69617438D02*
X112567380Y-69712676D01*
X112567380Y-69712676D02*
X112614999Y-69903152D01*
X112614999Y-69903152D02*
X112614999Y-70236485D01*
X112614999Y-70236485D02*
X112567380Y-70426961D01*
X112567380Y-70426961D02*
X112472142Y-70522200D01*
X112472142Y-70522200D02*
X112376904Y-70569819D01*
X112376904Y-70569819D02*
X112186428Y-70569819D01*
X112186428Y-70569819D02*
X112091190Y-70522200D01*
X112091190Y-70522200D02*
X111995952Y-70426961D01*
X111995952Y-70426961D02*
X111948333Y-70236485D01*
X111948333Y-70236485D02*
X111948333Y-69903152D01*
X111948333Y-69903152D02*
X111995952Y-69712676D01*
X111995952Y-69712676D02*
X112091190Y-69617438D01*
X112091190Y-69617438D02*
X112186428Y-69569819D01*
X113519761Y-70569819D02*
X113043571Y-70569819D01*
X113043571Y-70569819D02*
X113043571Y-69569819D01*
X113853095Y-70046009D02*
X114186428Y-70046009D01*
X114329285Y-70569819D02*
X113853095Y-70569819D01*
X113853095Y-70569819D02*
X113853095Y-69569819D01*
X113853095Y-69569819D02*
X114329285Y-69569819D01*
X114757857Y-70569819D02*
X114757857Y-69569819D01*
X114757857Y-69569819D02*
X114995952Y-69569819D01*
X114995952Y-69569819D02*
X115138809Y-69617438D01*
X115138809Y-69617438D02*
X115234047Y-69712676D01*
X115234047Y-69712676D02*
X115281666Y-69807914D01*
X115281666Y-69807914D02*
X115329285Y-69998390D01*
X115329285Y-69998390D02*
X115329285Y-70141247D01*
X115329285Y-70141247D02*
X115281666Y-70331723D01*
X115281666Y-70331723D02*
X115234047Y-70426961D01*
X115234047Y-70426961D02*
X115138809Y-70522200D01*
X115138809Y-70522200D02*
X114995952Y-70569819D01*
X114995952Y-70569819D02*
X114757857Y-70569819D01*
X116519762Y-70569819D02*
X116519762Y-69569819D01*
X116519762Y-69569819D02*
X116900714Y-69569819D01*
X116900714Y-69569819D02*
X116995952Y-69617438D01*
X116995952Y-69617438D02*
X117043571Y-69665057D01*
X117043571Y-69665057D02*
X117091190Y-69760295D01*
X117091190Y-69760295D02*
X117091190Y-69903152D01*
X117091190Y-69903152D02*
X117043571Y-69998390D01*
X117043571Y-69998390D02*
X116995952Y-70046009D01*
X116995952Y-70046009D02*
X116900714Y-70093628D01*
X116900714Y-70093628D02*
X116519762Y-70093628D01*
X117948333Y-70569819D02*
X117948333Y-70046009D01*
X117948333Y-70046009D02*
X117900714Y-69950771D01*
X117900714Y-69950771D02*
X117805476Y-69903152D01*
X117805476Y-69903152D02*
X117615000Y-69903152D01*
X117615000Y-69903152D02*
X117519762Y-69950771D01*
X117948333Y-70522200D02*
X117853095Y-70569819D01*
X117853095Y-70569819D02*
X117615000Y-70569819D01*
X117615000Y-70569819D02*
X117519762Y-70522200D01*
X117519762Y-70522200D02*
X117472143Y-70426961D01*
X117472143Y-70426961D02*
X117472143Y-70331723D01*
X117472143Y-70331723D02*
X117519762Y-70236485D01*
X117519762Y-70236485D02*
X117615000Y-70188866D01*
X117615000Y-70188866D02*
X117853095Y-70188866D01*
X117853095Y-70188866D02*
X117948333Y-70141247D01*
X118424524Y-69903152D02*
X118424524Y-70569819D01*
X118424524Y-69998390D02*
X118472143Y-69950771D01*
X118472143Y-69950771D02*
X118567381Y-69903152D01*
X118567381Y-69903152D02*
X118710238Y-69903152D01*
X118710238Y-69903152D02*
X118805476Y-69950771D01*
X118805476Y-69950771D02*
X118853095Y-70046009D01*
X118853095Y-70046009D02*
X118853095Y-70569819D01*
X119710238Y-70522200D02*
X119615000Y-70569819D01*
X119615000Y-70569819D02*
X119424524Y-70569819D01*
X119424524Y-70569819D02*
X119329286Y-70522200D01*
X119329286Y-70522200D02*
X119281667Y-70426961D01*
X119281667Y-70426961D02*
X119281667Y-70046009D01*
X119281667Y-70046009D02*
X119329286Y-69950771D01*
X119329286Y-69950771D02*
X119424524Y-69903152D01*
X119424524Y-69903152D02*
X119615000Y-69903152D01*
X119615000Y-69903152D02*
X119710238Y-69950771D01*
X119710238Y-69950771D02*
X119757857Y-70046009D01*
X119757857Y-70046009D02*
X119757857Y-70141247D01*
X119757857Y-70141247D02*
X119281667Y-70236485D01*
X120329286Y-70569819D02*
X120234048Y-70522200D01*
X120234048Y-70522200D02*
X120186429Y-70426961D01*
X120186429Y-70426961D02*
X120186429Y-69569819D01*
X132303450Y-74450713D02*
X132339164Y-74343571D01*
X132339164Y-74343571D02*
X132339164Y-74164999D01*
X132339164Y-74164999D02*
X132303450Y-74093571D01*
X132303450Y-74093571D02*
X132267735Y-74057856D01*
X132267735Y-74057856D02*
X132196307Y-74022142D01*
X132196307Y-74022142D02*
X132124878Y-74022142D01*
X132124878Y-74022142D02*
X132053450Y-74057856D01*
X132053450Y-74057856D02*
X132017735Y-74093571D01*
X132017735Y-74093571D02*
X131982021Y-74164999D01*
X131982021Y-74164999D02*
X131946307Y-74307856D01*
X131946307Y-74307856D02*
X131910592Y-74379285D01*
X131910592Y-74379285D02*
X131874878Y-74414999D01*
X131874878Y-74414999D02*
X131803450Y-74450713D01*
X131803450Y-74450713D02*
X131732021Y-74450713D01*
X131732021Y-74450713D02*
X131660592Y-74414999D01*
X131660592Y-74414999D02*
X131624878Y-74379285D01*
X131624878Y-74379285D02*
X131589164Y-74307856D01*
X131589164Y-74307856D02*
X131589164Y-74129285D01*
X131589164Y-74129285D02*
X131624878Y-74022142D01*
X132339164Y-73700713D02*
X131589164Y-73700713D01*
X131589164Y-73700713D02*
X131589164Y-73522142D01*
X131589164Y-73522142D02*
X131624878Y-73414999D01*
X131624878Y-73414999D02*
X131696307Y-73343570D01*
X131696307Y-73343570D02*
X131767735Y-73307856D01*
X131767735Y-73307856D02*
X131910592Y-73272142D01*
X131910592Y-73272142D02*
X132017735Y-73272142D01*
X132017735Y-73272142D02*
X132160592Y-73307856D01*
X132160592Y-73307856D02*
X132232021Y-73343570D01*
X132232021Y-73343570D02*
X132303450Y-73414999D01*
X132303450Y-73414999D02*
X132339164Y-73522142D01*
X132339164Y-73522142D02*
X132339164Y-73700713D01*
X132124878Y-72986427D02*
X132124878Y-72629285D01*
X132339164Y-73057856D02*
X131589164Y-72807856D01*
X131589164Y-72807856D02*
X132339164Y-72557856D01*
D12*
X105465714Y-117642219D02*
X105465714Y-116642219D01*
X105465714Y-116642219D02*
X105703809Y-116642219D01*
X105703809Y-116642219D02*
X105846666Y-116689838D01*
X105846666Y-116689838D02*
X105941904Y-116785076D01*
X105941904Y-116785076D02*
X105989523Y-116880314D01*
X105989523Y-116880314D02*
X106037142Y-117070790D01*
X106037142Y-117070790D02*
X106037142Y-117213647D01*
X106037142Y-117213647D02*
X105989523Y-117404123D01*
X105989523Y-117404123D02*
X105941904Y-117499361D01*
X105941904Y-117499361D02*
X105846666Y-117594600D01*
X105846666Y-117594600D02*
X105703809Y-117642219D01*
X105703809Y-117642219D02*
X105465714Y-117642219D01*
X106989523Y-117642219D02*
X106418095Y-117642219D01*
X106703809Y-117642219D02*
X106703809Y-116642219D01*
X106703809Y-116642219D02*
X106608571Y-116785076D01*
X106608571Y-116785076D02*
X106513333Y-116880314D01*
X106513333Y-116880314D02*
X106418095Y-116927933D01*
X107894285Y-116642219D02*
X107418095Y-116642219D01*
X107418095Y-116642219D02*
X107370476Y-117118409D01*
X107370476Y-117118409D02*
X107418095Y-117070790D01*
X107418095Y-117070790D02*
X107513333Y-117023171D01*
X107513333Y-117023171D02*
X107751428Y-117023171D01*
X107751428Y-117023171D02*
X107846666Y-117070790D01*
X107846666Y-117070790D02*
X107894285Y-117118409D01*
X107894285Y-117118409D02*
X107941904Y-117213647D01*
X107941904Y-117213647D02*
X107941904Y-117451742D01*
X107941904Y-117451742D02*
X107894285Y-117546980D01*
X107894285Y-117546980D02*
X107846666Y-117594600D01*
X107846666Y-117594600D02*
X107751428Y-117642219D01*
X107751428Y-117642219D02*
X107513333Y-117642219D01*
X107513333Y-117642219D02*
X107418095Y-117594600D01*
X107418095Y-117594600D02*
X107370476Y-117546980D01*
D10*
X165666667Y-87533200D02*
X165809524Y-87580819D01*
X165809524Y-87580819D02*
X166047619Y-87580819D01*
X166047619Y-87580819D02*
X166142857Y-87533200D01*
X166142857Y-87533200D02*
X166190476Y-87485580D01*
X166190476Y-87485580D02*
X166238095Y-87390342D01*
X166238095Y-87390342D02*
X166238095Y-87295104D01*
X166238095Y-87295104D02*
X166190476Y-87199866D01*
X166190476Y-87199866D02*
X166142857Y-87152247D01*
X166142857Y-87152247D02*
X166047619Y-87104628D01*
X166047619Y-87104628D02*
X165857143Y-87057009D01*
X165857143Y-87057009D02*
X165761905Y-87009390D01*
X165761905Y-87009390D02*
X165714286Y-86961771D01*
X165714286Y-86961771D02*
X165666667Y-86866533D01*
X165666667Y-86866533D02*
X165666667Y-86771295D01*
X165666667Y-86771295D02*
X165714286Y-86676057D01*
X165714286Y-86676057D02*
X165761905Y-86628438D01*
X165761905Y-86628438D02*
X165857143Y-86580819D01*
X165857143Y-86580819D02*
X166095238Y-86580819D01*
X166095238Y-86580819D02*
X166238095Y-86628438D01*
X166571429Y-86580819D02*
X166809524Y-87580819D01*
X166809524Y-87580819D02*
X167000000Y-86866533D01*
X167000000Y-86866533D02*
X167190476Y-87580819D01*
X167190476Y-87580819D02*
X167428572Y-86580819D01*
X167714286Y-86580819D02*
X168333333Y-86580819D01*
X168333333Y-86580819D02*
X168000000Y-86961771D01*
X168000000Y-86961771D02*
X168142857Y-86961771D01*
X168142857Y-86961771D02*
X168238095Y-87009390D01*
X168238095Y-87009390D02*
X168285714Y-87057009D01*
X168285714Y-87057009D02*
X168333333Y-87152247D01*
X168333333Y-87152247D02*
X168333333Y-87390342D01*
X168333333Y-87390342D02*
X168285714Y-87485580D01*
X168285714Y-87485580D02*
X168238095Y-87533200D01*
X168238095Y-87533200D02*
X168142857Y-87580819D01*
X168142857Y-87580819D02*
X167857143Y-87580819D01*
X167857143Y-87580819D02*
X167761905Y-87533200D01*
X167761905Y-87533200D02*
X167714286Y-87485580D01*
X178694405Y-106524819D02*
X178694405Y-105524819D01*
X178694405Y-105524819D02*
X178932500Y-105524819D01*
X178932500Y-105524819D02*
X179075357Y-105572438D01*
X179075357Y-105572438D02*
X179170595Y-105667676D01*
X179170595Y-105667676D02*
X179218214Y-105762914D01*
X179218214Y-105762914D02*
X179265833Y-105953390D01*
X179265833Y-105953390D02*
X179265833Y-106096247D01*
X179265833Y-106096247D02*
X179218214Y-106286723D01*
X179218214Y-106286723D02*
X179170595Y-106381961D01*
X179170595Y-106381961D02*
X179075357Y-106477200D01*
X179075357Y-106477200D02*
X178932500Y-106524819D01*
X178932500Y-106524819D02*
X178694405Y-106524819D01*
X180122976Y-105524819D02*
X179932500Y-105524819D01*
X179932500Y-105524819D02*
X179837262Y-105572438D01*
X179837262Y-105572438D02*
X179789643Y-105620057D01*
X179789643Y-105620057D02*
X179694405Y-105762914D01*
X179694405Y-105762914D02*
X179646786Y-105953390D01*
X179646786Y-105953390D02*
X179646786Y-106334342D01*
X179646786Y-106334342D02*
X179694405Y-106429580D01*
X179694405Y-106429580D02*
X179742024Y-106477200D01*
X179742024Y-106477200D02*
X179837262Y-106524819D01*
X179837262Y-106524819D02*
X180027738Y-106524819D01*
X180027738Y-106524819D02*
X180122976Y-106477200D01*
X180122976Y-106477200D02*
X180170595Y-106429580D01*
X180170595Y-106429580D02*
X180218214Y-106334342D01*
X180218214Y-106334342D02*
X180218214Y-106096247D01*
X180218214Y-106096247D02*
X180170595Y-106001009D01*
X180170595Y-106001009D02*
X180122976Y-105953390D01*
X180122976Y-105953390D02*
X180027738Y-105905771D01*
X180027738Y-105905771D02*
X179837262Y-105905771D01*
X179837262Y-105905771D02*
X179742024Y-105953390D01*
X179742024Y-105953390D02*
X179694405Y-106001009D01*
X179694405Y-106001009D02*
X179646786Y-106096247D01*
D12*
X104975714Y-103642219D02*
X104975714Y-102642219D01*
X104975714Y-102642219D02*
X105213809Y-102642219D01*
X105213809Y-102642219D02*
X105356666Y-102689838D01*
X105356666Y-102689838D02*
X105451904Y-102785076D01*
X105451904Y-102785076D02*
X105499523Y-102880314D01*
X105499523Y-102880314D02*
X105547142Y-103070790D01*
X105547142Y-103070790D02*
X105547142Y-103213647D01*
X105547142Y-103213647D02*
X105499523Y-103404123D01*
X105499523Y-103404123D02*
X105451904Y-103499361D01*
X105451904Y-103499361D02*
X105356666Y-103594600D01*
X105356666Y-103594600D02*
X105213809Y-103642219D01*
X105213809Y-103642219D02*
X104975714Y-103642219D01*
X106499523Y-103642219D02*
X105928095Y-103642219D01*
X106213809Y-103642219D02*
X106213809Y-102642219D01*
X106213809Y-102642219D02*
X106118571Y-102785076D01*
X106118571Y-102785076D02*
X106023333Y-102880314D01*
X106023333Y-102880314D02*
X105928095Y-102927933D01*
X107451904Y-103642219D02*
X106880476Y-103642219D01*
X107166190Y-103642219D02*
X107166190Y-102642219D01*
X107166190Y-102642219D02*
X107070952Y-102785076D01*
X107070952Y-102785076D02*
X106975714Y-102880314D01*
X106975714Y-102880314D02*
X106880476Y-102927933D01*
D10*
X170666667Y-75404819D02*
X171285714Y-75404819D01*
X171285714Y-75404819D02*
X170952381Y-75785771D01*
X170952381Y-75785771D02*
X171095238Y-75785771D01*
X171095238Y-75785771D02*
X171190476Y-75833390D01*
X171190476Y-75833390D02*
X171238095Y-75881009D01*
X171238095Y-75881009D02*
X171285714Y-75976247D01*
X171285714Y-75976247D02*
X171285714Y-76214342D01*
X171285714Y-76214342D02*
X171238095Y-76309580D01*
X171238095Y-76309580D02*
X171190476Y-76357200D01*
X171190476Y-76357200D02*
X171095238Y-76404819D01*
X171095238Y-76404819D02*
X170809524Y-76404819D01*
X170809524Y-76404819D02*
X170714286Y-76357200D01*
X170714286Y-76357200D02*
X170666667Y-76309580D01*
X171619048Y-75404819D02*
X172238095Y-75404819D01*
X172238095Y-75404819D02*
X171904762Y-75785771D01*
X171904762Y-75785771D02*
X172047619Y-75785771D01*
X172047619Y-75785771D02*
X172142857Y-75833390D01*
X172142857Y-75833390D02*
X172190476Y-75881009D01*
X172190476Y-75881009D02*
X172238095Y-75976247D01*
X172238095Y-75976247D02*
X172238095Y-76214342D01*
X172238095Y-76214342D02*
X172190476Y-76309580D01*
X172190476Y-76309580D02*
X172142857Y-76357200D01*
X172142857Y-76357200D02*
X172047619Y-76404819D01*
X172047619Y-76404819D02*
X171761905Y-76404819D01*
X171761905Y-76404819D02*
X171666667Y-76357200D01*
X171666667Y-76357200D02*
X171619048Y-76309580D01*
X172857143Y-75404819D02*
X172952381Y-75404819D01*
X172952381Y-75404819D02*
X173047619Y-75452438D01*
X173047619Y-75452438D02*
X173095238Y-75500057D01*
X173095238Y-75500057D02*
X173142857Y-75595295D01*
X173142857Y-75595295D02*
X173190476Y-75785771D01*
X173190476Y-75785771D02*
X173190476Y-76023866D01*
X173190476Y-76023866D02*
X173142857Y-76214342D01*
X173142857Y-76214342D02*
X173095238Y-76309580D01*
X173095238Y-76309580D02*
X173047619Y-76357200D01*
X173047619Y-76357200D02*
X172952381Y-76404819D01*
X172952381Y-76404819D02*
X172857143Y-76404819D01*
X172857143Y-76404819D02*
X172761905Y-76357200D01*
X172761905Y-76357200D02*
X172714286Y-76309580D01*
X172714286Y-76309580D02*
X172666667Y-76214342D01*
X172666667Y-76214342D02*
X172619048Y-76023866D01*
X172619048Y-76023866D02*
X172619048Y-75785771D01*
X172619048Y-75785771D02*
X172666667Y-75595295D01*
X172666667Y-75595295D02*
X172714286Y-75500057D01*
X172714286Y-75500057D02*
X172761905Y-75452438D01*
X172761905Y-75452438D02*
X172857143Y-75404819D01*
X173761905Y-76404819D02*
X173666667Y-76357200D01*
X173666667Y-76357200D02*
X173619048Y-76309580D01*
X173619048Y-76309580D02*
X173571429Y-76214342D01*
X173571429Y-76214342D02*
X173571429Y-75928628D01*
X173571429Y-75928628D02*
X173619048Y-75833390D01*
X173619048Y-75833390D02*
X173666667Y-75785771D01*
X173666667Y-75785771D02*
X173761905Y-75738152D01*
X173761905Y-75738152D02*
X173904762Y-75738152D01*
X173904762Y-75738152D02*
X174000000Y-75785771D01*
X174000000Y-75785771D02*
X174047619Y-75833390D01*
X174047619Y-75833390D02*
X174095238Y-75928628D01*
X174095238Y-75928628D02*
X174095238Y-76214342D01*
X174095238Y-76214342D02*
X174047619Y-76309580D01*
X174047619Y-76309580D02*
X174000000Y-76357200D01*
X174000000Y-76357200D02*
X173904762Y-76404819D01*
X173904762Y-76404819D02*
X173761905Y-76404819D01*
X174523810Y-76404819D02*
X174523810Y-75404819D01*
X174952381Y-76404819D02*
X174952381Y-75881009D01*
X174952381Y-75881009D02*
X174904762Y-75785771D01*
X174904762Y-75785771D02*
X174809524Y-75738152D01*
X174809524Y-75738152D02*
X174666667Y-75738152D01*
X174666667Y-75738152D02*
X174571429Y-75785771D01*
X174571429Y-75785771D02*
X174523810Y-75833390D01*
X175428572Y-76404819D02*
X175428572Y-75738152D01*
X175428572Y-75833390D02*
X175476191Y-75785771D01*
X175476191Y-75785771D02*
X175571429Y-75738152D01*
X175571429Y-75738152D02*
X175714286Y-75738152D01*
X175714286Y-75738152D02*
X175809524Y-75785771D01*
X175809524Y-75785771D02*
X175857143Y-75881009D01*
X175857143Y-75881009D02*
X175857143Y-76404819D01*
X175857143Y-75881009D02*
X175904762Y-75785771D01*
X175904762Y-75785771D02*
X176000000Y-75738152D01*
X176000000Y-75738152D02*
X176142857Y-75738152D01*
X176142857Y-75738152D02*
X176238096Y-75785771D01*
X176238096Y-75785771D02*
X176285715Y-75881009D01*
X176285715Y-75881009D02*
X176285715Y-76404819D01*
X177285714Y-76404819D02*
X176714286Y-76404819D01*
X177000000Y-76404819D02*
X177000000Y-75404819D01*
X177000000Y-75404819D02*
X176904762Y-75547676D01*
X176904762Y-75547676D02*
X176809524Y-75642914D01*
X176809524Y-75642914D02*
X176714286Y-75690533D01*
X116411905Y-117264819D02*
X116411905Y-116264819D01*
X116411905Y-116264819D02*
X116650000Y-116264819D01*
X116650000Y-116264819D02*
X116792857Y-116312438D01*
X116792857Y-116312438D02*
X116888095Y-116407676D01*
X116888095Y-116407676D02*
X116935714Y-116502914D01*
X116935714Y-116502914D02*
X116983333Y-116693390D01*
X116983333Y-116693390D02*
X116983333Y-116836247D01*
X116983333Y-116836247D02*
X116935714Y-117026723D01*
X116935714Y-117026723D02*
X116888095Y-117121961D01*
X116888095Y-117121961D02*
X116792857Y-117217200D01*
X116792857Y-117217200D02*
X116650000Y-117264819D01*
X116650000Y-117264819D02*
X116411905Y-117264819D01*
X117364286Y-116360057D02*
X117411905Y-116312438D01*
X117411905Y-116312438D02*
X117507143Y-116264819D01*
X117507143Y-116264819D02*
X117745238Y-116264819D01*
X117745238Y-116264819D02*
X117840476Y-116312438D01*
X117840476Y-116312438D02*
X117888095Y-116360057D01*
X117888095Y-116360057D02*
X117935714Y-116455295D01*
X117935714Y-116455295D02*
X117935714Y-116550533D01*
X117935714Y-116550533D02*
X117888095Y-116693390D01*
X117888095Y-116693390D02*
X117316667Y-117264819D01*
X117316667Y-117264819D02*
X117935714Y-117264819D01*
X125586667Y-87533200D02*
X125729524Y-87580819D01*
X125729524Y-87580819D02*
X125967619Y-87580819D01*
X125967619Y-87580819D02*
X126062857Y-87533200D01*
X126062857Y-87533200D02*
X126110476Y-87485580D01*
X126110476Y-87485580D02*
X126158095Y-87390342D01*
X126158095Y-87390342D02*
X126158095Y-87295104D01*
X126158095Y-87295104D02*
X126110476Y-87199866D01*
X126110476Y-87199866D02*
X126062857Y-87152247D01*
X126062857Y-87152247D02*
X125967619Y-87104628D01*
X125967619Y-87104628D02*
X125777143Y-87057009D01*
X125777143Y-87057009D02*
X125681905Y-87009390D01*
X125681905Y-87009390D02*
X125634286Y-86961771D01*
X125634286Y-86961771D02*
X125586667Y-86866533D01*
X125586667Y-86866533D02*
X125586667Y-86771295D01*
X125586667Y-86771295D02*
X125634286Y-86676057D01*
X125634286Y-86676057D02*
X125681905Y-86628438D01*
X125681905Y-86628438D02*
X125777143Y-86580819D01*
X125777143Y-86580819D02*
X126015238Y-86580819D01*
X126015238Y-86580819D02*
X126158095Y-86628438D01*
X126491429Y-86580819D02*
X126729524Y-87580819D01*
X126729524Y-87580819D02*
X126920000Y-86866533D01*
X126920000Y-86866533D02*
X127110476Y-87580819D01*
X127110476Y-87580819D02*
X127348572Y-86580819D01*
X128158095Y-86914152D02*
X128158095Y-87580819D01*
X127920000Y-86533200D02*
X127681905Y-87247485D01*
X127681905Y-87247485D02*
X128300952Y-87247485D01*
X165606667Y-106903200D02*
X165749524Y-106950819D01*
X165749524Y-106950819D02*
X165987619Y-106950819D01*
X165987619Y-106950819D02*
X166082857Y-106903200D01*
X166082857Y-106903200D02*
X166130476Y-106855580D01*
X166130476Y-106855580D02*
X166178095Y-106760342D01*
X166178095Y-106760342D02*
X166178095Y-106665104D01*
X166178095Y-106665104D02*
X166130476Y-106569866D01*
X166130476Y-106569866D02*
X166082857Y-106522247D01*
X166082857Y-106522247D02*
X165987619Y-106474628D01*
X165987619Y-106474628D02*
X165797143Y-106427009D01*
X165797143Y-106427009D02*
X165701905Y-106379390D01*
X165701905Y-106379390D02*
X165654286Y-106331771D01*
X165654286Y-106331771D02*
X165606667Y-106236533D01*
X165606667Y-106236533D02*
X165606667Y-106141295D01*
X165606667Y-106141295D02*
X165654286Y-106046057D01*
X165654286Y-106046057D02*
X165701905Y-105998438D01*
X165701905Y-105998438D02*
X165797143Y-105950819D01*
X165797143Y-105950819D02*
X166035238Y-105950819D01*
X166035238Y-105950819D02*
X166178095Y-105998438D01*
X166511429Y-105950819D02*
X166749524Y-106950819D01*
X166749524Y-106950819D02*
X166940000Y-106236533D01*
X166940000Y-106236533D02*
X167130476Y-106950819D01*
X167130476Y-106950819D02*
X167368572Y-105950819D01*
X168178095Y-105950819D02*
X167987619Y-105950819D01*
X167987619Y-105950819D02*
X167892381Y-105998438D01*
X167892381Y-105998438D02*
X167844762Y-106046057D01*
X167844762Y-106046057D02*
X167749524Y-106188914D01*
X167749524Y-106188914D02*
X167701905Y-106379390D01*
X167701905Y-106379390D02*
X167701905Y-106760342D01*
X167701905Y-106760342D02*
X167749524Y-106855580D01*
X167749524Y-106855580D02*
X167797143Y-106903200D01*
X167797143Y-106903200D02*
X167892381Y-106950819D01*
X167892381Y-106950819D02*
X168082857Y-106950819D01*
X168082857Y-106950819D02*
X168178095Y-106903200D01*
X168178095Y-106903200D02*
X168225714Y-106855580D01*
X168225714Y-106855580D02*
X168273333Y-106760342D01*
X168273333Y-106760342D02*
X168273333Y-106522247D01*
X168273333Y-106522247D02*
X168225714Y-106427009D01*
X168225714Y-106427009D02*
X168178095Y-106379390D01*
X168178095Y-106379390D02*
X168082857Y-106331771D01*
X168082857Y-106331771D02*
X167892381Y-106331771D01*
X167892381Y-106331771D02*
X167797143Y-106379390D01*
X167797143Y-106379390D02*
X167749524Y-106427009D01*
X167749524Y-106427009D02*
X167701905Y-106522247D01*
D13*
%TO.C,D4*%
X126040000Y-81400000D02*
X126040000Y-82600000D01*
X128000000Y-81400000D02*
X126040000Y-81400000D01*
X128000000Y-82600000D02*
X126040000Y-82600000D01*
D14*
%TO.C,U1*%
X144725000Y-63960000D02*
X144725000Y-80960000D01*
X146725000Y-82960000D02*
X160525000Y-82960000D01*
X149125000Y-60535970D02*
X158125000Y-60535970D01*
X149125000Y-67889270D02*
X149125000Y-60535970D01*
X158125000Y-60535970D02*
X158125000Y-67889270D01*
X158125000Y-67889270D02*
X149125000Y-67889270D01*
X160525000Y-61960910D02*
X146725000Y-61960910D01*
X162525000Y-80960000D02*
X162525000Y-63960000D01*
D13*
X144725000Y-63960000D02*
G75*
G02*
X146725000Y-61960000I2044612J-44612D01*
G01*
X146725000Y-82960000D02*
G75*
G02*
X144725000Y-80960000I44857J2044857D01*
G01*
X160525000Y-61960000D02*
G75*
G02*
X162525000Y-63960000I-44610J-2044610D01*
G01*
X162525000Y-80960000D02*
G75*
G02*
X160525000Y-82960000I-2000000J0D01*
G01*
D15*
X142752000Y-63660000D02*
G75*
G02*
X142498000Y-63660000I-127000J0D01*
G01*
X142498000Y-63660000D02*
G75*
G02*
X142752000Y-63660000I127000J0D01*
G01*
D16*
X144737285Y-63898295D02*
X144740333Y-63849527D01*
X144744397Y-63800506D01*
X144737285Y-63898295D01*
X162512713Y-81030850D02*
X162509665Y-81079618D01*
X162505601Y-81128639D01*
X162500268Y-81177407D01*
X162493664Y-81226175D01*
X162486044Y-81274690D01*
X162477153Y-81322950D01*
X162467248Y-81370955D01*
X162514492Y-80981574D01*
X162512713Y-81030850D01*
D13*
%TO.C,D1*%
X106740000Y-79400000D02*
X106740000Y-80600000D01*
X108700000Y-79400000D02*
X106740000Y-79400000D01*
X108700000Y-80600000D02*
X106740000Y-80600000D01*
%TO.C,SW9*%
X181450000Y-90900000D02*
X182050000Y-90900000D01*
X181750000Y-91200000D02*
X181450000Y-90900000D01*
X182050000Y-90900000D02*
X181750000Y-91200000D01*
X183150000Y-89100000D02*
X183150000Y-100900000D01*
X187250000Y-89100000D02*
X183150000Y-89100000D01*
X187250000Y-100900000D02*
X183150000Y-100900000D01*
X188750000Y-95000000D02*
X189750000Y-95000000D01*
X189250000Y-94500000D02*
X189250000Y-95500000D01*
X191250000Y-89100000D02*
X195350000Y-89100000D01*
X195350000Y-89100000D02*
X195350000Y-91500000D01*
X195350000Y-93700000D02*
X195350000Y-96300000D01*
X195350000Y-98500000D02*
X195350000Y-100900000D01*
X195350000Y-100900000D02*
X191250000Y-100900000D01*
X192250000Y-95000000D02*
G75*
G02*
X186250000Y-95000000I-3000000J0D01*
G01*
X186250000Y-95000000D02*
G75*
G02*
X192250000Y-95000000I3000000J0D01*
G01*
%TO.C,SW2*%
X100085000Y-107305000D02*
X114055000Y-107305000D01*
X100085000Y-121275000D02*
X100085000Y-107305000D01*
X114055000Y-107305000D02*
X114055000Y-121275000D01*
X114055000Y-121275000D02*
X100085000Y-121275000D01*
%TO.C,D8*%
X135630000Y-114990000D02*
X135630000Y-116190000D01*
X137590000Y-114990000D02*
X135630000Y-114990000D01*
X137590000Y-116190000D02*
X135630000Y-116190000D01*
%TO.C,D7*%
X140440000Y-82400000D02*
X140440000Y-83600000D01*
X142400000Y-82400000D02*
X140440000Y-82400000D01*
X142400000Y-83600000D02*
X140440000Y-83600000D01*
%TO.C,SW8*%
X140085000Y-107385000D02*
X154055000Y-107385000D01*
X140085000Y-121355000D02*
X140085000Y-107385000D01*
X154055000Y-107385000D02*
X154055000Y-121355000D01*
X154055000Y-121355000D02*
X140085000Y-121355000D01*
%TO.C,SW5*%
X119975000Y-107315000D02*
X133945000Y-107315000D01*
X119975000Y-121285000D02*
X119975000Y-107315000D01*
X133945000Y-107315000D02*
X133945000Y-121285000D01*
X133945000Y-121285000D02*
X119975000Y-121285000D01*
%TO.C,SW7*%
X140015000Y-88015000D02*
X153985000Y-88015000D01*
X140015000Y-101985000D02*
X140015000Y-88015000D01*
X153985000Y-88015000D02*
X153985000Y-101985000D01*
X153985000Y-101985000D02*
X140015000Y-101985000D01*
%TO.C,D5*%
X116070000Y-111230000D02*
X116070000Y-112430000D01*
X118030000Y-111230000D02*
X116070000Y-111230000D01*
X118030000Y-112430000D02*
X116070000Y-112430000D01*
%TO.C,SW1*%
X100095000Y-88015000D02*
X114065000Y-88015000D01*
X100095000Y-101985000D02*
X100095000Y-88015000D01*
X114065000Y-88015000D02*
X114065000Y-101985000D01*
X114065000Y-101985000D02*
X100095000Y-101985000D01*
%TO.C,D3*%
X171740000Y-81400000D02*
X171740000Y-82600000D01*
X173700000Y-81400000D02*
X171740000Y-81400000D01*
X173700000Y-82600000D02*
X171740000Y-82600000D01*
D17*
%TO.C,J1*%
X97115000Y-64115000D02*
X97115000Y-76115000D01*
X97115000Y-76115000D02*
X135115000Y-76115000D01*
X100615000Y-64115000D02*
X100615000Y-76115000D01*
X130115000Y-64115000D02*
X130115000Y-76115000D01*
X135115000Y-64115000D02*
X97115000Y-64115000D01*
X135115000Y-76115000D02*
X135115000Y-64115000D01*
D13*
%TO.C,SW3*%
X160015000Y-88015000D02*
X173985000Y-88015000D01*
X160015000Y-101985000D02*
X160015000Y-88015000D01*
X173985000Y-88015000D02*
X173985000Y-101985000D01*
X173985000Y-101985000D02*
X160015000Y-101985000D01*
%TO.C,D6*%
X178732500Y-104170000D02*
X180692500Y-104170000D01*
X178732500Y-105370000D02*
X180692500Y-105370000D01*
X180692500Y-105370000D02*
X180692500Y-104170000D01*
%TO.C,D2*%
X115890000Y-117510000D02*
X115890000Y-118710000D01*
X117850000Y-117510000D02*
X115890000Y-117510000D01*
X117850000Y-118710000D02*
X115890000Y-118710000D01*
%TO.C,SW4*%
X119935000Y-88015000D02*
X133905000Y-88015000D01*
X119935000Y-101985000D02*
X119935000Y-88015000D01*
X133905000Y-88015000D02*
X133905000Y-101985000D01*
X133905000Y-101985000D02*
X119935000Y-101985000D01*
%TO.C,SW6*%
X159955000Y-107385000D02*
X173925000Y-107385000D01*
X159955000Y-121355000D02*
X159955000Y-107385000D01*
X173925000Y-107385000D02*
X173925000Y-121355000D01*
X173925000Y-121355000D02*
X159955000Y-121355000D01*
%TD*%
M02*
