%TF.GenerationSoftware,KiCad,Pcbnew,9.0.7*%
%TF.CreationDate,2026-03-09T18:07:53+05:30*%
%TF.ProjectId,hackpad,6861636b-7061-4642-9e6b-696361645f70,rev?*%
%TF.SameCoordinates,Original*%
%TF.FileFunction,Copper,L2,Bot*%
%TF.FilePolarity,Positive*%
%FSLAX46Y46*%
G04 Gerber Fmt 4.6, Leading zero omitted, Abs format (unit mm)*
G04 Created by KiCad (PCBNEW 9.0.7) date 2026-03-09 18:07:53*
%MOMM*%
%LPD*%
G01*
G04 APERTURE LIST*
G04 Aperture macros list*
%AMRoundRect*
0 Rectangle with rounded corners*
0 $1 Rounding radius*
0 $2 $3 $4 $5 $6 $7 $8 $9 X,Y pos of 4 corners*
0 Add a 4 corners polygon primitive as box body*
4,1,4,$2,$3,$4,$5,$6,$7,$8,$9,$2,$3,0*
0 Add four circle primitives for the rounded corners*
1,1,$1+$1,$2,$3*
1,1,$1+$1,$4,$5*
1,1,$1+$1,$6,$7*
1,1,$1+$1,$8,$9*
0 Add four rect primitives between the rounded corners*
20,1,$1+$1,$2,$3,$4,$5,0*
20,1,$1+$1,$4,$5,$6,$7,0*
20,1,$1+$1,$6,$7,$8,$9,0*
20,1,$1+$1,$8,$9,$2,$3,0*%
G04 Aperture macros list end*
%TA.AperFunction,ComponentPad*%
%ADD10R,3.500000X1.700000*%
%TD*%
%TA.AperFunction,ComponentPad*%
%ADD11O,3.600000X1.700000*%
%TD*%
%TA.AperFunction,ComponentPad*%
%ADD12O,3.700000X1.700000*%
%TD*%
%TA.AperFunction,ComponentPad*%
%ADD13R,2.000000X2.000000*%
%TD*%
%TA.AperFunction,ComponentPad*%
%ADD14C,2.000000*%
%TD*%
%TA.AperFunction,ComponentPad*%
%ADD15R,3.200000X2.000000*%
%TD*%
%TA.AperFunction,SMDPad,CuDef*%
%ADD16RoundRect,0.082000X-0.718000X0.328000X-0.718000X-0.328000X0.718000X-0.328000X0.718000X0.328000X0*%
%TD*%
%TA.AperFunction,ComponentPad*%
%ADD17C,2.200000*%
%TD*%
%TA.AperFunction,SMDPad,CuDef*%
%ADD18RoundRect,0.082000X0.718000X-0.328000X0.718000X0.328000X-0.718000X0.328000X-0.718000X-0.328000X0*%
%TD*%
%TA.AperFunction,ComponentPad*%
%ADD19R,1.700000X1.700000*%
%TD*%
%TA.AperFunction,ComponentPad*%
%ADD20O,1.700000X1.700000*%
%TD*%
%TA.AperFunction,ViaPad*%
%ADD21C,0.609600*%
%TD*%
%TA.AperFunction,Conductor*%
%ADD22C,0.254000*%
%TD*%
G04 APERTURE END LIST*
D10*
%TO.P,U1,1,PA02_A0_D0*%
%TO.N,LED_PIN*%
X145000000Y-64840000D03*
D11*
%TO.P,U1,2,PA4_A1_D1*%
%TO.N,COL2*%
X145000000Y-67380000D03*
%TO.P,U1,3,PA10_A2_D2*%
%TO.N,COL3*%
X145000000Y-69920000D03*
%TO.P,U1,4,PA11_A3_D3*%
%TO.N,d3*%
X145000000Y-72460000D03*
%TO.P,U1,5,PA8_A4_D4_SDA*%
%TO.N,Oled_SDA*%
X145000000Y-75000000D03*
%TO.P,U1,6,PA9_A5_D5_SCL*%
%TO.N,Oled_SCK*%
X145000000Y-77540000D03*
%TO.P,U1,7,PB08_A6_D6_TX*%
%TO.N,d6*%
X145000000Y-80080000D03*
%TO.P,U1,8,PB09_A7_D7_RX*%
%TO.N,COL1*%
X162250000Y-80080000D03*
%TO.P,U1,9,PA7_A8_D8_SCK*%
%TO.N,COL4*%
X162250000Y-77540000D03*
%TO.P,U1,10,PA5_A9_D9_MISO*%
%TO.N,ROW2*%
X162250000Y-75000000D03*
D12*
%TO.P,U1,11,PA6_A10_D10_MOSI*%
%TO.N,ROW1*%
X162250000Y-72460000D03*
%TO.P,U1,12,3V3*%
%TO.N,+3.3V*%
X162250000Y-69920000D03*
%TO.P,U1,13,GND*%
%TO.N,GND*%
X162250000Y-67380000D03*
%TO.P,U1,14,5V*%
%TO.N,+5V*%
X162250000Y-64840000D03*
%TD*%
D13*
%TO.P,SW9,A,A*%
%TO.N,d6*%
X181750000Y-92500000D03*
D14*
%TO.P,SW9,B,B*%
%TO.N,d3*%
X181750000Y-97500000D03*
%TO.P,SW9,C,C*%
%TO.N,GND*%
X181750000Y-95000000D03*
D15*
%TO.P,SW9,MP*%
%TO.N,N/C*%
X189250000Y-89400000D03*
X189250000Y-100600000D03*
D14*
%TO.P,SW9,S1,S1*%
%TO.N,ROW2*%
X196250000Y-97500000D03*
%TO.P,SW9,S2,S2*%
%TO.N,COL4*%
X196250000Y-92500000D03*
%TD*%
D16*
%TO.P,D16,1,VDD*%
%TO.N,+5V*%
X144520001Y-119247158D03*
%TO.P,D16,2,DOUT*%
%TO.N,Net-(D16-DOUT)*%
X144520001Y-120747158D03*
%TO.P,D16,3,VSS*%
%TO.N,GND*%
X149720001Y-120747158D03*
%TO.P,D16,4,DIN*%
%TO.N,Net-(D13-DOUT)*%
X149720001Y-119247158D03*
%TD*%
%TO.P,D12,1,VDD*%
%TO.N,+5V*%
X164450001Y-99017158D03*
%TO.P,D12,2,DOUT*%
%TO.N,Net-(D12-DOUT)*%
X164450001Y-100517158D03*
%TO.P,D12,3,VSS*%
%TO.N,GND*%
X169650001Y-100517158D03*
%TO.P,D12,4,DIN*%
%TO.N,Net-(D10-DOUT)*%
X169650001Y-99017158D03*
%TD*%
D17*
%TO.P,SW2,1,1*%
%TO.N,COL1*%
X109610000Y-109210000D03*
%TO.P,SW2,2,2*%
%TO.N,Net-(D2-A)*%
X103260000Y-111750000D03*
%TD*%
D16*
%TO.P,D17,1,VDD*%
%TO.N,+5V*%
X124550001Y-119597158D03*
%TO.P,D17,2,DOUT*%
%TO.N,DOUT*%
X124550001Y-121097158D03*
%TO.P,D17,3,VSS*%
%TO.N,GND*%
X129750001Y-121097158D03*
%TO.P,D17,4,DIN*%
%TO.N,Net-(D16-DOUT)*%
X129750001Y-119597158D03*
%TD*%
%TO.P,D13,1,VDD*%
%TO.N,+5V*%
X164320001Y-119247158D03*
%TO.P,D13,2,DOUT*%
%TO.N,Net-(D13-DOUT)*%
X164320001Y-120747158D03*
%TO.P,D13,3,VSS*%
%TO.N,GND*%
X169520001Y-120747158D03*
%TO.P,D13,4,DIN*%
%TO.N,Net-(D12-DOUT)*%
X169520001Y-119247158D03*
%TD*%
D18*
%TO.P,D10,1,VDD*%
%TO.N,+5V*%
X192192500Y-106970000D03*
%TO.P,D10,2,DOUT*%
%TO.N,Net-(D10-DOUT)*%
X192192500Y-105470000D03*
%TO.P,D10,3,VSS*%
%TO.N,GND*%
X186992500Y-105470000D03*
%TO.P,D10,4,DIN*%
%TO.N,Net-(D10-DIN)*%
X186992500Y-106970000D03*
%TD*%
%TO.P,D14,1,VDD*%
%TO.N,+5V*%
X149442500Y-100380000D03*
%TO.P,D14,2,DOUT*%
%TO.N,Net-(D14-DOUT)*%
X149442500Y-98880000D03*
%TO.P,D14,3,VSS*%
%TO.N,GND*%
X144242500Y-98880000D03*
%TO.P,D14,4,DIN*%
%TO.N,Net-(D14-DIN)*%
X144242500Y-100380000D03*
%TD*%
D17*
%TO.P,SW8,1,1*%
%TO.N,COL3*%
X149610000Y-109290000D03*
%TO.P,SW8,2,2*%
%TO.N,Net-(D8-A)*%
X143260000Y-111830000D03*
%TD*%
%TO.P,SW5,1,1*%
%TO.N,COL2*%
X129500000Y-109220000D03*
%TO.P,SW5,2,2*%
%TO.N,Net-(D5-A)*%
X123150000Y-111760000D03*
%TD*%
%TO.P,SW7,1,1*%
%TO.N,COL3*%
X149540000Y-89920000D03*
%TO.P,SW7,2,2*%
%TO.N,Net-(D7-A)*%
X143190000Y-92460000D03*
%TD*%
%TO.P,SW1,1,1*%
%TO.N,Net-(D1-A)*%
X109620000Y-89920000D03*
%TO.P,SW1,2,2*%
%TO.N,COL1*%
X103270000Y-92460000D03*
%TD*%
D18*
%TO.P,D9,1,VDD*%
%TO.N,+5V*%
X129539999Y-101132842D03*
%TO.P,D9,2,DOUT*%
%TO.N,Net-(D14-DIN)*%
X129539999Y-99632842D03*
%TO.P,D9,3,VSS*%
%TO.N,GND*%
X124339999Y-99632842D03*
%TO.P,D9,4,DIN*%
%TO.N,Net-(D11-DOUT)*%
X124339999Y-101132842D03*
%TD*%
D19*
%TO.P,J1,1,Pin_1*%
%TO.N,GND*%
X133615000Y-66305000D03*
D20*
%TO.P,J1,2,Pin_2*%
%TO.N,+3.3V*%
X133615000Y-68845000D03*
%TO.P,J1,3,Pin_3*%
%TO.N,Oled_SCK*%
X133615000Y-71385000D03*
%TO.P,J1,4,Pin_4*%
%TO.N,Oled_SDA*%
X133615000Y-73925000D03*
%TD*%
D16*
%TO.P,D15,1,VDD*%
%TO.N,+5V*%
X103480001Y-119437158D03*
%TO.P,D15,2,DOUT*%
%TO.N,unconnected-(D15-DOUT-Pad2)*%
X103480001Y-120937158D03*
%TO.P,D15,3,VSS*%
%TO.N,GND*%
X108680001Y-120937158D03*
%TO.P,D15,4,DIN*%
%TO.N,Net-(D14-DOUT)*%
X108680001Y-119437158D03*
%TD*%
D17*
%TO.P,SW3,1,1*%
%TO.N,COL4*%
X169540000Y-89920000D03*
%TO.P,SW3,2,2*%
%TO.N,Net-(D3-A)*%
X163190000Y-92460000D03*
%TD*%
D18*
%TO.P,D11,1,VDD*%
%TO.N,+5V*%
X109389999Y-100942842D03*
%TO.P,D11,2,DOUT*%
%TO.N,Net-(D11-DOUT)*%
X109389999Y-99442842D03*
%TO.P,D11,3,VSS*%
%TO.N,GND*%
X104189999Y-99442842D03*
%TO.P,D11,4,DIN*%
%TO.N,DOUT*%
X104189999Y-100942842D03*
%TD*%
D17*
%TO.P,SW4,1,1*%
%TO.N,COL2*%
X129460000Y-89920000D03*
%TO.P,SW4,2,2*%
%TO.N,Net-(D4-A)*%
X123110000Y-92460000D03*
%TD*%
%TO.P,SW6,1,1*%
%TO.N,COL4*%
X169480000Y-109290000D03*
%TO.P,SW6,2,2*%
%TO.N,Net-(D6-A)*%
X163130000Y-111830000D03*
%TD*%
D21*
%TO.N,Net-(D10-DIN)*%
X186992500Y-106970000D03*
%TO.N,ROW1*%
X140730000Y-84690000D03*
%TO.N,GND*%
X115240000Y-98380000D03*
X110536841Y-110395494D03*
%TO.N,+5V*%
X164320001Y-119247158D03*
X194340000Y-105040000D03*
%TD*%
D22*
%TO.N,ROW1*%
X161250000Y-72460000D02*
X149020000Y-84690000D01*
X149020000Y-84690000D02*
X140730000Y-84690000D01*
%TO.N,Net-(D11-DOUT)*%
X109389999Y-99442842D02*
X122649999Y-99442842D01*
X122649999Y-99442842D02*
X124339999Y-101132842D01*
%TO.N,GND*%
X129880000Y-123360000D02*
X129750001Y-123230001D01*
X104800000Y-98832841D02*
X104189999Y-99442842D01*
X161517158Y-120747158D02*
X166740000Y-125970000D01*
X192525598Y-108123580D02*
X182143580Y-108123580D01*
X136695000Y-66305000D02*
X133615000Y-66305000D01*
X186992500Y-105470000D02*
X184797159Y-105470000D01*
X113250000Y-113108653D02*
X110536841Y-110395494D01*
X144242500Y-98607999D02*
X144242500Y-98880000D01*
X156870000Y-63000000D02*
X140000000Y-63000000D01*
X129750001Y-123230001D02*
X147237158Y-123230001D01*
X161250000Y-67380000D02*
X156870000Y-63000000D01*
X111102843Y-123360000D02*
X113250000Y-123360000D01*
X113250000Y-123360000D02*
X129880000Y-123360000D01*
X182243580Y-108023580D02*
X169520001Y-120747158D01*
X197478000Y-103171178D02*
X192525598Y-108123580D01*
X143894501Y-98260000D02*
X144242500Y-98607999D01*
X181750000Y-95000000D02*
X164328000Y-77578000D01*
X129750001Y-123230001D02*
X129750001Y-121097158D01*
X164328000Y-69473478D02*
X162234522Y-67380000D01*
X197478000Y-88038000D02*
X197478000Y-103171178D01*
X164328000Y-77578000D02*
X164328000Y-69473478D01*
X125712841Y-98260000D02*
X143894501Y-98260000D01*
X166740000Y-125970000D02*
X166740000Y-123527159D01*
X182143580Y-108123580D02*
X177256423Y-108123580D01*
X149720001Y-120747158D02*
X161517158Y-120747158D01*
X176018478Y-66578478D02*
X197478000Y-88038000D01*
X182243580Y-108023580D02*
X182143580Y-108123580D01*
X123087157Y-98380000D02*
X124339999Y-99632842D01*
X113250000Y-123360000D02*
X113250000Y-113108653D01*
X161250000Y-67380000D02*
X162051522Y-66578478D01*
X108680001Y-120937158D02*
X111102843Y-123360000D01*
X115240000Y-98380000D02*
X123087157Y-98380000D01*
X147237158Y-123230001D02*
X149720001Y-120747158D01*
X124339999Y-99632842D02*
X125712841Y-98260000D01*
X162234522Y-67380000D02*
X161250000Y-67380000D01*
X184797159Y-105470000D02*
X182243580Y-108023580D01*
X140000000Y-63000000D02*
X136695000Y-66305000D01*
X104800000Y-98832841D02*
X104800000Y-98380000D01*
X177256423Y-108123580D02*
X169650001Y-100517158D01*
X162051522Y-66578478D02*
X176018478Y-66578478D01*
X104800000Y-98380000D02*
X115240000Y-98380000D01*
X166740000Y-123527159D02*
X169520001Y-120747158D01*
%TO.N,Net-(D14-DIN)*%
X143495342Y-99632842D02*
X144242500Y-100380000D01*
X129539999Y-99632842D02*
X143495342Y-99632842D01*
%TO.N,+5V*%
X109389999Y-100942842D02*
X109389999Y-104437156D01*
X100840000Y-116797157D02*
X100840000Y-100804117D01*
X129539999Y-101132842D02*
X128502841Y-102170000D01*
X159055000Y-62645000D02*
X161250000Y-64840000D01*
X149080000Y-116020000D02*
X147900000Y-117200000D01*
X149442500Y-100380000D02*
X147652500Y-102170000D01*
X100840000Y-100804117D02*
X104771117Y-96873000D01*
X132480000Y-102170000D02*
X131442842Y-101132842D01*
X164450001Y-99017158D02*
X150805342Y-99017158D01*
X104771117Y-96873000D02*
X104771117Y-92890807D01*
X128502841Y-102170000D02*
X110617157Y-102170000D01*
X162234522Y-64840000D02*
X161250000Y-64840000D01*
X194122500Y-105040000D02*
X192192500Y-106970000D01*
X143457158Y-119247158D02*
X144520001Y-119247158D01*
X147652500Y-102170000D02*
X132480000Y-102170000D01*
X109389999Y-100942842D02*
X110617157Y-102170000D01*
X104771117Y-92890807D02*
X135016924Y-62645000D01*
X150805342Y-99017158D02*
X149442500Y-100380000D01*
X152307158Y-119247158D02*
X149080000Y-116020000D01*
X131442842Y-101132842D02*
X129539999Y-101132842D01*
X135016924Y-62645000D02*
X159055000Y-62645000D01*
X141410000Y-117200000D02*
X143457158Y-119247158D01*
X126947159Y-117200000D02*
X141410000Y-117200000D01*
X147900000Y-117200000D02*
X141410000Y-117200000D01*
X124550001Y-119597158D02*
X126947159Y-117200000D01*
X103480001Y-119437158D02*
X100840000Y-116797157D01*
X194340000Y-105040000D02*
X194122500Y-105040000D01*
X164320001Y-119247158D02*
X152307158Y-119247158D01*
X109389999Y-104437156D02*
X124550001Y-119597158D01*
%TO.N,Net-(D10-DOUT)*%
X169650001Y-99017158D02*
X172460843Y-101828000D01*
X172460843Y-101828000D02*
X188550500Y-101828000D01*
X188550500Y-101828000D02*
X192192500Y-105470000D01*
%TO.N,DOUT*%
X102440000Y-102692841D02*
X104189999Y-100942842D01*
X124550001Y-121097158D02*
X106882843Y-103430000D01*
X106882843Y-103430000D02*
X102440000Y-103430000D01*
X102440000Y-103430000D02*
X102440000Y-102692841D01*
%TO.N,Net-(D12-DOUT)*%
X171780000Y-117110000D02*
X171657159Y-117110000D01*
X164450001Y-100517158D02*
X164450001Y-108324523D01*
X171657159Y-117110000D02*
X169520001Y-119247158D01*
X164450001Y-108324523D02*
X171780000Y-115654522D01*
X171780000Y-115654522D02*
X171780000Y-117110000D01*
%TO.N,Net-(D13-DOUT)*%
X150810001Y-120337158D02*
X149720001Y-119247158D01*
X163910001Y-120337158D02*
X150810001Y-120337158D01*
X164320001Y-120747158D02*
X163910001Y-120337158D01*
%TO.N,Net-(D14-DOUT)*%
X149442500Y-98880000D02*
X147790500Y-97228000D01*
X109298000Y-113367132D02*
X109298000Y-118819159D01*
X147790500Y-97228000D02*
X146077132Y-97228000D01*
X102085000Y-100061163D02*
X102085000Y-106154132D01*
X145294566Y-96445434D02*
X144512000Y-97228000D01*
X102085000Y-106154132D02*
X109298000Y-113367132D01*
X144512000Y-97228000D02*
X104918163Y-97228000D01*
X104918163Y-97228000D02*
X102085000Y-100061163D01*
X109298000Y-118819159D02*
X108680001Y-119437158D01*
X146077132Y-97228000D02*
X145294566Y-96445434D01*
%TO.N,Net-(D16-DOUT)*%
X130900001Y-120747158D02*
X129750001Y-119597158D01*
X144520001Y-120747158D02*
X130900001Y-120747158D01*
%TO.N,+3.3V*%
X134874834Y-68845000D02*
X133615000Y-68845000D01*
X161250000Y-69920000D02*
X157478000Y-66148000D01*
X137571834Y-66148000D02*
X134874834Y-68845000D01*
X157478000Y-66148000D02*
X137571834Y-66148000D01*
%TO.N,d3*%
X145065478Y-72460000D02*
X146000000Y-72460000D01*
X140362261Y-85577800D02*
X139842200Y-85057739D01*
X181750000Y-97500000D02*
X166349132Y-97500000D01*
X139842200Y-85057739D02*
X139842200Y-77683278D01*
X154426932Y-85577800D02*
X140362261Y-85577800D01*
X166349132Y-97500000D02*
X154426932Y-85577800D01*
X139842200Y-77683278D02*
X145065478Y-72460000D01*
%TO.N,d6*%
X144586507Y-80080000D02*
X146000000Y-80080000D01*
X181750000Y-92500000D02*
X182978000Y-93728000D01*
X182258655Y-96228000D02*
X171378868Y-96228000D01*
X140509307Y-85222800D02*
X140197200Y-84910693D01*
X171378868Y-96228000D02*
X160373668Y-85222800D01*
X182978000Y-93728000D02*
X182978000Y-95508655D01*
X140197200Y-84469307D02*
X144586507Y-80080000D01*
X160373668Y-85222800D02*
X140509307Y-85222800D01*
X140197200Y-84910693D02*
X140197200Y-84469307D01*
X182978000Y-95508655D02*
X182258655Y-96228000D01*
%TD*%
M02*
