%TF.GenerationSoftware,KiCad,Pcbnew,9.0.7*%
%TF.CreationDate,2026-03-09T18:07:53+05:30*%
%TF.ProjectId,hackpad,6861636b-7061-4642-9e6b-696361645f70,rev?*%
%TF.SameCoordinates,Original*%
%TF.FileFunction,Profile,NP*%
%FSLAX46Y46*%
G04 Gerber Fmt 4.6, Leading zero omitted, Abs format (unit mm)*
G04 Created by KiCad (PCBNEW 9.0.7) date 2026-03-09 18:07:53*
%MOMM*%
%LPD*%
G01*
G04 APERTURE LIST*
%TA.AperFunction,Profile*%
%ADD10C,0.100000*%
%TD*%
%ADD11C,0.150000*%
G04 APERTURE END LIST*
D10*
X95410000Y-59980000D02*
X201910000Y-59980000D01*
X201910000Y-129640000D01*
X95410000Y-129640000D01*
X95410000Y-59980000D01*
D11*
X179530357Y-94224819D02*
X179720833Y-94224819D01*
X179720833Y-94224819D02*
X179816071Y-94177200D01*
X179816071Y-94177200D02*
X179863690Y-94129580D01*
X179863690Y-94129580D02*
X179958928Y-93986723D01*
X179958928Y-93986723D02*
X180006547Y-93796247D01*
X180006547Y-93796247D02*
X180006547Y-93415295D01*
X180006547Y-93415295D02*
X179958928Y-93320057D01*
X179958928Y-93320057D02*
X179911309Y-93272438D01*
X179911309Y-93272438D02*
X179816071Y-93224819D01*
X179816071Y-93224819D02*
X179625595Y-93224819D01*
X179625595Y-93224819D02*
X179530357Y-93272438D01*
X179530357Y-93272438D02*
X179482738Y-93320057D01*
X179482738Y-93320057D02*
X179435119Y-93415295D01*
X179435119Y-93415295D02*
X179435119Y-93653390D01*
X179435119Y-93653390D02*
X179482738Y-93748628D01*
X179482738Y-93748628D02*
X179530357Y-93796247D01*
X179530357Y-93796247D02*
X179625595Y-93843866D01*
X179625595Y-93843866D02*
X179816071Y-93843866D01*
X179816071Y-93843866D02*
X179911309Y-93796247D01*
X179911309Y-93796247D02*
X179958928Y-93748628D01*
X179958928Y-93748628D02*
X180006547Y-93653390D01*
X180435119Y-94129580D02*
X180482738Y-94177200D01*
X180482738Y-94177200D02*
X180435119Y-94224819D01*
X180435119Y-94224819D02*
X180387500Y-94177200D01*
X180387500Y-94177200D02*
X180435119Y-94129580D01*
X180435119Y-94129580D02*
X180435119Y-94224819D01*
X180816071Y-93224819D02*
X181482737Y-93224819D01*
X181482737Y-93224819D02*
X181054166Y-94224819D01*
X181816071Y-93320057D02*
X181863690Y-93272438D01*
X181863690Y-93272438D02*
X181958928Y-93224819D01*
X181958928Y-93224819D02*
X182197023Y-93224819D01*
X182197023Y-93224819D02*
X182292261Y-93272438D01*
X182292261Y-93272438D02*
X182339880Y-93320057D01*
X182339880Y-93320057D02*
X182387499Y-93415295D01*
X182387499Y-93415295D02*
X182387499Y-93510533D01*
X182387499Y-93510533D02*
X182339880Y-93653390D01*
X182339880Y-93653390D02*
X181768452Y-94224819D01*
X181768452Y-94224819D02*
X182387499Y-94224819D01*
X183292261Y-93224819D02*
X182816071Y-93224819D01*
X182816071Y-93224819D02*
X182768452Y-93701009D01*
X182768452Y-93701009D02*
X182816071Y-93653390D01*
X182816071Y-93653390D02*
X182911309Y-93605771D01*
X182911309Y-93605771D02*
X183149404Y-93605771D01*
X183149404Y-93605771D02*
X183244642Y-93653390D01*
X183244642Y-93653390D02*
X183292261Y-93701009D01*
X183292261Y-93701009D02*
X183339880Y-93796247D01*
X183339880Y-93796247D02*
X183339880Y-94034342D01*
X183339880Y-94034342D02*
X183292261Y-94129580D01*
X183292261Y-94129580D02*
X183244642Y-94177200D01*
X183244642Y-94177200D02*
X183149404Y-94224819D01*
X183149404Y-94224819D02*
X182911309Y-94224819D01*
X182911309Y-94224819D02*
X182816071Y-94177200D01*
X182816071Y-94177200D02*
X182768452Y-94129580D01*
D10*
X186250000Y-94500000D02*
X186250000Y-94333580D01*
X176525000Y-94333580D02*
X176525000Y-94500000D01*
X186250000Y-94920000D02*
X176525000Y-94920000D01*
X186250000Y-94920000D02*
X185123496Y-95506421D01*
X186250000Y-94920000D02*
X185123496Y-94333579D01*
X176525000Y-94920000D02*
X177651504Y-94333579D01*
X176525000Y-94920000D02*
X177651504Y-95506421D01*
D11*
X176906191Y-98074819D02*
X177525238Y-98074819D01*
X177525238Y-98074819D02*
X177191905Y-98455771D01*
X177191905Y-98455771D02*
X177334762Y-98455771D01*
X177334762Y-98455771D02*
X177430000Y-98503390D01*
X177430000Y-98503390D02*
X177477619Y-98551009D01*
X177477619Y-98551009D02*
X177525238Y-98646247D01*
X177525238Y-98646247D02*
X177525238Y-98884342D01*
X177525238Y-98884342D02*
X177477619Y-98979580D01*
X177477619Y-98979580D02*
X177430000Y-99027200D01*
X177430000Y-99027200D02*
X177334762Y-99074819D01*
X177334762Y-99074819D02*
X177049048Y-99074819D01*
X177049048Y-99074819D02*
X176953810Y-99027200D01*
X176953810Y-99027200D02*
X176906191Y-98979580D01*
X177953810Y-98979580D02*
X178001429Y-99027200D01*
X178001429Y-99027200D02*
X177953810Y-99074819D01*
X177953810Y-99074819D02*
X177906191Y-99027200D01*
X177906191Y-99027200D02*
X177953810Y-98979580D01*
X177953810Y-98979580D02*
X177953810Y-99074819D01*
X178858571Y-98074819D02*
X178668095Y-98074819D01*
X178668095Y-98074819D02*
X178572857Y-98122438D01*
X178572857Y-98122438D02*
X178525238Y-98170057D01*
X178525238Y-98170057D02*
X178430000Y-98312914D01*
X178430000Y-98312914D02*
X178382381Y-98503390D01*
X178382381Y-98503390D02*
X178382381Y-98884342D01*
X178382381Y-98884342D02*
X178430000Y-98979580D01*
X178430000Y-98979580D02*
X178477619Y-99027200D01*
X178477619Y-99027200D02*
X178572857Y-99074819D01*
X178572857Y-99074819D02*
X178763333Y-99074819D01*
X178763333Y-99074819D02*
X178858571Y-99027200D01*
X178858571Y-99027200D02*
X178906190Y-98979580D01*
X178906190Y-98979580D02*
X178953809Y-98884342D01*
X178953809Y-98884342D02*
X178953809Y-98646247D01*
X178953809Y-98646247D02*
X178906190Y-98551009D01*
X178906190Y-98551009D02*
X178858571Y-98503390D01*
X178858571Y-98503390D02*
X178763333Y-98455771D01*
X178763333Y-98455771D02*
X178572857Y-98455771D01*
X178572857Y-98455771D02*
X178477619Y-98503390D01*
X178477619Y-98503390D02*
X178430000Y-98551009D01*
X178430000Y-98551009D02*
X178382381Y-98646247D01*
X179810952Y-98408152D02*
X179810952Y-99074819D01*
X179572857Y-98027200D02*
X179334762Y-98741485D01*
X179334762Y-98741485D02*
X179953809Y-98741485D01*
D10*
X176610000Y-101600000D02*
X176610000Y-99183580D01*
X180250000Y-99183580D02*
X180250000Y-101600000D01*
X176610000Y-99770000D02*
X180250000Y-99770000D01*
X176610000Y-99770000D02*
X177736504Y-99183579D01*
X176610000Y-99770000D02*
X177736504Y-100356421D01*
X180250000Y-99770000D02*
X179123496Y-100356421D01*
X180250000Y-99770000D02*
X179123496Y-99183579D01*
%TO.C,D16*%
X145420002Y-120700000D02*
X145420002Y-119294316D01*
X146325549Y-118497159D02*
X147914454Y-118497159D01*
X147914453Y-121497158D02*
X146325549Y-121497158D01*
X148820000Y-119294316D02*
X148820000Y-120700000D01*
X145370517Y-119077438D02*
G75*
G02*
X145420002Y-119294316I-450505J-216876D01*
G01*
X145370517Y-119077438D02*
G75*
G02*
X146073290Y-118428859I450515J216878D01*
G01*
X145420002Y-120700001D02*
G75*
G02*
X145370517Y-120916878I-499990J-1D01*
G01*
X146073290Y-121565455D02*
G75*
G02*
X145370517Y-120916878I-252258J431700D01*
G01*
X146073291Y-121565457D02*
G75*
G02*
X146325549Y-121497158I252261J-431710D01*
G01*
X146325548Y-118497158D02*
G75*
G02*
X146073290Y-118428859I3J500009D01*
G01*
X147914453Y-121497158D02*
G75*
G02*
X148166712Y-121565457I-3J-500012D01*
G01*
X148166712Y-118428860D02*
G75*
G02*
X147914454Y-118497160I-252262J431710D01*
G01*
X148166712Y-118428860D02*
G75*
G02*
X148869484Y-119077438I252258J-431700D01*
G01*
X148820000Y-119294315D02*
G75*
G02*
X148869479Y-119077435I500000J15D01*
G01*
X148869485Y-120916877D02*
G75*
G02*
X148166712Y-121565457I-450514J-216880D01*
G01*
X148869485Y-120916878D02*
G75*
G02*
X148820000Y-120700000I450515J216878D01*
G01*
%TO.C,D12*%
X165350002Y-100470000D02*
X165350002Y-99064316D01*
X166255549Y-98267159D02*
X167844454Y-98267159D01*
X167844453Y-101267158D02*
X166255549Y-101267158D01*
X168750000Y-99064316D02*
X168750000Y-100470000D01*
X165300517Y-98847438D02*
G75*
G02*
X165350002Y-99064316I-450505J-216876D01*
G01*
X165300517Y-98847438D02*
G75*
G02*
X166003290Y-98198859I450515J216878D01*
G01*
X165350002Y-100470001D02*
G75*
G02*
X165300517Y-100686878I-499990J-1D01*
G01*
X166003290Y-101335455D02*
G75*
G02*
X165300517Y-100686878I-252258J431700D01*
G01*
X166003291Y-101335457D02*
G75*
G02*
X166255549Y-101267158I252261J-431710D01*
G01*
X166255548Y-98267158D02*
G75*
G02*
X166003290Y-98198859I3J500009D01*
G01*
X167844453Y-101267158D02*
G75*
G02*
X168096712Y-101335457I-3J-500012D01*
G01*
X168096712Y-98198860D02*
G75*
G02*
X167844454Y-98267160I-252262J431710D01*
G01*
X168096712Y-98198860D02*
G75*
G02*
X168799484Y-98847438I252258J-431700D01*
G01*
X168750000Y-99064315D02*
G75*
G02*
X168799479Y-98847435I500000J15D01*
G01*
X168799485Y-100686877D02*
G75*
G02*
X168096712Y-101335457I-450514J-216880D01*
G01*
X168799485Y-100686878D02*
G75*
G02*
X168750000Y-100470000I450515J216878D01*
G01*
%TO.C,D17*%
X125450002Y-121050000D02*
X125450002Y-119644316D01*
X126355549Y-118847159D02*
X127944454Y-118847159D01*
X127944453Y-121847158D02*
X126355549Y-121847158D01*
X128850000Y-119644316D02*
X128850000Y-121050000D01*
X125400517Y-119427438D02*
G75*
G02*
X125450002Y-119644316I-450505J-216876D01*
G01*
X125400517Y-119427438D02*
G75*
G02*
X126103290Y-118778859I450515J216878D01*
G01*
X125450002Y-121050001D02*
G75*
G02*
X125400517Y-121266878I-499990J-1D01*
G01*
X126103290Y-121915455D02*
G75*
G02*
X125400517Y-121266878I-252258J431700D01*
G01*
X126103291Y-121915457D02*
G75*
G02*
X126355549Y-121847158I252261J-431710D01*
G01*
X126355548Y-118847158D02*
G75*
G02*
X126103290Y-118778859I3J500009D01*
G01*
X127944453Y-121847158D02*
G75*
G02*
X128196712Y-121915457I-3J-500012D01*
G01*
X128196712Y-118778860D02*
G75*
G02*
X127944454Y-118847160I-252262J431710D01*
G01*
X128196712Y-118778860D02*
G75*
G02*
X128899484Y-119427438I252258J-431700D01*
G01*
X128850000Y-119644315D02*
G75*
G02*
X128899479Y-119427435I500000J15D01*
G01*
X128899485Y-121266877D02*
G75*
G02*
X128196712Y-121915457I-450514J-216880D01*
G01*
X128899485Y-121266878D02*
G75*
G02*
X128850000Y-121050000I450515J216878D01*
G01*
%TO.C,D13*%
X165220002Y-120700000D02*
X165220002Y-119294316D01*
X166125549Y-118497159D02*
X167714454Y-118497159D01*
X167714453Y-121497158D02*
X166125549Y-121497158D01*
X168620000Y-119294316D02*
X168620000Y-120700000D01*
X165170517Y-119077438D02*
G75*
G02*
X165220002Y-119294316I-450505J-216876D01*
G01*
X165170517Y-119077438D02*
G75*
G02*
X165873290Y-118428859I450515J216878D01*
G01*
X165220002Y-120700001D02*
G75*
G02*
X165170517Y-120916878I-499990J-1D01*
G01*
X165873290Y-121565455D02*
G75*
G02*
X165170517Y-120916878I-252258J431700D01*
G01*
X165873291Y-121565457D02*
G75*
G02*
X166125549Y-121497158I252261J-431710D01*
G01*
X166125548Y-118497158D02*
G75*
G02*
X165873290Y-118428859I3J500009D01*
G01*
X167714453Y-121497158D02*
G75*
G02*
X167966712Y-121565457I-3J-500012D01*
G01*
X167966712Y-118428860D02*
G75*
G02*
X167714454Y-118497160I-252262J431710D01*
G01*
X167966712Y-118428860D02*
G75*
G02*
X168669484Y-119077438I252258J-431700D01*
G01*
X168620000Y-119294315D02*
G75*
G02*
X168669479Y-119077435I500000J15D01*
G01*
X168669485Y-120916877D02*
G75*
G02*
X167966712Y-121565457I-450514J-216880D01*
G01*
X168669485Y-120916878D02*
G75*
G02*
X168620000Y-120700000I450515J216878D01*
G01*
%TO.C,D10*%
X187892501Y-106922842D02*
X187892501Y-105517158D01*
X188798048Y-104720000D02*
X190386952Y-104720000D01*
X190386952Y-107719999D02*
X188798047Y-107719999D01*
X191292499Y-105517158D02*
X191292499Y-106922842D01*
X187843016Y-105300280D02*
G75*
G02*
X187892501Y-105517158I-450515J-216878D01*
G01*
X187843016Y-105300281D02*
G75*
G02*
X188545789Y-104651701I450514J216880D01*
G01*
X187892501Y-106922843D02*
G75*
G02*
X187843022Y-107139723I-500000J-15D01*
G01*
X188545789Y-107788298D02*
G75*
G02*
X187843017Y-107139720I-252258J431700D01*
G01*
X188545789Y-107788298D02*
G75*
G02*
X188798047Y-107719998I252262J-431710D01*
G01*
X188798048Y-104720000D02*
G75*
G02*
X188545789Y-104651701I3J500012D01*
G01*
X190386953Y-107720000D02*
G75*
G02*
X190639211Y-107788299I-3J-500009D01*
G01*
X190639210Y-104651701D02*
G75*
G02*
X190386952Y-104720000I-252261J431710D01*
G01*
X190639211Y-104651703D02*
G75*
G02*
X191341984Y-105300280I252258J-431700D01*
G01*
X191292499Y-105517157D02*
G75*
G02*
X191341984Y-105300280I499990J1D01*
G01*
X191341984Y-107139720D02*
G75*
G02*
X190639211Y-107788299I-450515J-216878D01*
G01*
X191341984Y-107139720D02*
G75*
G02*
X191292499Y-106922842I450505J216876D01*
G01*
%TO.C,D14*%
X145142501Y-100332842D02*
X145142501Y-98927158D01*
X146048048Y-98130000D02*
X147636952Y-98130000D01*
X147636952Y-101129999D02*
X146048047Y-101129999D01*
X148542499Y-98927158D02*
X148542499Y-100332842D01*
X145093016Y-98710280D02*
G75*
G02*
X145142501Y-98927158I-450515J-216878D01*
G01*
X145093016Y-98710281D02*
G75*
G02*
X145795789Y-98061701I450514J216880D01*
G01*
X145142501Y-100332843D02*
G75*
G02*
X145093022Y-100549723I-500000J-15D01*
G01*
X145795789Y-101198298D02*
G75*
G02*
X145093017Y-100549720I-252258J431700D01*
G01*
X145795789Y-101198298D02*
G75*
G02*
X146048047Y-101129998I252262J-431710D01*
G01*
X146048048Y-98130000D02*
G75*
G02*
X145795789Y-98061701I3J500012D01*
G01*
X147636953Y-101130000D02*
G75*
G02*
X147889211Y-101198299I-3J-500009D01*
G01*
X147889210Y-98061701D02*
G75*
G02*
X147636952Y-98130000I-252261J431710D01*
G01*
X147889211Y-98061703D02*
G75*
G02*
X148591984Y-98710280I252258J-431700D01*
G01*
X148542499Y-98927157D02*
G75*
G02*
X148591984Y-98710280I499990J1D01*
G01*
X148591984Y-100549720D02*
G75*
G02*
X147889211Y-101198299I-450515J-216878D01*
G01*
X148591984Y-100549720D02*
G75*
G02*
X148542499Y-100332842I450505J216876D01*
G01*
%TO.C,D9*%
X125240000Y-101085684D02*
X125240000Y-99680000D01*
X126145547Y-98882842D02*
X127734451Y-98882842D01*
X127734451Y-101882841D02*
X126145546Y-101882841D01*
X128639998Y-99680000D02*
X128639998Y-101085684D01*
X125190515Y-99463122D02*
G75*
G02*
X125240000Y-99680000I-450515J-216878D01*
G01*
X125190515Y-99463123D02*
G75*
G02*
X125893288Y-98814543I450514J216880D01*
G01*
X125240000Y-101085685D02*
G75*
G02*
X125190521Y-101302565I-500000J-15D01*
G01*
X125893288Y-101951140D02*
G75*
G02*
X125190516Y-101302562I-252258J431700D01*
G01*
X125893288Y-101951140D02*
G75*
G02*
X126145546Y-101882840I252262J-431710D01*
G01*
X126145547Y-98882842D02*
G75*
G02*
X125893288Y-98814543I3J500012D01*
G01*
X127734452Y-101882842D02*
G75*
G02*
X127986710Y-101951141I-3J-500009D01*
G01*
X127986709Y-98814543D02*
G75*
G02*
X127734451Y-98882842I-252261J431710D01*
G01*
X127986710Y-98814545D02*
G75*
G02*
X128689483Y-99463122I252258J-431700D01*
G01*
X128639998Y-99679999D02*
G75*
G02*
X128689483Y-99463122I499990J1D01*
G01*
X128689483Y-101302562D02*
G75*
G02*
X127986710Y-101951141I-450515J-216878D01*
G01*
X128689483Y-101302562D02*
G75*
G02*
X128639998Y-101085684I450505J216876D01*
G01*
%TO.C,D15*%
X104380002Y-120890000D02*
X104380002Y-119484316D01*
X105285549Y-118687159D02*
X106874454Y-118687159D01*
X106874453Y-121687158D02*
X105285549Y-121687158D01*
X107780000Y-119484316D02*
X107780000Y-120890000D01*
X104330517Y-119267438D02*
G75*
G02*
X104380002Y-119484316I-450505J-216876D01*
G01*
X104330517Y-119267438D02*
G75*
G02*
X105033290Y-118618859I450515J216878D01*
G01*
X104380002Y-120890001D02*
G75*
G02*
X104330517Y-121106878I-499990J-1D01*
G01*
X105033290Y-121755455D02*
G75*
G02*
X104330517Y-121106878I-252258J431700D01*
G01*
X105033291Y-121755457D02*
G75*
G02*
X105285549Y-121687158I252261J-431710D01*
G01*
X105285548Y-118687158D02*
G75*
G02*
X105033290Y-118618859I3J500009D01*
G01*
X106874453Y-121687158D02*
G75*
G02*
X107126712Y-121755457I-3J-500012D01*
G01*
X107126712Y-118618860D02*
G75*
G02*
X106874454Y-118687160I-252262J431710D01*
G01*
X107126712Y-118618860D02*
G75*
G02*
X107829484Y-119267438I252258J-431700D01*
G01*
X107780000Y-119484315D02*
G75*
G02*
X107829479Y-119267435I500000J15D01*
G01*
X107829485Y-121106877D02*
G75*
G02*
X107126712Y-121755457I-450514J-216880D01*
G01*
X107829485Y-121106878D02*
G75*
G02*
X107780000Y-120890000I450515J216878D01*
G01*
%TO.C,D11*%
X105090000Y-100895684D02*
X105090000Y-99490000D01*
X105995547Y-98692842D02*
X107584451Y-98692842D01*
X107584451Y-101692841D02*
X105995546Y-101692841D01*
X108489998Y-99490000D02*
X108489998Y-100895684D01*
X105040515Y-99273122D02*
G75*
G02*
X105090000Y-99490000I-450515J-216878D01*
G01*
X105040515Y-99273123D02*
G75*
G02*
X105743288Y-98624543I450514J216880D01*
G01*
X105090000Y-100895685D02*
G75*
G02*
X105040521Y-101112565I-500000J-15D01*
G01*
X105743288Y-101761140D02*
G75*
G02*
X105040516Y-101112562I-252258J431700D01*
G01*
X105743288Y-101761140D02*
G75*
G02*
X105995546Y-101692840I252262J-431710D01*
G01*
X105995547Y-98692842D02*
G75*
G02*
X105743288Y-98624543I3J500012D01*
G01*
X107584452Y-101692842D02*
G75*
G02*
X107836710Y-101761141I-3J-500009D01*
G01*
X107836709Y-98624543D02*
G75*
G02*
X107584451Y-98692842I-252261J431710D01*
G01*
X107836710Y-98624545D02*
G75*
G02*
X108539483Y-99273122I252258J-431700D01*
G01*
X108489998Y-99489999D02*
G75*
G02*
X108539483Y-99273122I499990J1D01*
G01*
X108539483Y-101112562D02*
G75*
G02*
X107836710Y-101761141I-450515J-216878D01*
G01*
X108539483Y-101112562D02*
G75*
G02*
X108489998Y-100895684I450505J216876D01*
G01*
%TD*%
M02*
