M48
; DRILL file {KiCad 9.0.7} date 2026-03-09T18:07:11+0530
; FORMAT={-:-/ absolute / metric / decimal}
; #@! TF.CreationDate,2026-03-09T18:07:11+05:30
; #@! TF.GenerationSoftware,Kicad,Pcbnew,9.0.7
; #@! TF.FileFunction,Plated,1,2,PTH
FMAT,2
METRIC
; #@! TA.AperFunction,Plated,PTH,ViaDrill
T1C0.305
; #@! TA.AperFunction,Plated,PTH,ComponentDrill
T2C1.000
; #@! TA.AperFunction,Plated,PTH,ComponentDrill
T3C1.500
%
G90
G05
T1
X110.537Y-110.395
X115.24Y-98.38
X140.73Y-84.69
X164.32Y-119.247
X186.992Y-106.97
X194.34Y-105.04
T2
X133.615Y-66.305
X133.615Y-68.845
X133.615Y-71.385
X133.615Y-73.925
X146.0Y-64.84
X146.0Y-67.38
X146.0Y-69.92
X146.0Y-72.46
X146.0Y-75.0
X146.0Y-77.54
X146.0Y-80.08
X161.25Y-64.84
X161.25Y-67.38
X161.25Y-69.92
X161.25Y-72.46
X161.25Y-75.0
X161.25Y-77.54
X161.25Y-80.08
X181.75Y-92.5
X181.75Y-95.0
X181.75Y-97.5
X196.25Y-92.5
X196.25Y-97.5
T3
X103.26Y-111.75
X103.27Y-92.46
X109.61Y-109.21
X109.62Y-89.92
X123.11Y-92.46
X123.15Y-111.76
X129.46Y-89.92
X129.5Y-109.22
X143.19Y-92.46
X143.26Y-111.83
X149.54Y-89.92
X149.61Y-109.29
X163.13Y-111.83
X163.19Y-92.46
X169.48Y-109.29
X169.54Y-89.92
T3
G00X188.6Y-89.4
M15
G01X189.9Y-89.4
M16
G05
G00X188.6Y-100.6
M15
G01X189.9Y-100.6
M16
G05
M30
