M48
; DRILL file {KiCad 9.0.7} date 2026-03-09T18:07:11+0530
; FORMAT={-:-/ absolute / metric / decimal}
; #@! TF.CreationDate,2026-03-09T18:07:11+05:30
; #@! TF.GenerationSoftware,Kicad,Pcbnew,9.0.7
; #@! TF.FileFunction,NonPlated,1,2,NPTH
FMAT,2
METRIC
; #@! TA.AperFunction,NonPlated,NPTH,ComponentDrill
T1C1.700
; #@! TA.AperFunction,NonPlated,NPTH,ComponentDrill
T2C4.000
%
G90
G05
T1
X101.99Y-114.29
X102.0Y-95.0
X112.15Y-114.29
X112.16Y-95.0
X121.84Y-95.0
X121.88Y-114.3
X132.0Y-95.0
X132.04Y-114.3
X141.92Y-95.0
X141.99Y-114.37
X152.08Y-95.0
X152.15Y-114.37
X161.86Y-114.37
X161.92Y-95.0
X172.02Y-114.37
X172.08Y-95.0
T2
X107.07Y-114.29
X107.08Y-95.0
X126.92Y-95.0
X126.96Y-114.3
X147.0Y-95.0
X147.07Y-114.37
X166.94Y-114.37
X167.0Y-95.0
M30
