%TF.GenerationSoftware,KiCad,Pcbnew,9.0.7*%
%TF.CreationDate,2026-03-09T18:05:50+05:30*%
%TF.ProjectId,hackpad,6861636b-7061-4642-9e6b-696361645f70,rev?*%
%TF.SameCoordinates,Original*%
%TF.FileFunction,Legend,Bot*%
%TF.FilePolarity,Positive*%
%FSLAX46Y46*%
G04 Gerber Fmt 4.6, Leading zero omitted, Abs format (unit mm)*
G04 Created by KiCad (PCBNEW 9.0.7) date 2026-03-09 18:05:50*
%MOMM*%
%LPD*%
G01*
G04 APERTURE LIST*
%ADD10C,0.100000*%
G04 APERTURE END LIST*
D10*
%TO.C,D16*%
X151320001Y-121897158D02*
X150420001Y-121897158D01*
X151320001Y-120997158D01*
X151320001Y-121897158D01*
G36*
X151320001Y-121897158D02*
G01*
X150420001Y-121897158D01*
X151320001Y-120997158D01*
X151320001Y-121897158D01*
G37*
%TO.C,D12*%
X171250001Y-101667158D02*
X170350001Y-101667158D01*
X171250001Y-100767158D01*
X171250001Y-101667158D01*
G36*
X171250001Y-101667158D02*
G01*
X170350001Y-101667158D01*
X171250001Y-100767158D01*
X171250001Y-101667158D01*
G37*
%TO.C,D17*%
X131350001Y-122247158D02*
X130450001Y-122247158D01*
X131350001Y-121347158D01*
X131350001Y-122247158D01*
G36*
X131350001Y-122247158D02*
G01*
X130450001Y-122247158D01*
X131350001Y-121347158D01*
X131350001Y-122247158D01*
G37*
%TO.C,D13*%
X171120001Y-121897158D02*
X170220001Y-121897158D01*
X171120001Y-120997158D01*
X171120001Y-121897158D01*
G36*
X171120001Y-121897158D02*
G01*
X170220001Y-121897158D01*
X171120001Y-120997158D01*
X171120001Y-121897158D01*
G37*
%TO.C,D10*%
X185392500Y-105220000D02*
X185392500Y-104320000D01*
X186292500Y-104320000D01*
X185392500Y-105220000D01*
G36*
X185392500Y-105220000D02*
G01*
X185392500Y-104320000D01*
X186292500Y-104320000D01*
X185392500Y-105220000D01*
G37*
%TO.C,D14*%
X142642500Y-98630000D02*
X142642500Y-97730000D01*
X143542500Y-97730000D01*
X142642500Y-98630000D01*
G36*
X142642500Y-98630000D02*
G01*
X142642500Y-97730000D01*
X143542500Y-97730000D01*
X142642500Y-98630000D01*
G37*
%TO.C,D9*%
X122739999Y-99382842D02*
X122739999Y-98482842D01*
X123639999Y-98482842D01*
X122739999Y-99382842D01*
G36*
X122739999Y-99382842D02*
G01*
X122739999Y-98482842D01*
X123639999Y-98482842D01*
X122739999Y-99382842D01*
G37*
%TO.C,D15*%
X110280001Y-122087158D02*
X109380001Y-122087158D01*
X110280001Y-121187158D01*
X110280001Y-122087158D01*
G36*
X110280001Y-122087158D02*
G01*
X109380001Y-122087158D01*
X110280001Y-121187158D01*
X110280001Y-122087158D01*
G37*
%TO.C,D11*%
X102589999Y-99192842D02*
X102589999Y-98292842D01*
X103489999Y-98292842D01*
X102589999Y-99192842D01*
G36*
X102589999Y-99192842D02*
G01*
X102589999Y-98292842D01*
X103489999Y-98292842D01*
X102589999Y-99192842D01*
G37*
%TD*%
M02*
